<svg width="39" height="38" viewBox="0 0 39 38" fill="none" xmlns="http://www.w3.org/2000/svg">
<path d="M22.8863 0C18.9397 0 15.3352 1.51768 12.6035 4.00929C13.2094 4.99077 13.5536 6.13268 13.586 7.31139L13.5861 7.31482L13.5862 7.31825C13.6 7.84937 13.6311 8.38063 13.6758 8.91107C15.7477 6.01071 19.1035 4.12041 22.8863 4.12041C29.1651 4.12041 34.2734 9.3242 34.2734 15.7206C34.2734 22.0495 29.2717 27.2075 23.0838 27.3157C23.6488 27.7967 24.2322 28.2551 24.8333 28.6856L24.836 28.6876L24.8388 28.6896C25.6572 29.2777 26.3237 30.0487 26.7914 30.9306C33.4157 29.1642 38.3179 23.0149 38.3179 15.7206C38.3181 7.05221 31.3955 0 22.8863 0Z" fill="#1B4E9B"/>
<path d="M22.5079 32.0561C20.745 30.6224 19.6451 29.6677 18.071 28.1823C17.6079 27.7453 17.0419 27.4731 16.4607 27.4731C16.0159 27.4731 15.5766 27.6174 15.215 27.9197C14.8418 28.2398 14.4686 28.5598 14.0953 28.8797C11.0619 25.2073 8.80941 20.928 7.4853 16.3219C7.95341 16.1824 8.42165 16.0427 8.88976 15.9031C9.92143 15.5813 10.4068 14.4593 10.2554 13.3346C9.92602 10.8865 9.74711 9.67033 9.54325 7.42622C9.43876 6.27594 8.68726 5.27674 7.61015 5.217C7.44216 5.20038 7.2743 5.19214 7.10779 5.19214C3.10217 5.19214 -0.385452 9.92181 0.904678 15.708C2.51003 22.8736 5.98538 29.476 10.9559 34.8034C12.992 36.9812 15.4864 37.9673 17.7392 37.9673C20.1157 37.9673 22.2236 36.8708 23.2445 34.9189C23.7917 33.9719 23.3943 32.7769 22.5079 32.0561Z" fill="#1B4E9B"/>
<path d="M18.2464 16.0113C17.1797 17.0196 16.4817 17.8124 16.1131 18.4345C15.8529 18.8734 15.6631 19.3373 15.5486 19.8135C15.4948 20.0377 15.5443 20.2703 15.6844 20.452C15.8243 20.6335 16.0344 20.7376 16.2609 20.7376H21.3515C21.9752 20.7376 22.4827 20.2206 22.4827 19.5852C22.4827 18.9499 21.9752 18.4329 21.3515 18.4329H19.0527C19.0714 18.4104 19.0907 18.3878 19.1104 18.3652C19.2606 18.1929 19.6284 17.8331 20.2034 17.2959C20.8065 16.7321 21.2136 16.3099 21.4481 16.0051C21.8015 15.547 22.0644 15.0996 22.2293 14.6758C22.3974 14.2438 22.4827 13.7833 22.4827 13.3068C22.4827 12.452 22.1788 11.7264 21.5795 11.1498C20.9842 10.5779 20.1646 10.2881 19.1431 10.2881C18.215 10.2881 17.4267 10.5356 16.8003 11.0237C16.4224 11.3185 16.1314 11.7268 15.9354 12.2377C15.803 12.5829 15.8372 12.9777 16.0271 13.2938C16.2169 13.61 16.5464 13.8208 16.9084 13.8576C16.9487 13.8617 16.9889 13.8638 17.0286 13.8638C17.5381 13.8638 17.9924 13.5337 18.1593 13.0426C18.2116 12.8886 18.2808 12.7662 18.3652 12.6786C18.5429 12.4942 18.7822 12.4043 19.097 12.4043C19.417 12.4043 19.656 12.4892 19.8275 12.6638C19.9986 12.8381 20.0818 13.0923 20.0818 13.4412C20.0818 13.7652 19.9681 14.103 19.744 14.4457C19.6239 14.6251 19.2649 15.0447 18.2464 16.0113Z" fill="#1B4E9B"/>
<path d="M28.4375 10.2881H27.5872C27.3449 10.2881 27.1187 10.4098 26.982 10.6136L23.0494 16.478C22.9347 16.6492 22.874 16.8493 22.874 17.0565V18.0068C22.874 18.4185 23.2029 18.7535 23.6069 18.7535H26.8353V19.5483C26.8353 20.2041 27.3591 20.7377 28.0029 20.7377C28.6466 20.7377 29.1704 20.2041 29.1704 19.5483V18.7535H29.2871C29.8853 18.7535 30.372 18.2576 30.372 17.6482C30.372 17.0388 29.8853 16.543 29.2871 16.543H29.1704V11.0347C29.1704 10.6231 28.8416 10.2881 28.4375 10.2881ZM26.8354 16.543H25.3863L26.8354 14.3485V16.543Z" fill="#1B4E9B"/>
</svg>
