<?xml version="1.0" encoding="UTF-8"?>
<svg xmlns="http://www.w3.org/2000/svg" width="38" height="36" viewBox="0 0 38 36" fill="none">
  <path fill-rule="evenodd" clip-rule="evenodd" d="M4.61162 3.57767C4.44324 3.28939 4.33896 2.96821 4.30588 2.636C4.28448 2.11624 4.55047 1.68515 5.13443 1.31826C5.27913 1.22894 5.43285 1.15516 5.59304 1.09813C5.91444 0.972048 6.26616 0.944804 6.60314 1.01989C6.94012 1.09497 7.247 1.26896 7.48446 1.51956C7.72193 1.77017 7.87916 2.08597 7.936 2.4265C7.99285 2.76702 7.94672 3.11677 7.80354 3.43092C7.66511 3.75474 7.4364 4.03186 7.14472 4.22921C6.85305 4.42655 6.51073 4.53576 6.15866 4.54381C5.84536 4.51378 5.54308 4.41249 5.27494 4.24768C5.0068 4.08288 4.77991 3.85893 4.61162 3.59296V3.57767Z" fill="#F69855"></path>
  <path fill-rule="evenodd" clip-rule="evenodd" d="M13.3285 3.57767C13.4982 3.28999 13.6026 2.96851 13.6343 2.636C13.6557 2.11624 13.3927 1.68515 12.8057 1.31826C12.661 1.22894 12.5073 1.15516 12.3471 1.09813C12.0257 0.972048 11.674 0.944804 11.337 1.01989C11 1.09497 10.6931 1.26896 10.4557 1.51956C10.2182 1.77017 10.061 2.08597 10.0041 2.4265C9.94728 2.76702 9.99341 3.11677 10.1366 3.43092C10.275 3.75474 10.5037 4.03186 10.7954 4.22921C11.0871 4.42655 11.4294 4.53576 11.7815 4.54381C12.0948 4.51378 12.3971 4.41249 12.6652 4.24768C12.9333 4.08288 13.1602 3.85893 13.3285 3.59296V3.57767Z" fill="#F69855"></path>
  <path fill-rule="evenodd" clip-rule="evenodd" d="M31.4144 2.28726C32.9162 2.2872 34.3664 2.83605 35.4918 3.83052C36.6173 4.82499 37.3405 6.19651 37.5254 7.68697C37.7102 9.17743 37.344 10.6841 36.4955 11.9233C35.6471 13.1626 34.375 14.0491 32.9186 14.4159C32.9186 14.8348 32.9461 14.795 32.9645 15.4738C32.9981 16.6509 33.0348 17.9014 33.0348 18.9317C33.0348 26.6149 31.6895 35.3285 20.5484 35.3285C16.4148 35.3285 13.388 33.3473 11.2692 30.5834C8.77132 27.3242 7.60034 22.9399 7.37715 19.6043C6.65153 19.0761 5.99427 18.46 5.42042 17.7699C4.41868 16.5787 3.52639 15.2996 2.75438 13.9482C2.64387 13.7571 2.57966 13.5428 2.56692 13.3225C2.55418 13.1021 2.59325 12.8819 2.681 12.6793L2.54953 12.4256C0.757899 8.93403 -0.413082 5.09089 0.143364 3.43072C0.403242 2.64497 1.02695 2.12828 1.95028 1.84088C2.91044 1.59128 3.90636 1.50854 4.89455 1.59629C5.02303 1.60291 5.14895 1.63478 5.26511 1.69007C5.38128 1.74536 5.48542 1.82298 5.57158 1.91852C5.65775 2.01405 5.72425 2.12562 5.7673 2.24686C5.81035 2.36809 5.82909 2.49662 5.82247 2.6251C5.81584 2.75358 5.78398 2.8795 5.72869 2.99567C5.6734 3.11183 5.59577 3.21597 5.50024 3.30213C5.40471 3.3883 5.29314 3.4548 5.1719 3.49785C5.05066 3.5409 4.92214 3.55964 4.79366 3.55302C4.03776 3.48153 3.27523 3.53629 2.5373 3.71506C2.23156 3.80984 2.05118 3.91991 2.00837 4.04832C1.60785 5.20707 2.7024 8.4265 4.28307 11.5328C4.34728 11.6612 4.41148 11.7866 4.47874 11.9119C4.78251 12.0266 5.03738 12.2426 5.20029 12.5234C5.88095 13.7244 6.66889 14.8612 7.55448 15.9202C7.91717 16.354 8.31942 16.7532 8.75603 17.1126H8.89973C9.33323 16.797 9.73283 16.4374 10.0921 16.0394C11.0335 14.9667 11.8661 13.8033 12.5778 12.5662C12.7393 12.2866 12.9918 12.0708 13.2932 11.9547C14.9503 8.89734 16.1488 5.60147 15.9042 4.31125C15.8492 4.00551 15.5985 3.82513 15.2071 3.69977C14.4668 3.50257 13.7009 3.41907 12.9355 3.45213C12.676 3.45213 12.4272 3.34905 12.2437 3.16557C12.0602 2.98209 11.9571 2.73324 11.9571 2.47376C11.9571 2.21428 12.0602 1.96543 12.2437 1.78195C12.4272 1.59847 12.676 1.4954 12.9355 1.4954C13.913 1.45731 14.8903 1.57496 15.8308 1.84394C16.8734 2.19554 17.6194 2.83759 17.8304 3.95354C18.1361 5.6351 16.9132 9.35901 15.1062 12.7283C15.1939 12.9333 15.2321 13.1561 15.2178 13.3786C15.2034 13.6012 15.137 13.8172 15.0237 14.0093C14.2103 15.4109 13.2621 16.7298 12.1925 17.9472C11.6138 18.5944 10.9517 19.1619 10.2236 19.6349C10.4345 22.4844 11.4465 26.141 13.5225 28.8529C15.1399 30.9717 17.4299 32.4759 20.5453 32.4759C29.1611 32.4759 30.1975 25.2727 30.1975 18.9225C30.1975 17.5926 30.1669 16.5347 30.1394 15.5411C30.118 14.8684 30.0997 14.6728 30.0875 14.4465C28.6072 14.1174 27.3004 13.2537 26.4175 12.0208C25.5346 10.7879 25.1377 9.27254 25.3028 7.76514C25.4679 6.25773 26.1835 4.86427 27.3124 3.85176C28.4413 2.83925 29.9041 2.2789 31.4205 2.27809L31.4144 2.28726ZM31.4144 4.50081C32.1944 4.50081 32.957 4.73212 33.6055 5.1655C34.2541 5.59888 34.7597 6.21485 35.0582 6.93553C35.3567 7.65621 35.4348 8.44922 35.2826 9.21429C35.1304 9.97936 34.7548 10.6821 34.2032 11.2337C33.6516 11.7853 32.9489 12.1609 32.1838 12.3131C31.4187 12.4653 30.6257 12.3872 29.905 12.0887C29.1844 11.7901 28.5684 11.2846 28.135 10.636C27.7016 9.98744 27.4703 9.2249 27.4703 8.44485C27.4699 7.9268 27.5717 7.41375 27.7697 6.93505C27.9678 6.45636 28.2583 6.02141 28.6246 5.6551C28.9909 5.28878 29.4259 4.99828 29.9046 4.80021C30.3833 4.60215 30.8963 4.50041 31.4144 4.50081Z" fill="#F69855"></path>
  <path fill-rule="evenodd" clip-rule="evenodd" d="M19.1155 16.3241H21.6042C21.8277 16.3249 22.0419 16.4141 22.2 16.5721C22.3581 16.7302 22.4472 16.9444 22.448 17.1679V20.0419H25.322C25.5455 20.0427 25.7597 20.1319 25.9178 20.2899C26.0758 20.448 26.165 20.6622 26.1658 20.8857V23.3744C26.1658 23.5985 26.077 23.8135 25.9188 23.9722C25.7607 24.1309 25.5461 24.2205 25.322 24.2213H22.448V27.0922C22.448 27.3163 22.3592 27.5313 22.2011 27.69C22.0429 27.8487 21.8283 27.9383 21.6042 27.9391H19.1155C18.8911 27.9383 18.6762 27.8488 18.5175 27.6902C18.3589 27.5315 18.2694 27.3166 18.2686 27.0922V24.2213H15.3977C15.1733 24.2205 14.9584 24.131 14.7997 23.9724C14.6411 23.8137 14.5516 23.5988 14.5508 23.3744V20.8857C14.5516 20.6614 14.6411 20.4464 14.7997 20.2878C14.9584 20.1291 15.1733 20.0396 15.3977 20.0388H18.2716V17.1679C18.2724 16.9444 18.3616 16.7302 18.5197 16.5721C18.6777 16.4141 18.8919 16.3249 19.1155 16.3241Z" fill="#F69855"></path>
</svg>
