<?xml version="1.0" encoding="UTF-8"?>
<svg xmlns="http://www.w3.org/2000/svg" width="35" height="28" viewBox="0 0 35 28" fill="none">
  <path d="M12.9331 0H4.53968C3.28735 0 2.21434 0.44116 1.32348 1.32348C0.429775 2.2058 0 3.27882 0 4.53968V12.509C0 13.7727 0.44116 14.8457 1.32348 15.7252C2.2058 16.6075 3.27882 17.0487 4.53968 17.0487H8.27104C8.00919 18.0506 7.69042 19.004 7.2891 19.8949C6.89917 20.7971 6.22747 21.6595 5.3053 22.4821C7.07848 22.021 8.65243 21.3294 10.0471 20.4186C11.4303 19.5163 12.6343 18.3836 13.6247 17.0515H16.6303C17.8826 17.0515 18.9557 16.6018 19.8465 15.7281C20.7374 14.8457 21.17 13.7727 21.17 12.5119V4.54252C21.17 3.2902 20.7288 2.21718 19.8465 1.32633C18.967 0.429775 17.894 0 16.6303 0H12.9331ZM27.9041 16.1408H25.2457L24.8643 17.3248H22.4707L25.3283 10.1467H27.8955L30.7389 17.3248H28.2826L27.9041 16.1408ZM27.4088 14.5867L26.5806 12.0081L25.7495 14.5867H27.4088ZM13.7784 10.7302C14.0887 10.9351 14.2936 11.066 14.3875 11.1172C14.5298 11.1941 14.7234 11.2823 14.9624 11.3848L14.2708 12.7083C13.9236 12.5489 13.5763 12.3582 13.2348 12.139C12.8933 11.917 12.6542 11.7519 12.5176 11.6438C11.9654 11.8686 11.2738 11.9825 10.4427 11.9825C9.21313 11.9825 8.24258 11.6808 7.53387 11.0745C6.69425 10.3601 6.27586 9.35259 6.27586 8.05757C6.27586 6.79956 6.64302 5.82047 7.37733 5.12315C8.11165 4.42583 9.13628 4.0786 10.4541 4.0786C11.7975 4.0786 12.8306 4.41729 13.5621 5.10038C14.2936 5.78062 14.6579 6.75686 14.6579 8.02342C14.6579 9.14767 14.3647 10.0499 13.7784 10.7302ZM11.8629 9.51767C12.0622 9.18182 12.1618 8.67804 12.1618 8.00634C12.1618 7.23502 12.0081 6.68571 11.7064 6.35555C11.4019 6.02539 10.9835 5.86031 10.4484 5.86031C9.95029 5.86031 9.54613 6.02824 9.23874 6.36694C8.92851 6.70279 8.77481 7.22933 8.77481 7.94657C8.77481 8.78051 8.92566 9.36682 9.22736 9.70267C9.52906 10.0385 9.9446 10.2093 10.4711 10.2093C10.6419 10.2093 10.8013 10.1922 10.9522 10.1638C10.7415 9.97022 10.4114 9.79091 9.95599 9.62013L10.3488 8.77197C10.5708 8.80897 10.7444 8.85735 10.8668 8.91143C10.992 8.96551 11.2311 9.11351 11.5925 9.34975C11.6722 9.40098 11.7633 9.4579 11.8629 9.51767ZM34.974 9.15051V17.1199C34.974 17.8428 34.8431 18.523 34.5841 19.1549C34.3223 19.7867 33.9437 20.3588 33.42 20.8683C33.2008 21.0874 32.9589 21.2895 32.7198 21.4603C32.4694 21.6396 32.2075 21.7905 31.9485 21.9214C31.9371 21.9328 31.9172 21.9328 31.9087 21.9413C31.5671 22.1007 31.2171 22.2117 30.8556 22.2914C30.4742 22.3711 30.0843 22.4109 29.683 22.4109H25.8406C25.8918 22.5703 25.9402 22.7325 26 22.8919C26.1508 23.3331 26.3301 23.7743 26.5208 24.204V24.2154C26.6916 24.6167 26.9307 24.9981 27.2238 25.3795C27.5255 25.7694 27.8842 26.1508 28.3168 26.5436C28.627 26.814 28.6583 27.2865 28.3765 27.5967C28.1859 27.8158 27.8955 27.8984 27.6337 27.8272C26.7115 27.5853 25.8292 27.2865 25.0067 26.925C24.1841 26.5635 23.4043 26.1423 22.6699 25.6613C21.947 25.1888 21.2668 24.648 20.6349 24.0589C20.1027 23.5579 19.6017 23.0058 19.1321 22.4252H16.5051C16.0127 22.4252 15.5317 22.3654 15.082 22.2458C14.6323 22.1263 14.1997 21.9356 13.7898 21.6852C13.4397 21.4745 13.3287 21.0134 13.5393 20.6634C13.75 20.3133 14.211 20.2023 14.5611 20.4129C14.8429 20.5837 15.1418 20.7146 15.4719 20.8028C15.7935 20.8939 16.1436 20.9338 16.5051 20.9338H19.5021C19.7327 20.9338 19.9518 21.0334 20.1027 21.2355C20.5751 21.8673 21.096 22.4479 21.6652 22.9802C22.2259 23.5124 22.8379 23.9934 23.4982 24.4232C24.13 24.833 24.8017 25.2059 25.5133 25.5247C25.3738 25.2941 25.2628 25.0636 25.1518 24.833C24.9526 24.372 24.7619 23.8995 24.5911 23.3986C24.4317 22.9261 24.2809 22.4365 24.15 21.9442C24.1186 21.8645 24.1101 21.7734 24.1101 21.6823C24.1101 21.2725 24.4403 20.9309 24.8615 20.9309H29.683C29.9846 20.9309 30.2636 20.8996 30.534 20.8398C30.7958 20.7801 31.0349 20.7004 31.2654 20.5979C31.2768 20.5865 31.2854 20.5865 31.2967 20.578C31.4874 20.4869 31.6781 20.3787 31.8489 20.2564C32.0282 20.1254 32.199 19.986 32.3612 19.8152C32.7312 19.4452 33.013 19.0325 33.1923 18.5913C33.3716 18.1502 33.4627 17.6578 33.4627 17.1284V9.15905C33.4627 8.62681 33.3716 8.13727 33.1923 7.69611C33.013 7.25495 32.7312 6.8451 32.3612 6.47224C31.9912 6.10224 31.5785 5.82047 31.1374 5.64116C30.6962 5.46185 30.2038 5.37077 29.6744 5.37077H24.6395C24.2296 5.37077 23.8881 5.04061 23.8881 4.61937C23.8881 4.20952 24.2183 3.86798 24.6395 3.86798H29.683C30.4059 3.86798 31.0776 3.9989 31.7066 4.25791C32.3385 4.51976 32.8992 4.8983 33.42 5.41061C33.9323 5.92293 34.3223 6.49217 34.5727 7.12402C34.8346 7.75588 34.9626 8.42758 34.9626 9.14767H34.974V9.15051Z" fill="#F69855"></path>
</svg>
