<?xml version="1.0" encoding="UTF-8"?>
<svg xmlns="http://www.w3.org/2000/svg" width="39" height="41" viewBox="0 0 39 41" fill="none">
  <path fill-rule="evenodd" clip-rule="evenodd" d="M25.7202 18.2386V13.0135C25.7202 12.8485 25.8511 12.7106 26.013 12.7106H27.296C27.4566 12.7106 27.5875 12.8485 27.5875 13.0135V16.0546C27.5875 16.3353 27.5459 16.6086 27.4673 16.8695C27.3888 17.1356 27.2698 17.3866 27.1221 17.6108C26.9972 17.7979 26.8508 17.9703 26.6889 18.1204C26.5355 18.2608 26.3629 18.3865 26.1749 18.4899C26.1285 18.5218 26.0726 18.5416 26.013 18.5416C25.851 18.5415 25.7202 18.4062 25.7202 18.2386ZM26.3057 13.3164V17.6624C26.4319 17.5467 26.5437 17.4137 26.639 17.2709C26.7555 17.0936 26.8484 16.899 26.9104 16.6922C26.9699 16.4928 27.0032 16.2785 27.0032 16.0546V13.3164H26.3057ZM13.7967 13.0135V18.2386C13.7956 18.2855 13.7836 18.3322 13.7621 18.3766C13.6885 18.5242 13.5122 18.581 13.3694 18.5047C13.1719 18.3987 12.9897 18.2682 12.8292 18.1204C12.6661 17.9703 12.5197 17.798 12.396 17.6108C12.246 17.3866 12.1281 17.1356 12.0485 16.8695C11.9712 16.6086 11.9295 16.3352 11.9295 16.0546V13.0135C11.9295 12.8485 12.0604 12.7106 12.2223 12.7106H13.504C13.6646 12.7106 13.7967 12.8485 13.7967 13.0135ZM18.8701 11.4721C18.7082 11.4721 18.5773 11.3366 18.5773 11.1691C18.5773 11.0017 18.7082 10.8662 18.8701 10.8662H25.7202V9.84688H13.7967V11.5927C13.7967 11.7602 13.6646 11.8957 13.504 11.8957H11.2416V16.1579C11.2416 16.5494 11.3035 16.9212 11.4178 17.2685C11.5355 17.6303 11.7117 17.9678 11.9318 18.2657C12.1459 18.5538 12.4007 18.8049 12.6863 19.0118C12.9671 19.2162 13.2813 19.3762 13.6157 19.4846C13.7252 19.5191 13.8097 19.62 13.8205 19.7456C13.8739 20.3611 14.0191 20.957 14.2406 21.5086L14.2453 21.5209C14.4751 22.0946 14.7869 22.6264 15.1642 23.0993C15.5474 23.577 15.9995 23.9955 16.5017 24.338C16.9945 24.6727 17.542 24.9362 18.1226 25.1086C18.225 25.1382 18.306 25.2243 18.3297 25.3376C18.4083 25.7218 18.4392 26.1108 18.4297 26.4974C18.4201 26.8791 18.3701 27.2607 18.2892 27.64L18.2869 27.6497C18.2012 28.051 18.0786 28.4499 17.9299 28.8489C17.8014 29.1886 17.6538 29.5285 17.4931 29.8683H22.0166C21.8643 29.5532 21.7227 29.233 21.5977 28.908L21.5858 28.8834C21.437 28.4944 21.3145 28.0955 21.2264 27.6917C21.1431 27.31 21.093 26.9209 21.0847 26.5294C21.0764 26.1354 21.1085 25.7365 21.1906 25.3351C21.212 25.2292 21.2895 25.1381 21.3977 25.1085C21.9783 24.9337 22.5235 24.6726 23.0163 24.3379C23.5186 23.9954 23.9695 23.577 24.3527 23.0968C24.7311 22.624 25.0442 22.0921 25.2728 21.5208C25.4954 20.9644 25.6404 20.3685 25.6964 19.748C25.706 19.6273 25.7832 19.519 25.9012 19.482C26.2367 19.3737 26.551 19.2136 26.8318 19.0118C27.1175 18.8049 27.3721 18.5513 27.584 18.2657C27.8053 17.9678 27.9815 17.6303 28.1004 17.2685C28.2136 16.9212 28.2767 16.547 28.2767 16.1579V11.8957H26.013C25.8511 11.8957 25.7202 11.7602 25.7202 11.5927V11.4721H18.8701ZM17.3968 10.8663C17.5585 10.8663 17.6895 11.0017 17.6895 11.1692C17.6895 11.3367 17.5585 11.4722 17.3968 11.4722H15.9496C15.7877 11.4722 15.6568 11.3367 15.6568 11.1692C15.6568 11.0017 15.7877 10.8663 15.9496 10.8663H17.3968ZM15.1677 32.2963H24.3505V30.474H22.2119C19.8639 30.474 17.5158 30.474 15.1678 30.474C15.1677 31.715 15.1677 30.5208 15.1677 32.2963ZM22.0392 30.8951C22.2011 30.8951 22.332 31.0331 22.332 31.198C22.332 31.3655 22.2011 31.501 22.0392 31.501H21.2074C21.0454 31.501 20.9145 31.3655 20.9145 31.198C20.9145 31.0331 21.0454 30.8951 21.2074 30.8951H22.0392ZM21.9452 15.7394C21.3858 15.1607 20.6124 14.8012 19.759 14.8012C18.9118 14.8012 18.144 15.1533 17.5872 15.7246L17.5729 15.7395C17.0136 16.3181 16.6672 17.1182 16.6672 17.9998C16.6672 18.8838 17.0136 19.6841 17.5729 20.2627C18.1311 20.8414 18.9045 21.1984 19.7591 21.1984C20.6125 21.1984 21.3859 20.8413 21.9453 20.2627C22.5046 19.684 22.851 18.8838 22.851 17.9998C22.851 17.1233 22.5107 16.3304 21.9596 15.7542L21.9452 15.7394ZM19.759 14.1955C20.7742 14.1955 21.6929 14.6214 22.3595 15.3109L22.376 15.3307C23.0305 16.0176 23.4352 16.9608 23.4352 17.9998C23.4352 19.0512 23.0233 20.0016 22.3595 20.6912C21.6929 21.3782 20.7742 21.8041 19.759 21.8041C18.7451 21.8041 17.8251 21.3781 17.16 20.6886C16.4947 20.0015 16.0816 19.0511 16.0816 17.9997C16.0816 16.9508 16.4934 15.9979 17.1586 15.3108L17.1765 15.2937C17.8395 14.6166 18.7522 14.1955 19.759 14.1955ZM20.034 17.5098L19.759 16.6283L19.4841 17.5098C19.446 17.6304 19.3354 17.7191 19.2056 17.7191L18.3094 17.7166L19.0294 18.2559C19.1342 18.3298 19.1831 18.4677 19.1426 18.5982L18.8639 19.4796L19.5865 18.9355C19.6865 18.8591 19.8256 18.8542 19.9304 18.9331L20.6541 19.4796L20.3754 18.5982C20.3386 18.4774 20.3766 18.3396 20.4813 18.2608L21.2074 17.7166L20.329 17.7191C20.1994 17.7265 20.0756 17.6452 20.034 17.5098ZM20.1601 15.9487L20.5242 17.1158L21.7311 17.1134C21.862 17.1134 21.9713 17.202 22.0096 17.3226L22.0809 17.5516C22.1202 17.6797 22.0738 17.8127 21.9739 17.889L20.9968 18.6202L21.3718 19.8096C21.4157 19.9474 21.3575 20.0951 21.2407 20.1641L21.0646 20.2872C20.9564 20.3635 20.8159 20.3538 20.7196 20.2748L19.7591 19.5508L18.7821 20.2871C18.6774 20.3659 18.5393 20.361 18.4393 20.2871L18.2512 20.1469C18.1476 20.068 18.1085 19.9302 18.1465 19.8095L18.5202 18.6201L17.5431 17.8889C17.4372 17.8101 17.3979 17.6673 17.4384 17.5466L17.5085 17.3225C17.549 17.1896 17.6728 17.1059 17.8037 17.1133L18.9938 17.1157L19.3651 15.9288C19.4044 15.8007 19.5199 15.7171 19.6423 15.7171H19.8745C20.0125 15.7173 20.1292 15.8157 20.1601 15.9487ZM24.5443 2.96968C24.7087 3.26517 24.9025 3.55081 25.1251 3.82409C25.3466 4.09258 25.5869 4.33869 25.8416 4.55798C26.1047 4.78197 26.3843 4.97896 26.6747 5.14886C26.9721 5.32121 27.2802 5.46403 27.5933 5.5749C27.9039 5.68811 28.2217 5.76936 28.5429 5.82362C28.5466 5.48868 28.5216 5.14886 28.4681 4.81393C28.4144 4.4742 28.3288 4.13682 28.2146 3.80188C28.1002 3.47444 27.9599 3.15683 27.792 2.85394C27.6278 2.56089 27.4339 2.27289 27.2124 2.00196C26.9911 1.73121 26.7494 1.48484 26.4936 1.26573C26.2318 1.04174 25.9533 0.84466 25.6629 0.674753C25.3654 0.502407 25.0572 0.359584 24.7442 0.248809C24.4336 0.137946 24.1135 0.0542555 23.7921 0.000174245C23.7897 0.335025 23.8147 0.674753 23.8682 1.00969C23.9229 1.34951 24.0074 1.68679 24.1228 2.02173C24.2362 2.34918 24.3777 2.66679 24.5443 2.96968ZM14.4501 3.82401C14.6713 3.55073 14.8666 3.26508 15.0308 2.96959C15.1973 2.6667 15.339 2.34909 15.452 2.02156C15.5676 1.68662 15.652 1.34933 15.7066 1.00952C15.7603 0.674578 15.7853 0.334851 15.7817 0C15.4616 0.0540812 15.1415 0.137772 14.8308 0.248634C14.5178 0.359322 14.2095 0.502233 13.912 0.674579C13.6216 0.844486 13.3431 1.04156 13.0814 1.26555C12.8244 1.48475 12.5839 1.73104 12.3625 2.00179C12.1411 2.27272 11.9471 2.56072 11.7829 2.85377C11.6151 3.15665 11.4746 3.47426 11.3604 3.80171C11.2462 4.13665 11.1604 4.47403 11.1069 4.81375C11.0533 5.14869 11.0272 5.48851 11.0307 5.82344C11.3521 5.76919 11.6711 5.68785 11.9815 5.57472C12.2945 5.46395 12.6028 5.32112 12.9004 5.14869C13.1908 4.97878 13.4704 4.78179 13.7334 4.5578C13.9883 4.3386 14.2287 4.0925 14.4501 3.82401ZM7.75219 6.6803C8.06164 6.37749 8.3854 6.08697 8.7185 5.8062C9.14816 5.44426 9.59685 5.10445 10.0574 4.78684C10.1991 4.68835 10.3919 4.73024 10.4858 4.8755C10.5799 5.0232 10.5406 5.22028 10.3989 5.31877C9.95151 5.62654 9.52075 5.95643 9.1065 6.30373C8.70899 6.63867 8.32344 6.9932 7.95447 7.36506C7.98663 7.49552 8.01399 7.63103 8.03781 7.76392C8.10204 8.13082 8.13546 8.51253 8.13546 8.90886C8.13546 9.30284 8.10213 9.68446 8.03781 10.0514C7.97114 10.4331 7.87122 10.8024 7.74267 11.157C7.61413 11.5165 7.45225 11.8612 7.26419 12.1912C7.07621 12.5186 6.86079 12.824 6.62399 13.1096L6.61439 13.1194C6.3717 12.8314 6.15266 12.5186 5.96468 12.1912C5.7767 11.8662 5.61474 11.519 5.48392 11.157C5.35656 10.8024 5.25655 10.4331 5.19114 10.0514C5.12691 9.68446 5.09349 9.30284 5.09349 8.90886C5.09349 8.51244 5.12682 8.13074 5.19114 7.76392C5.25781 7.38222 5.35656 7.01297 5.48392 6.65835C5.61365 6.29877 5.77553 5.95416 5.96468 5.62419C6.1514 5.29918 6.36572 4.99132 6.6037 4.70568L6.61431 4.69584C6.85717 4.98653 7.07369 5.29665 7.26175 5.62419C7.45099 5.9492 7.61287 6.29641 7.74259 6.65835L7.75219 6.6803ZM3.50836 14.9809L3.50246 14.9981C3.65121 15.1459 3.79272 15.3035 3.9285 15.4684C4.16531 15.7589 4.38064 16.0717 4.56752 16.4066C4.75559 16.7463 4.91275 17.0985 5.03641 17.453C5.1626 17.8149 5.25545 18.1869 5.31505 18.5586C5.37693 18.9427 5.40429 19.3269 5.39949 19.706C5.39343 20.0853 5.35546 20.4669 5.28517 20.8412C4.93649 20.7181 4.59859 20.5605 4.2771 20.3758C3.95586 20.1911 3.64751 19.9744 3.35843 19.7282C3.08231 19.4917 2.81807 19.2234 2.57773 18.9304C2.34194 18.6422 2.12896 18.3321 1.9409 17.9971L1.92794 17.9749C1.74105 17.6376 1.58507 17.2905 1.46376 16.9384C1.33757 16.5765 1.24472 16.2045 1.18403 15.8302C1.12215 15.4485 1.09479 15.0645 1.09951 14.6854C1.10439 14.3061 1.14236 13.9269 1.21383 13.5477C1.5636 13.6733 1.90159 13.8285 2.22299 14.0156C2.48951 14.1682 2.74668 14.343 2.99056 14.5401C3.1537 14.0008 3.33932 13.4714 3.54641 12.9567C3.79146 12.351 4.06521 11.76 4.36759 11.1937C4.44849 11.0386 4.63647 10.9819 4.78656 11.0682C4.93649 11.1519 4.99112 11.3463 4.90905 11.5015C4.61627 12.0531 4.35101 12.6195 4.11774 13.203C3.88448 13.7818 3.67975 14.3752 3.50836 14.9809ZM3.2596 23.9537C3.26431 23.9759 3.26667 24.0006 3.26667 24.0228C3.54641 24.0843 3.82252 24.163 4.09392 24.2641C4.43662 24.3921 4.77461 24.5545 5.10309 24.7491C5.42794 24.9461 5.73133 25.1677 6.01115 25.4114C6.29787 25.6626 6.55976 25.9359 6.79067 26.2264C7.02511 26.5219 7.23456 26.8395 7.4142 27.1745C7.5951 27.5069 7.74747 27.859 7.86768 28.2185C7.50352 28.2924 7.13455 28.3317 6.76802 28.3367C6.40141 28.3415 6.03135 28.3144 5.66121 28.2505C5.29948 28.189 4.94011 28.0905 4.58891 27.9624C4.24856 27.8343 3.91057 27.6718 3.57974 27.4748C3.25606 27.2827 2.95251 27.0612 2.67294 26.8149C2.38487 26.5636 2.12551 26.2904 1.89342 25.9998C1.6578 25.7043 1.44953 25.3867 1.26863 25.0519C1.08781 24.7195 0.935523 24.3673 0.816406 24.0078C1.18057 23.9339 1.54954 23.8946 1.91607 23.8897C2.14933 23.8847 2.38378 23.897 2.61831 23.9217C2.49212 23.3308 2.39337 22.7324 2.32435 22.1291C2.24926 21.4815 2.20767 20.8142 2.20169 20.1321C2.20051 19.9548 2.33731 19.8096 2.50626 19.8096C2.67765 19.8071 2.81689 19.9498 2.81815 20.1248C2.82405 20.7698 2.86454 21.415 2.93836 22.0552C3.0132 22.7004 3.12036 23.3357 3.2596 23.9537ZM7.44046 32.0056C7.45949 32.0278 7.47607 32.0524 7.4892 32.077C7.8117 31.9564 8.14843 31.8628 8.49248 31.7988C8.84713 31.7324 9.21602 31.6979 9.59685 31.6979C9.97887 31.6979 10.349 31.7324 10.7025 31.7988C11.0702 31.8678 11.4296 31.9687 11.7723 32.1017C12.1186 32.2371 12.453 32.4047 12.7707 32.5991C13.0862 32.7936 13.3837 33.0152 13.6573 33.2614L13.6681 33.2713C13.3872 33.5224 13.0885 33.749 12.7743 33.941C12.4588 34.1355 12.1233 34.3029 11.7723 34.4383C11.4294 34.5713 11.07 34.6748 10.7036 34.7437C10.3489 34.8103 9.9787 34.8447 9.59677 34.8447C9.21593 34.8447 8.84713 34.8102 8.49239 34.7437C8.12343 34.6748 7.76515 34.5713 7.42253 34.4383C7.07613 34.3054 6.74167 34.138 6.42397 33.9434C6.10863 33.749 5.81113 33.5273 5.5362 33.2811L5.52677 33.2713C5.80524 33.0201 6.10627 32.7936 6.42288 32.599C6.57533 32.5054 6.73233 32.4168 6.89303 32.338C6.47415 31.8701 6.07782 31.3777 5.70641 30.8631C5.30891 30.3139 4.94003 29.7402 4.6033 29.1444C4.5176 28.9916 4.56643 28.7972 4.71274 28.7085C4.86031 28.6198 5.04955 28.6691 5.13524 28.8217C5.46018 29.3955 5.81728 29.9495 6.20039 30.4789C6.58358 31.0108 6.99775 31.5205 7.44046 32.0056ZM34.4818 28.8217C34.5675 28.6691 34.7578 28.6199 34.9043 28.7085C35.0506 28.7972 35.1006 28.9916 35.0137 29.1444C34.6769 29.7402 34.3079 30.314 33.9104 30.8631C33.5393 31.3777 33.1417 31.87 32.724 32.338C32.8859 32.4168 33.0429 32.5054 33.1965 32.599C33.5105 32.7935 33.8106 33.0201 34.0914 33.2713L34.0807 33.2811C33.8056 33.5273 33.5081 33.749 33.194 33.9434C32.8763 34.1379 32.5418 34.3054 32.1957 34.4383C31.8517 34.5713 31.4935 34.6748 31.1257 34.7437C30.771 34.8103 30.4011 34.8447 30.0191 34.8447C29.6381 34.8447 29.2693 34.8102 28.9146 34.7437C28.5457 34.6748 28.1874 34.5713 27.8447 34.4383C27.496 34.3054 27.1604 34.1355 26.8438 33.941C26.5297 33.749 26.2296 33.5224 25.9488 33.2713L25.9596 33.2614C26.2345 33.0152 26.5308 32.7936 26.8462 32.5991C27.1651 32.4047 27.4983 32.2371 27.8446 32.1017C28.1886 31.9688 28.5456 31.8678 28.9145 31.7988C29.2692 31.7324 29.638 31.6979 30.019 31.6979C30.401 31.6979 30.771 31.7324 31.1244 31.7988C31.4696 31.8628 31.8051 31.9564 32.1278 32.077C32.1408 32.0524 32.1575 32.0278 32.1777 32.0056C32.6193 31.5206 33.0347 31.0108 33.4178 30.479C33.8009 29.9495 34.1579 29.3955 34.4818 28.8217ZM36.7988 20.1248C36.8 19.9499 36.9404 19.8072 37.1092 19.8097C37.2807 19.8097 37.4163 19.9549 37.4163 20.1322C37.4093 20.8143 37.3676 21.4816 37.2925 22.1292C37.2235 22.7325 37.1247 23.3309 36.9974 23.9218C37.233 23.8971 37.4688 23.8848 37.702 23.8898C38.0685 23.8948 38.4374 23.934 38.8016 24.0079C38.6813 24.3674 38.5302 24.7196 38.3493 25.052C38.1686 25.3868 37.959 25.7044 37.7234 25.9999C37.4925 26.2905 37.2318 26.5638 36.9451 26.815C36.6641 27.0613 36.3608 27.2828 36.0357 27.4749C35.7074 27.6719 35.3694 27.8344 35.0265 27.9624C34.6767 28.0905 34.3174 28.189 33.9555 28.2506C33.5865 28.3145 33.2152 28.3416 32.8487 28.3367C32.4822 28.3317 32.1132 28.2924 31.7491 28.2186C31.8705 27.8591 32.0216 27.507 32.2012 27.1746C32.3822 26.8396 32.5917 26.522 32.8274 26.2265C33.0582 25.936 33.3188 25.6626 33.6056 25.4115C33.8853 25.1677 34.1888 24.9461 34.5148 24.7492C34.8422 24.5546 35.1813 24.3921 35.524 24.2642C35.7954 24.1632 36.0714 24.0844 36.3499 24.0229C36.3499 24.0007 36.3523 23.976 36.3572 23.9538C36.4952 23.3357 36.6046 22.7005 36.6785 22.0554C36.7523 21.415 36.7928 20.7699 36.7988 20.1248ZM34.7077 11.5015C34.6267 11.3465 34.6803 11.152 34.8303 11.0658C34.9791 10.9821 35.1683 11.0387 35.2503 11.1939C35.5526 11.7602 35.8263 12.3512 36.0715 12.9569C36.2786 13.4715 36.4643 14.0009 36.6261 14.5403C36.8713 14.3431 37.1283 14.1683 37.3949 14.0157C37.7151 13.8287 38.0543 13.6735 38.403 13.5478C38.4732 13.9247 38.5125 14.3063 38.5184 14.6855C38.5233 15.0647 38.4946 15.4488 38.4326 15.8304C38.3731 16.2047 38.2804 16.5766 38.1542 16.9386C38.0316 17.2907 37.877 17.6378 37.6889 17.9751L37.6758 17.9973C37.4878 18.3322 37.2747 18.6424 37.0403 18.9305C36.7988 19.2236 36.5357 19.4919 36.2572 19.7283C35.9703 19.9745 35.6622 20.1912 35.3408 20.376C35.0195 20.5607 34.6815 20.7183 34.3316 20.8414C34.2614 20.4671 34.2221 20.0855 34.2174 19.7062C34.2127 19.327 34.2412 18.9429 34.302 18.5587C34.3626 18.187 34.4554 17.8151 34.5815 17.4532C34.7054 17.0987 34.8602 16.749 35.0505 16.4092C35.2386 16.0719 35.4527 15.7567 35.6896 15.4685C35.8251 15.3011 35.9668 15.1461 36.1144 14.9983L36.1097 14.9811C35.9371 14.3753 35.7335 13.7819 35.5004 13.2033C35.2672 12.622 35.0005 12.0531 34.7077 11.5015ZM29.1834 5.29404C29.0405 5.19798 29.0024 4.99855 29.0953 4.85076C29.1905 4.7055 29.382 4.6637 29.5237 4.76211C29.9925 5.08224 30.4461 5.42702 30.8828 5.79392C31.2209 6.07713 31.5492 6.37262 31.8658 6.6803L31.8743 6.65818C32.004 6.29624 32.1659 5.94902 32.3537 5.62401C32.543 5.29648 32.7608 4.98636 33.0035 4.69566L33.0131 4.7055C33.2511 4.99115 33.4653 5.29892 33.6533 5.62401C33.8413 5.95399 34.0033 6.29859 34.1318 6.65818C34.2603 7.0128 34.3604 7.38213 34.427 7.76375C34.4913 8.13065 34.5246 8.51235 34.5246 8.90869C34.5246 9.30267 34.4913 9.68429 34.427 10.0513C34.3604 10.4329 34.2604 10.8022 34.1318 11.1568C34.0034 11.5188 33.8414 11.866 33.6522 12.191C33.4642 12.5185 33.2464 12.8313 33.0035 13.1193L32.9941 13.1094C32.7562 12.8239 32.5418 12.5185 32.3538 12.191C32.1646 11.861 32.0041 11.5163 31.8744 11.1568C31.7459 10.8022 31.647 10.4329 31.5805 10.0513C31.5161 9.68429 31.4828 9.30267 31.4828 8.90869C31.4828 8.51226 31.5161 8.13056 31.5805 7.76375C31.603 7.63085 31.6304 7.49535 31.6625 7.36489C31.2889 6.98815 30.8985 6.62865 30.4938 6.28892C30.0747 5.93674 29.6355 5.60433 29.1834 5.29404ZM19.4663 3.53339C19.4663 3.36601 19.5983 3.23059 19.759 3.23059C19.9198 3.23059 20.0518 3.36601 20.0518 3.53339V5.38757C20.0518 5.55504 19.9198 5.69055 19.759 5.69055C19.5983 5.69055 19.4663 5.55504 19.4663 5.38757V3.53339ZM26.3582 7.30079C26.4973 7.21719 26.6759 7.26892 26.7555 7.41166C26.8353 7.55692 26.7878 7.74163 26.6485 7.82279L25.0956 8.75115C24.9563 8.83249 24.7777 8.78319 24.698 8.64046C24.6183 8.49511 24.6658 8.31048 24.8063 8.22914L26.3582 7.30079ZM12.8697 7.82279C12.7292 7.74163 12.6816 7.55692 12.7613 7.41166C12.8409 7.26883 13.0195 7.21719 13.1598 7.30079L14.7118 8.22914C14.8511 8.31048 14.8999 8.49511 14.8189 8.64046C14.7391 8.78328 14.5607 8.83249 14.4214 8.75115L12.8697 7.82279ZM22.9116 5.33584C22.9925 5.19311 23.171 5.14381 23.3114 5.2275C23.4495 5.30884 23.4971 5.49591 23.4174 5.63882L22.87 6.61881C22.7902 6.76407 22.6105 6.81328 22.4713 6.72959C22.332 6.64581 22.2844 6.46118 22.3642 6.31592L22.9116 5.33584ZM16.0995 5.63882C16.0197 5.49591 16.0674 5.30884 16.2066 5.2275C16.3459 5.14381 16.5256 5.19311 16.6053 5.33584L17.1527 6.31592C17.2324 6.46118 17.1849 6.64581 17.0468 6.72959C16.9063 6.81328 16.7278 6.76407 16.6469 6.61881L16.0995 5.63882ZM16.6589 29.0434C16.6422 29.2035 16.5102 29.3266 16.3518 29.3266C16.1804 29.3266 16.0412 29.1838 16.0412 29.0064C16.0412 28.972 16.0472 28.9399 16.0567 28.9079C16.1305 28.5509 16.1781 28.1963 16.1864 27.8417C16.1948 27.5438 16.1758 27.2434 16.1257 26.9431C15.5175 26.7437 14.9451 26.458 14.424 26.1034C13.8384 25.7069 13.3148 25.2219 12.8697 24.6653C12.4317 24.1187 12.0688 23.4982 11.801 22.8309C11.5415 22.1833 11.3713 21.4865 11.307 20.7625C11.2916 20.5877 11.4178 20.4302 11.5867 20.4154C11.7557 20.4006 11.9069 20.5287 11.9212 20.7035C11.9793 21.3634 12.1342 21.9962 12.3721 22.5847C12.6137 23.1929 12.9446 23.7568 13.3456 24.2567C13.7502 24.7639 14.2287 25.2046 14.7619 25.5691C15.2867 25.9236 15.8639 26.202 16.4791 26.3842C16.585 26.416 16.673 26.5072 16.697 26.6255C16.7801 27.0341 16.8135 27.4454 16.804 27.8567C16.7933 28.253 16.7422 28.6495 16.6589 29.0434ZM8.46503 38.6712C8.30442 38.6712 8.17225 38.5358 8.17225 38.3682C8.17225 38.2033 8.30442 38.0654 8.46503 38.0654H17.9002C17.023 37.9694 16.1637 37.8044 15.3296 37.5778C13.8526 37.1765 12.4508 36.5806 11.1523 35.8222C11.0035 35.7335 10.9524 35.539 11.0369 35.3863C11.1202 35.2336 11.3094 35.1795 11.4582 35.2656C12.71 35.9995 14.0608 36.5732 15.4853 36.9573C16.861 37.3316 18.3106 37.5311 19.8077 37.5311C21.3048 37.5311 22.7543 37.3316 24.1326 36.9573C25.5558 36.5732 26.9079 35.9995 28.1598 35.2656C28.3073 35.1795 28.4966 35.2336 28.5811 35.3863C28.6644 35.539 28.6121 35.7335 28.4645 35.8222C27.1673 36.5806 25.7641 37.1765 24.2872 37.5778C23.4531 37.8044 22.5938 37.9694 21.7166 38.0654H27.1578C27.3184 38.0654 27.4504 38.2033 27.4504 38.3682C27.4504 38.5358 27.3184 38.6712 27.1578 38.6712H8.46503ZM18.0167 40.06C17.8561 40.06 17.724 39.9245 17.724 39.757C17.724 39.5896 17.8561 39.4541 18.0167 39.4541H33.2797C33.4415 39.4541 33.5724 39.5896 33.5724 39.757C33.5724 39.9245 33.4415 40.06 33.2797 40.06H18.0167ZM34.841 40.06C34.6803 40.06 34.5494 39.9245 34.5494 39.757C34.5494 39.5896 34.6803 39.4541 34.841 39.4541H36.7499C36.9118 39.4541 37.0427 39.5896 37.0427 39.757C37.0427 39.9245 36.9118 40.06 36.7499 40.06H34.841ZM4.23189 40.0181C4.07018 40.0181 3.93911 39.8827 3.93911 39.7152C3.93911 39.5478 4.0701 39.4122 4.23189 39.4122H11.4642C11.626 39.4122 11.7569 39.5478 11.7569 39.7152C11.7569 39.8827 11.626 40.0181 11.4642 40.0181H4.23189ZM13.2112 17.6624V13.3164H12.515V16.0546C12.515 16.2785 12.5459 16.4928 12.6054 16.6922C12.6673 16.899 12.76 17.0935 12.878 17.2709C12.972 17.4137 13.0851 17.5467 13.2112 17.6624Z" fill="#F69855"></path>
</svg>
