<?xml version="1.0" encoding="UTF-8"?>
<svg xmlns="http://www.w3.org/2000/svg" width="34" height="34" viewBox="0 0 34 34" fill="none">
  <path d="M24.4766 8.53099C24.4766 12.7341 21.2306 16.0619 17.3145 16.0619C13.3984 16.0619 10.1523 12.7341 10.1523 8.53099C10.1523 4.32775 13.3984 1 17.3145 1C21.2306 1 24.4766 4.32775 24.4766 8.53099Z" stroke="#F69855" stroke-width="2"></path>
  <path d="M10.698 21.8557L10.698 21.8557C10.6289 22.0974 10.5937 22.3878 10.6278 22.7387C12.446 23.0199 13.7878 24.6485 13.7878 26.5394C13.7878 28.6201 12.1632 30.3831 10.0671 30.3831C7.97097 30.3831 6.34639 28.6201 6.34639 26.5394C6.34639 25.7061 6.60412 24.9295 7.04593 24.2954C6.89158 23.7103 6.8094 23.1313 6.80137 22.5632C5.6057 23.1186 4.55415 23.7593 3.74062 24.4748C2.59317 25.484 1.99805 26.5659 1.99805 27.7242V32.8714H32.6467V27.7242C32.6467 26.5761 32.0622 25.5035 30.9347 24.5018C30.8941 24.4658 30.853 24.43 30.8112 24.3943C30.9471 24.6659 31.019 24.9679 31.019 25.2756V29.3831C31.019 30.42 30.1997 31.324 29.1121 31.324H27.245H26.245V30.324V28.4422V27.4422H27.2052V26.1862L26.6835 25.7448L26.5739 25.7166L26.2635 25.6367H25.3201L24.6707 26.1862V27.4422H25.6309V28.4422V30.324V31.324H24.6309H22.7638C21.6762 31.324 20.8569 30.42 20.8569 29.3831V25.2756C20.8569 24.7063 21.1032 24.1565 21.5448 23.7829L23.4118 22.2033C23.4118 22.2032 23.4118 22.2032 23.4118 22.2032C23.5958 22.0475 23.8065 21.9289 24.0324 21.8529C24.0287 21.8434 24.025 21.8339 24.0213 21.8245L10.698 21.8557ZM10.698 21.8557C10.7717 21.5978 10.8994 21.341 11.0929 21.0878L11.3599 21.6555L11.9946 21.6555L15.6801 21.6558H15.6804L17.3447 21.6556C17.3447 21.6556 17.3448 21.6556 17.3448 21.6556C17.3448 21.6556 17.3449 21.6556 17.3449 21.6556C17.7482 21.6557 18.1586 21.6557 18.9643 21.6555C18.9644 21.6555 18.9645 21.6555 18.9645 21.6555L22.6501 21.6555H23.2848M10.698 21.8557L23.2848 21.6555M23.2848 21.6555L23.5549 21.0812M23.2848 21.6555L23.5549 21.0812M23.5549 21.0812C23.5571 21.0765 23.5593 21.0728 23.5613 21.0698C23.5688 21.0717 23.5762 21.0737 23.5837 21.0756M23.5549 21.0812L23.5837 21.0756M23.5837 21.0756C23.7727 21.3137 23.9177 21.5635 24.0212 21.8243L23.5837 21.0756ZM9.98265 26.5473C9.97974 26.5443 9.97777 26.5416 9.97643 26.5394C9.97777 26.5373 9.97974 26.5346 9.98265 26.5316C9.9921 26.5217 10.0204 26.5013 10.0671 26.5013C10.1138 26.5013 10.1421 26.5217 10.1516 26.5316C10.1545 26.5346 10.1564 26.5373 10.1578 26.5394C10.1564 26.5416 10.1545 26.5443 10.1516 26.5473C10.1421 26.5572 10.1138 26.5776 10.0671 26.5776C10.0204 26.5776 9.99211 26.5572 9.98265 26.5473Z" stroke="#F69855" stroke-width="2"></path>
</svg>
