<?xml version="1.0" encoding="UTF-8"?>
<svg xmlns="http://www.w3.org/2000/svg" width="40" height="41" viewBox="0 0 40 41" fill="none">
  <path d="M23.0875 6.88576C26.7299 6.88576 27.8542 6.9157 31.4966 6.9157C31.9124 6.9157 32.3115 6.95229 32.6974 7.02547C33.0799 7.09865 33.4492 7.20509 33.7918 7.35145C34.1377 7.49782 34.4737 7.68077 34.7964 7.89698C35.1157 8.1132 35.4184 8.366 35.7045 8.64875C35.9905 8.93482 36.2433 9.24084 36.4562 9.55685C36.6758 9.87951 36.8587 10.2155 37.0018 10.5614C37.1448 10.9074 37.2546 11.2733 37.3277 11.6558C37.4009 12.0417 37.4375 12.4408 37.4375 12.8566V24.9115C37.4375 25.3273 37.4009 25.7264 37.3277 26.1123C37.2546 26.4982 37.1448 26.8641 37.0018 27.2067C36.8554 27.5559 36.6724 27.8919 36.4562 28.2112C36.24 28.5306 35.9872 28.8333 35.7045 29.1194L35.7011 29.1227C35.4051 29.4121 35.0957 29.6649 34.7764 29.8778C34.4571 30.094 34.1211 30.2736 33.7752 30.42C33.4292 30.563 33.0666 30.6728 32.6841 30.746C32.3049 30.8191 31.9057 30.8557 31.4933 30.8557H26.9428C26.7997 30.8557 26.66 30.889 26.5303 30.9522C26.4105 31.0121 26.3008 31.0986 26.2176 31.2116L26.2109 31.2183C25.8517 31.694 25.4758 32.1563 25.08 32.6021C24.6841 33.0445 24.2717 33.4736 23.8293 33.8794C23.4001 34.2786 22.9478 34.6611 22.4787 35.0303C22.0097 35.3996 21.5241 35.7455 21.0284 36.0715C20.5528 36.3842 20.0505 36.6836 19.5282 36.9663C19.0126 37.2457 18.4837 37.5052 17.9449 37.7447C17.885 37.7713 17.8185 37.768 17.7586 37.7347C17.6588 37.6781 17.6222 37.5484 17.6788 37.4486C17.7752 37.279 17.8684 37.1093 17.9615 36.9297C18.0513 36.7634 18.1311 36.5937 18.211 36.4141C18.364 36.0715 18.5104 35.7222 18.6501 35.363C18.7931 35.0004 18.9262 34.6378 19.0559 34.2619C19.179 33.9127 19.2921 33.5501 19.4018 33.1842C19.5116 32.8183 19.6147 32.4491 19.7145 32.0798C19.7411 31.9701 19.7677 31.8603 19.7677 31.7472C19.7677 31.501 19.6679 31.2715 19.5049 31.1085L19.495 31.0986C19.3286 30.9322 19.0958 30.8258 18.8463 30.8258H13.5574C13.1416 30.8258 12.7457 30.7892 12.3665 30.716C11.9906 30.6428 11.6314 30.5364 11.2888 30.3934L11.2821 30.39C10.9428 30.257 10.6135 30.0774 10.2975 29.8645C9.97151 29.6449 9.65551 29.3821 9.35281 29.0894L9.34948 29.0861C9.06341 28.8 8.8106 28.4973 8.59439 28.178C8.37485 27.8553 8.19522 27.5227 8.04886 27.1734C7.90583 26.8275 7.79605 26.4616 7.72287 26.079C7.64969 25.6932 7.6131 25.294 7.6131 24.8782V22.4267C7.6131 21.1959 6.01976 21.1859 5.75365 22.0641V24.8616C5.75365 25.3871 5.80355 25.8994 5.89669 26.3917C5.99315 26.894 6.13619 27.3796 6.32579 27.852C6.51207 28.3077 6.74824 28.7468 7.03431 29.1692C7.32038 29.5884 7.65302 29.9909 8.03223 30.3701C8.40811 30.7493 8.8106 31.0819 9.23305 31.368C9.64885 31.6507 10.0879 31.8869 10.5437 32.0732L10.5503 32.0765C11.0193 32.2661 11.5083 32.4092 12.0073 32.5056C12.4996 32.5988 13.0118 32.6487 13.5374 32.6487H17.3395C17.3628 32.6487 17.3894 32.652 17.4126 32.6586C17.5224 32.6952 17.5823 32.8116 17.549 32.9214L17.5457 32.9281C17.4725 33.1609 17.3993 33.3938 17.3162 33.6432L17.3129 33.6565C17.1964 33.9925 17.0667 34.3351 16.9303 34.6777C16.8006 35.0004 16.6675 35.3197 16.5278 35.6258C16.5245 35.6424 16.5212 35.6557 16.5145 35.6723C16.3781 35.9817 16.2218 36.2877 16.0388 36.5904C15.8592 36.8931 15.6563 37.1892 15.4368 37.4819C15.2106 37.7746 14.9578 38.0707 14.6784 38.37L14.6684 38.3833C14.3856 38.6827 14.0796 38.9788 13.7503 39.2648C13.5607 39.4345 13.4576 39.6673 13.4443 39.9002C13.431 40.133 13.5075 40.3725 13.6771 40.5621C13.7969 40.6952 13.9432 40.785 14.1029 40.8316C14.2626 40.8781 14.4355 40.8848 14.5985 40.8382C15.2904 40.6519 15.969 40.449 16.6276 40.2228C17.2862 39.9966 17.9249 39.7505 18.537 39.4844C19.1557 39.2183 19.7611 38.9255 20.3465 38.6095C20.9286 38.2969 21.4941 37.9576 22.0397 37.5983C22.5819 37.2457 23.1074 36.8698 23.6164 36.4707C24.1253 36.0715 24.6143 35.6524 25.0833 35.2166L25.0933 35.2066C25.4891 34.8341 25.8717 34.4416 26.2442 34.0358C26.6201 33.6233 26.9827 33.1975 27.322 32.7651C27.3586 32.7085 27.4251 32.6686 27.4983 32.6686H31.4966C32.0321 32.6686 32.5444 32.6187 33.04 32.5256C33.539 32.4291 34.018 32.2861 34.477 32.0998L34.4837 32.0965C34.946 31.9002 35.3851 31.6607 35.8076 31.378C36.2267 31.0952 36.6259 30.7692 37.0051 30.39C37.3843 30.0108 37.7169 29.6083 38.003 29.1892C38.2857 28.7701 38.5252 28.3277 38.7115 27.872C38.9011 27.4096 39.0442 26.9273 39.1406 26.425C39.2338 25.9327 39.2837 25.4171 39.2837 24.8815V12.8267C39.2837 12.2911 39.2338 11.7756 39.1406 11.2832C39.0442 10.781 38.9011 10.2986 38.7115 9.83959C38.5252 9.38388 38.2857 8.94147 38.003 8.52234C37.7169 8.09989 37.3843 7.6974 37.0084 7.32152C36.6292 6.94231 36.23 6.60967 35.8076 6.3236C35.3918 6.04086 34.9527 5.80468 34.497 5.61841L34.4903 5.61508C34.018 5.42547 33.5323 5.28244 33.03 5.18597C32.5377 5.09284 32.0255 5.04294 31.4999 5.04294C27.7145 5.04294 26.4471 5.02631 22.6617 5.02631C21.7602 5.28909 21.7004 6.88576 23.0875 6.88576ZM15.6397 25.4603C15.1574 25.467 14.7648 25.0811 14.7582 24.5988C14.7515 24.1165 15.1374 23.7239 15.6197 23.7173L24.8604 23.5776L26.6301 23.4645C27.1124 23.4346 27.5249 23.8005 27.5548 24.2795C27.5847 24.7618 27.2188 25.1743 26.7398 25.2042L24.9702 25.3173C24.9702 25.3173 16.4181 25.447 15.6397 25.4603ZM18.4072 19.9851C17.9249 19.9851 17.5324 19.5926 17.5324 19.1102C17.5324 18.6279 17.9249 18.2354 18.4072 18.2354H30.8879C31.3702 18.2354 31.7627 18.6279 31.7627 19.1102C31.7627 19.5926 31.3702 19.9851 30.8879 19.9851H18.4072ZM22.2925 14.7627C21.8101 14.7627 21.4176 14.3701 21.4176 13.8878C21.4176 13.4055 21.8101 13.013 22.2925 13.013H30.8879C31.3702 13.013 31.7627 13.4055 31.7627 13.8878C31.7627 14.3701 31.3702 14.7627 30.8879 14.7627H22.2925ZM9.41268 0.169779L11.791 5.97766L18.0513 6.44335C18.2043 6.45333 18.3208 6.58639 18.3108 6.74273C18.3041 6.82256 18.2642 6.89241 18.2077 6.94231L13.421 10.9939L14.9112 17.0945C14.9478 17.2441 14.8547 17.3938 14.705 17.4304C14.6251 17.4504 14.5486 17.4337 14.4854 17.3905L9.15322 14.0907L3.81437 17.3938C3.68464 17.4737 3.51166 17.4337 3.43183 17.304C3.39191 17.2375 3.38194 17.161 3.39857 17.0911L4.88879 10.9905L0.098789 6.93898C-0.0176346 6.83919 -0.0342666 6.66289 0.0655251 6.54647C0.115421 6.48659 0.185275 6.45333 0.258456 6.44668L6.51872 5.98098L8.89709 0.173105C8.95364 0.0300705 9.11663 -0.0364573 9.25967 0.0200913C9.33285 0.0467025 9.38607 0.103251 9.41268 0.169779Z" fill="#F69855"></path>
</svg>
