<?xml version="1.0" encoding="UTF-8"?>
<svg xmlns="http://www.w3.org/2000/svg" width="31" height="32" viewBox="0 0 31 32" fill="none">
  <path d="M3.70006 26.8433V25.8433V22.6412V21.9917L4.29347 21.7276C4.67769 21.5566 5.2178 21.3581 5.79162 21.1472C5.91539 21.1017 6.04072 21.0557 6.1664 21.0092C6.89948 20.738 7.69359 20.4353 8.43556 20.0967C9.18552 19.7545 9.83269 19.3973 10.2927 19.0326C10.6879 18.7193 10.8403 18.4838 10.8912 18.3383C10.8775 18.2959 10.8571 18.2394 10.8283 18.1672C10.742 17.951 10.6141 17.6784 10.4617 17.3637C10.4243 17.2866 10.3847 17.2056 10.3437 17.1217C10.1085 16.6406 9.82827 16.0672 9.6745 15.6201C9.67059 15.614 9.66665 15.6079 9.66266 15.6017C9.54874 15.4247 9.40156 15.196 9.30354 14.972C9.15118 14.6239 9.09387 14.2725 9.0989 13.8487L9.09893 13.8467C9.10381 13.4948 9.11164 13.0845 9.17294 12.6678M3.70006 26.8433L9.60547 11.4615L9.60222 11.4665L9.60135 11.4678M3.70006 26.8433H4.70006H24.7398H25.7395L25.7398 25.8435L25.7408 22.2149L25.741 21.5647L25.1468 21.3008C24.7885 21.1416 24.2758 20.9563 23.7341 20.7604C23.6338 20.7241 23.5324 20.6875 23.4308 20.6506C22.7559 20.4053 22.0206 20.131 21.3275 19.8233C20.6274 19.5124 20.0157 19.187 19.5716 18.8533C19.2086 18.5805 19.0488 18.3704 18.9848 18.2378C18.9948 18.2094 19.008 18.1745 19.0252 18.1324C19.1063 17.9345 19.2339 17.6812 19.3945 17.3788C19.4449 17.2839 19.5 17.1819 19.5576 17.0752C19.8045 16.6182 20.0977 16.0753 20.2659 15.6373C20.272 15.6278 20.2782 15.6182 20.2846 15.6083C20.4004 15.4291 20.549 15.199 20.6485 14.9704C20.8 14.6223 20.8561 14.2716 20.8518 13.8506L20.8518 13.8485C20.8469 13.4522 20.839 12.9742 20.7495 12.4912L20.7495 12.4911L20.7482 12.4843C20.739 12.4363 20.7333 12.4 20.7262 12.3552C20.7253 12.3491 20.7243 12.3429 20.7233 12.3364L20.7226 12.3324C20.7153 12.286 20.7017 12.1993 20.6765 12.1061C20.6153 11.8793 20.5134 11.706 20.4053 11.5504C20.4012 11.539 20.39 11.5059 20.3784 11.4424C20.3577 11.33 20.3456 11.1792 20.3427 10.9899C20.3399 10.8031 20.3464 10.6058 20.3546 10.4007C20.3558 10.372 20.357 10.3427 20.3582 10.3129C20.3653 10.1434 20.3729 9.95976 20.3729 9.80207C20.3729 8.21654 19.6627 6.9877 18.6042 6.18233C17.5737 5.39816 16.2496 5.03716 14.9752 5.03737C13.7008 5.03757 12.3768 5.39901 11.3464 6.18317C10.2882 6.98851 9.57777 8.21707 9.57777 9.80207C9.57777 9.92014 9.58257 10.0755 9.58733 10.2297C9.58846 10.2662 9.58958 10.3026 9.59064 10.3385C9.59655 10.5383 9.60151 10.7481 9.5997 10.9492C9.59785 11.1542 9.58902 11.3258 9.57259 11.4527C9.56798 11.4882 9.56349 11.5143 9.55995 11.5322M3.70006 26.8433L9.60135 11.4678M9.17294 12.6678C9.17298 12.6675 9.17303 12.6672 9.17307 12.6669L10.1624 12.8127L9.17283 12.6686C9.17286 12.6683 9.1729 12.6681 9.17294 12.6678ZM9.17294 12.6678C9.17605 12.6464 9.17924 12.6235 9.1826 12.5993C9.20371 12.4475 9.23152 12.2475 9.29037 12.068C9.35955 11.8571 9.46385 11.6826 9.55995 11.5322M9.55995 11.5322C9.5556 11.5542 9.55268 11.5639 9.55274 11.5639C9.55286 11.564 9.56491 11.525 9.60135 11.4678M9.55995 11.5322C9.57361 11.5108 9.58711 11.4899 9.60031 11.4694L9.60135 11.4678M27.4423 5.30408V6.30408H28.4423H29.6652V8.91311H28.4423H27.4423V9.91311V13.6356V14.6356H28.4423H29.6652V17.2444H28.4423H27.4423V18.2444V21.9666V22.9666H28.4423H29.6652V25.5762H28.4423H27.4423V26.5762V30.4891C27.4423 30.7018 27.2641 30.88 27.0514 30.88H2.38893C2.17637 30.88 1.99805 30.7017 1.99805 30.4891V1.39088C1.99805 1.17844 2.17651 1 2.38893 1H27.0514C27.2641 1 27.4423 1.1782 27.4423 1.39088V5.30408ZM18.9576 18.3307C18.9575 18.3307 18.958 18.3275 18.9595 18.3208C18.9586 18.3272 18.9578 18.3306 18.9576 18.3307ZM10.913 18.4175C10.9128 18.4174 10.912 18.4138 10.911 18.407C10.9126 18.4143 10.9131 18.4177 10.913 18.4175Z" stroke="#F69855" stroke-width="2"></path>
</svg>
