<?xml version="1.0" encoding="UTF-8"?>
<svg xmlns="http://www.w3.org/2000/svg" width="37" height="40" viewBox="0 0 37 40" fill="none">
  <path d="M18.1764 0L17.5149 0.390407L0 10.7295V39.7314H15.1924H16.2778H20.0762H21.1617H36.3529V10.7295L18.1764 0ZM33.6399 36.8675H22.7892V26.4447H13.5649V36.8675H2.71302V12.4088L18.1764 3.28102L33.6399 12.4088V36.8675Z" fill="#F69855"></path>
  <path d="M9.72617 27.8751H7.00977V31.2956H9.72617V27.8751Z" fill="#F69855"></path>
  <path d="M9.72617 20.2876H7.00977V23.7069H9.72617V20.2876Z" fill="#F69855"></path>
  <path d="M19.534 20.2876H16.8164V23.7069H19.534V20.2876Z" fill="#F69855"></path>
  <path d="M16.6602 8.0686V10.9519H13.9277V14.1578H16.6602V17.0411H19.6948V14.1578H22.4273V10.9519H19.6948V8.0686H16.6602Z" fill="#F69855"></path>
  <path d="M29.1647 20.2876H26.6172V23.7069H29.1647V20.2876Z" fill="#F69855"></path>
  <path d="M29.3406 27.8751H26.623V31.2956H29.3406V27.8751Z" fill="#F69855"></path>
</svg>
