<svg width="20" height="37" viewBox="0 0 20 37" fill="none" xmlns="http://www.w3.org/2000/svg">
<g clip-path="url(#clip0_592_2)">
<mask id="mask0_592_2" style="mask-type:luminance" maskUnits="userSpaceOnUse" x="0" y="0" width="20" height="37">
<path d="M19.5591 0L0.299805 0L0.299805 37H19.5591V0Z" fill="white"/>
</mask>
<g mask="url(#mask0_592_2)">
<path d="M4.88431 6.33565C5.72625 7.68647 6.32048 9.15352 6.65115 10.6639C6.98251 12.1774 7.05276 13.7393 6.84602 15.2764C6.82354 15.4438 6.83055 15.6107 6.86614 15.7722C6.903 15.9395 6.96611 16.0965 7.05437 16.2381C7.16735 16.4193 7.31664 16.5758 7.49362 16.7013C7.6691 16.8258 7.87273 16.9192 8.09606 16.9754C8.31717 17.0312 8.54658 17.046 8.7731 17.021C8.99821 16.9961 9.21517 16.9324 9.41273 16.8312C9.6788 16.6949 9.89406 16.5029 10.0448 16.2752C10.1961 16.0469 10.2824 15.7833 10.2904 15.5046C10.2984 15.2193 10.3879 14.9476 10.5432 14.7133C10.6986 14.479 10.9209 14.2799 11.1946 14.1393C11.4474 14.0097 11.7259 13.939 12.0075 13.9296C12.2895 13.9202 12.5729 13.9712 12.833 14.0824C12.8755 14.1004 12.8815 14.1025 12.8883 14.1056L12.9535 14.1393C13.2232 14.2784 13.5161 14.3483 13.8062 14.3488C14.0986 14.3493 14.3912 14.2817 14.6581 14.1462C15.0709 13.9347 15.357 13.5862 15.4758 13.1992C15.5946 12.8123 15.5524 12.3858 15.3212 12.0117C15.2313 11.8673 15.1133 11.7317 14.9764 11.6185C14.8452 11.51 14.6941 11.4204 14.5258 11.3527C12.9409 10.7094 11.5027 9.8546 10.2527 8.82326C9.01584 7.80265 7.95554 6.60105 7.10585 5.24694C7.05613 5.17655 6.93028 4.98723 6.76364 4.73392C6.12704 3.76606 5.40903 1.22275 5.05221 1.40602L1.83325 3.05182C1.44748 3.24946 2.44176 2.93541 2.56868 3.13888C3.09144 3.97711 3.98397 5.14414 4.49034 5.80627C4.67389 6.04635 4.81086 6.22541 4.86103 6.29645L4.88431 6.33565ZM4.98136 10.9593C4.6868 9.61403 4.16557 8.3157 3.43147 7.12808C3.36943 7.0402 3.25107 6.8869 3.09329 6.68055C2.57788 6.00658 1.66937 4.81865 1.09179 3.89253C0.48284 2.91619 0.282883 2.08154 1.00168 1.71328L4.21479 0.0687642C5.30338 -0.490376 7.32254 2.57873 8.22058 3.94406C8.36273 4.16012 8.4691 4.32189 8.53517 4.41541L8.55851 4.45461C9.31688 5.67162 10.2736 6.75674 11.397 7.68366C12.5171 8.60792 13.7987 9.36983 15.2104 9.94318C15.5493 10.0795 15.8548 10.259 16.1207 10.4789C16.3828 10.6957 16.6082 10.954 16.7919 11.2481C17.2565 11.9939 17.3469 12.8454 17.1124 13.6091C16.8778 14.3729 16.3219 15.0568 15.5006 15.479C14.9722 15.7495 14.3861 15.8873 13.8062 15.8863C13.223 15.8853 12.6427 15.7494 12.1174 15.4789C12.127 15.4833 12.1227 15.4819 12.1174 15.4789C12.0893 15.4659 12.1288 15.4841 12.1079 15.4752C12.0944 15.4694 12.0804 15.4667 12.0674 15.4671C12.0556 15.4675 12.0434 15.4707 12.032 15.4765C12.021 15.4822 12.0078 15.4915 12.0001 15.5032C11.9919 15.5155 11.9872 15.5285 11.9869 15.5408C11.971 16.0928 11.8004 16.6142 11.5018 17.0651C11.2027 17.5166 10.7746 17.8982 10.2443 18.1697C9.84236 18.3756 9.41132 18.5039 8.97273 18.5524C8.53577 18.6007 8.08569 18.5702 7.64362 18.4586C7.20368 18.3479 6.79991 18.162 6.44918 17.9133C6.09959 17.6654 5.8034 17.3541 5.57748 16.9918C5.39303 16.6959 5.26532 16.3869 5.19634 16.0737C5.12597 15.7542 5.11198 15.425 5.15623 15.0954C5.34157 13.7174 5.27856 12.3168 4.98136 10.9593ZM12.1079 15.4752C12.1077 15.475 12.1077 15.475 12.1079 15.4752Z" fill="#1B4E9B"/>
<path d="M18.6027 22.4193C17.6819 23.551 16.9777 24.7877 16.5033 26.093C16.0303 27.3947 15.7872 28.7654 15.7872 30.169C15.7872 30.3355 15.7944 30.5289 15.8041 30.7935C15.8307 31.5149 15.8729 32.6574 15.8729 33.6114C15.8729 35.3836 15.6245 37.0002 14.6721 37.0002H10.9791C10.0267 37.0002 9.77828 35.384 9.77828 33.612C9.77828 32.6581 9.82058 31.5154 9.84717 30.7938C9.85687 30.5289 9.86406 30.335 9.86406 30.169C9.86406 28.7867 9.61421 27.408 9.13747 26.0963C8.65939 24.7809 7.95532 23.5342 7.04846 22.4199C6.83109 22.1527 6.66439 21.8589 6.55178 21.5477C6.43891 21.2357 6.38086 20.9101 6.38086 20.5796C6.38086 19.0356 7.91547 18.7898 9.5111 18.7898C9.71732 18.7898 10.0571 18.7997 10.3811 18.8091C10.5778 18.8148 10.7665 18.8204 11.059 18.8204C12.0121 18.8204 12.5066 18.5418 13.0009 18.2634C13.7039 17.8673 14.407 17.4712 15.8407 17.4712C16.7866 17.4712 17.6441 17.8197 18.265 18.3824C18.8858 18.9452 19.2704 19.7223 19.2704 20.5796C19.2704 20.9101 19.2124 21.2356 19.0995 21.5473C18.9868 21.8585 18.8201 22.152 18.6027 22.4193ZM14.8867 25.6107C15.4155 24.1555 16.2023 22.7747 17.2323 21.5088C17.3428 21.3729 17.4269 21.2255 17.4829 21.071C17.5386 20.917 17.5672 20.7518 17.5672 20.5796C17.5672 20.1484 17.3735 19.7572 17.0608 19.4738C16.7481 19.1904 16.3165 19.0148 15.8407 19.0148C14.8876 19.0148 14.3933 19.2933 13.899 19.5718C13.196 19.9678 12.4929 20.3639 11.059 20.3639C10.9194 20.3639 10.6304 20.3555 10.3278 20.3466C10.1052 20.3402 9.87221 20.3334 9.5111 20.3334C8.78362 20.3334 8.08399 20.3672 8.08399 20.5796C8.08399 20.7519 8.11265 20.9173 8.16836 21.0714C8.22436 21.2261 8.30843 21.3736 8.41887 21.5094C9.4348 22.7579 10.2218 24.1497 10.7541 25.6139C11.2875 27.0817 11.5672 28.6237 11.5672 30.169C11.5672 30.2036 11.5572 30.473 11.5435 30.842C11.5195 31.4937 11.4814 32.5255 11.4814 33.612C11.4814 34.5767 10.5807 35.4567 10.9791 35.4567H14.6721C15.0705 35.4567 14.1698 34.5764 14.1698 33.6114C14.1698 32.5249 14.1316 31.4933 14.1076 30.8417C14.094 30.4728 14.0841 30.203 14.0841 30.169C14.0841 28.6025 14.3566 27.0695 14.8867 25.6107Z" fill="#1B4E9B"/>
</g>
</g>
<defs>
<clipPath id="clip0_592_2">
<rect width="20" height="37" fill="white"/>
</clipPath>
</defs>
</svg>
