<?xml version="1.0" encoding="UTF-8"?>
<svg xmlns="http://www.w3.org/2000/svg" width="23" height="24" viewBox="0 0 23 24" fill="none">
  <path d="M8.0438 22.2099H14.0345C19.0267 22.2099 21.0236 20.1769 21.0236 15.0944V8.99538C21.0236 3.91288 19.0267 1.87988 14.0345 1.87988H8.0438C3.05158 1.87988 1.05469 3.91288 1.05469 8.99538V15.0944C1.05469 20.1769 3.05158 22.2099 8.0438 22.2099Z" stroke="#828282" stroke-width="2" stroke-linecap="round" stroke-linejoin="round"></path>
  <path d="M8.14258 12.0445V10.5401C8.14258 8.59859 9.49048 7.81589 11.1379 8.78156L12.4159 9.53377L13.6939 10.286C15.3414 11.2517 15.3414 12.8374 13.6939 13.8031L12.4159 14.5553L11.1379 15.3075C9.49048 16.2732 8.14258 15.4803 8.14258 13.549V12.0445Z" stroke="#828282" stroke-width="2" stroke-miterlimit="10" stroke-linecap="round" stroke-linejoin="round"></path>
</svg>
