<?xml version="1.0" encoding="UTF-8"?>
<svg xmlns="http://www.w3.org/2000/svg" width="19" height="22" viewBox="0 0 19 22" fill="none">
  <path fill-rule="evenodd" clip-rule="evenodd" d="M13.8167 1.8125C13.8167 1.29743 13.406 0.879883 12.8992 0.879883C12.3925 0.879883 11.9818 1.29743 11.9818 1.8125V1.8125C11.9818 2.32757 11.5642 2.74512 11.0491 2.74512H7.40958C6.89451 2.74512 6.47696 2.32757 6.47696 1.8125V1.8125C6.47696 1.29743 6.06619 0.879883 5.55949 0.879883C5.0528 0.879883 4.64203 1.29743 4.64203 1.8125V1.8125C4.64203 2.32757 4.22448 2.74512 3.70941 2.74512H2.80709C1.28698 2.74512 0.0546875 3.99777 0.0546875 5.54297V18.5996C0.0546875 20.1449 1.28698 21.3975 2.80709 21.3975H15.6516C17.1718 21.3975 18.404 20.1449 18.404 18.5996V5.54297C18.404 3.99777 17.1718 2.74512 15.6516 2.74512H14.7493C14.2343 2.74512 13.8167 2.32757 13.8167 1.8125V1.8125ZM13.7713 8.34083C15.3165 8.34083 16.5691 7.08819 16.5691 5.54297V5.54297C16.5691 5.02791 16.1584 4.61036 15.6516 4.61036H14.7493C14.2343 4.61036 13.8167 5.0279 13.8167 5.54297V5.54297C13.8167 6.05804 13.406 6.47559 12.8992 6.47559C12.3925 6.47559 11.9818 6.05804 11.9818 5.54297V5.54297C11.9818 5.0279 11.5642 4.61036 11.0491 4.61036H7.40958C6.89451 4.61036 6.47696 5.0279 6.47696 5.54297V5.54297C6.47696 6.05804 6.06619 6.47559 5.55949 6.47559C5.0528 6.47559 4.64203 6.05804 4.64203 5.54297V5.54297C4.64203 5.0279 4.22448 4.61036 3.70941 4.61036H2.80709C2.30039 4.61036 1.88962 5.02791 1.88962 5.54297V5.54297C1.88962 7.08819 3.14227 8.34083 4.68748 8.34083H13.7713ZM1.88962 17.5458C1.88962 13.4922 5.17574 10.2061 9.22937 10.2061V10.2061C13.283 10.2061 16.5691 13.4922 16.5691 17.5458V18.5996C16.5691 19.1147 16.1584 19.5322 15.6516 19.5322H2.80709C2.30039 19.5322 1.88962 19.1147 1.88962 18.5996V17.5458Z" fill="#828282"></path>
</svg>
