<svg width="30" height="30" viewBox="0 0 30 30" fill="none" xmlns="http://www.w3.org/2000/svg">
<path d="M26.5028 3.29671L26.5026 3.29677C25.0841 3.72116 23.553 3.91367 21.832 3.91367C19.6433 3.91367 17.377 3.58678 15.1727 3.26433L15.1725 3.26431L15.0579 3.24776C12.8211 2.92483 10.4981 2.58945 8.17969 2.58945C6.81885 2.58945 5.55609 2.70516 4.35977 2.93693V1.71094C4.35977 1.06391 3.83453 0.538672 3.1875 0.538672C2.54154 0.538672 2.00937 1.05699 2.00937 1.71094V4.42969V18.7383V28.2773C2.00937 28.9244 2.53462 29.4496 3.18164 29.4496C3.82867 29.4496 4.35391 28.9244 4.35391 28.2773V19.6441C5.53579 19.3769 6.79247 19.2484 8.17383 19.2484C10.3626 19.2484 12.6288 19.5753 14.8332 19.8978L14.8334 19.8978L14.948 19.9144C17.1848 20.2373 19.5077 20.5727 21.8262 20.5727C23.7678 20.5727 25.5118 20.3432 27.151 19.8655L27.1513 19.8654C27.6507 19.7182 27.9965 19.2575 27.9965 18.7383V4.42383H27.9966L27.9964 4.41988C27.9744 3.86435 27.7052 3.54593 27.3832 3.38778C27.07 3.23394 26.7129 3.23434 26.5028 3.29671ZM21.832 6.26406C23.1929 6.26406 24.4556 6.14835 25.652 5.91658V17.8207C24.4701 18.0879 23.2134 18.2164 21.832 18.2164C19.6433 18.2164 17.377 17.8895 15.1727 17.5671L15.1725 17.567L15.0578 17.5505C12.8211 17.2276 10.4981 16.8922 8.17969 16.8922C6.81885 16.8922 5.55609 17.0079 4.35977 17.2397V5.33555C5.54165 5.06831 6.79833 4.93984 8.17969 4.93984C10.3685 4.93984 12.6347 5.26674 14.839 5.58918L14.8392 5.58921L14.9539 5.60576C17.1906 5.92869 19.5136 6.26406 21.832 6.26406Z" fill="#1B4E9B" stroke="#1B4E9B" stroke-width="0.2"/>
<path d="M17.6953 10.4059H16.184V8.89453C16.184 8.24751 15.6587 7.72227 15.0117 7.72227C14.3647 7.72227 13.8395 8.24751 13.8395 8.89453V10.4059H12.3281C11.6811 10.4059 11.1559 10.9311 11.1559 11.5781C11.1559 12.2252 11.6811 12.7504 12.3281 12.7504H13.8395V14.2617C13.8395 14.9087 14.3647 15.434 15.0117 15.434C15.6587 15.434 16.184 14.9087 16.184 14.2617V12.7562H17.6953C18.3422 12.7562 18.8673 12.2313 18.8676 11.5845C18.8737 10.9305 18.3416 10.4059 17.6953 10.4059Z" fill="#1B4E9B" stroke="#1B4E9B" stroke-width="0.2"/>
</svg>
