<svg width="30" height="37" viewBox="0 0 30 37" fill="none" xmlns="http://www.w3.org/2000/svg">
<g clip-path="url(#clip0_939_353)">
<path d="M28.7556 28.8859C27.5872 24.9912 25.5749 18.8895 25.5749 18.8895C25.7047 15.7737 24.796 13.0474 21.5504 11.6193C22.6539 10.7754 24.9258 10.1912 24.9258 10.1912L25.3802 6.4263C25.3802 6.4263 23.8223 5.907 20.2521 6.16665C20.0574 5.06314 19.5381 4.21928 18.6942 3.63507C16.8118 2.40174 13.8907 2.85613 12.7872 3.11578V0.649109H8.89246V4.60876C8.82755 4.67367 8.82755 4.67367 8.76264 4.73858L7.72404 3.11578L4.02404 3.37542L2.98545 14.086C0.908254 16.293 0.194219 18.9544 0.973166 21.8105C1.81703 24.9263 4.21878 28.5614 7.26966 31.2228C9.93106 33.5596 14.2802 36.3509 20.2521 36.3509C22.6539 36.3509 25.1205 35.8965 27.5872 34.9228C27.6521 34.8579 30.1837 33.6245 28.7556 28.8859ZM24.9258 18.9544C23.9521 18.8245 21.6802 18.5649 20.8363 16.0982C20.317 14.5403 20.2521 13.1123 21.0311 12.0737C21.9398 12.3982 25.2504 14.021 24.9258 18.9544ZM9.54159 4.93332C9.54159 4.73858 9.54159 1.29823 9.54159 1.29823H12.1381V3.89472C12.1381 3.89472 16.2925 2.7263 18.3047 4.08946C19.0188 4.54385 19.4083 5.25788 19.603 6.16665C18.5644 6.36139 17.5258 6.62104 16.5521 7.01051C14.3451 7.91928 12.5925 9.34735 11.2293 11.2947L7.01001 11.3596C7.01001 10.4509 7.20474 6.62104 9.54159 4.93332ZM4.67317 3.95963L7.39948 3.82981L8.30825 5.25788C6.23106 7.65964 6.36088 10.7754 6.4258 11.5544C5.9065 11.814 4.80299 12.3982 3.69948 13.3719L4.67317 3.95963ZM27.3276 34.3386C24.9258 35.2474 22.524 35.7017 20.1872 35.7017C14.4749 35.7017 10.2556 32.9754 7.65913 30.7684C4.73808 28.1719 2.40124 24.7316 1.55738 21.6807C0.843342 18.9544 1.49246 16.4877 3.50474 14.4105C4.93281 12.9824 6.49071 12.2035 6.81527 12.0737L9.86615 12.0088C8.76264 12.593 7.33457 13.6316 6.49071 15.2544C5.45211 17.1368 5.3872 19.4088 6.23106 22.0702L6.88018 21.8754C6.10124 19.4737 6.16615 17.3316 7.07492 15.5789C8.50299 12.8526 11.6188 12.0088 11.6837 12.0088C11.6837 12.0088 14.4749 7.01051 22.0697 6.75086C23.2381 6.68595 24.2118 6.88069 24.6661 6.9456L24.3416 9.67192C22.0047 10.386 20.7714 11.1649 20.1872 12.2684C19.6679 13.307 19.6679 14.6052 20.1872 16.3579C21.1609 19.3438 23.8872 19.6035 25.1205 19.6684C25.51 20.8368 27.1328 25.7052 28.1065 29.1456C29.3398 33.1702 27.4574 34.2737 27.3276 34.3386Z" fill="white" stroke="#1B4E9B" stroke-width="1.5"/>
</g>
<defs>
<clipPath id="clip0_939_353">
<rect width="29.8596" height="37" fill="white"/>
</clipPath>
</defs>
</svg>
