<?xml version="1.0" encoding="UTF-8"?>
<svg xmlns="http://www.w3.org/2000/svg" width="23" height="20" viewBox="0 0 23 20" fill="none">
  <g clip-path="url(#clip0_257_5622)">
    <path fill-rule="evenodd" clip-rule="evenodd" d="M15.6449 16.1122L16.0994 14.5494L15.8777 14.3074C15.7769 14.1618 15.7549 14.0345 15.8117 13.9253C15.9326 13.6888 16.1819 13.7324 16.4146 13.7324C16.6584 13.7324 16.9589 13.6869 17.0359 13.989C17.0616 14.0909 17.0286 14.1964 16.9571 14.3055L16.7354 14.5475L17.1899 16.1104L16.4183 16.7145L15.6449 16.1122ZM6.27446 12.7026C5.89326 12.2714 5.86027 11.8202 6.27446 11.3435C6.75279 11.4636 7.19079 11.6692 7.59398 11.9476C7.68195 11.9094 7.78275 11.8948 7.88171 11.9003C8.30139 11.6055 8.83654 11.4854 9.30387 11.2634C9.86283 11.8038 9.80235 12.3005 9.25255 12.7627C8.9465 12.6935 8.65327 12.5844 8.3747 12.4443C8.36737 12.5152 8.34904 12.5935 8.31422 12.679L8.45717 13.858H7.31725L7.4602 12.679C7.3704 12.5298 7.33741 12.4024 7.34107 12.2951C7.01119 12.4916 6.65016 12.6189 6.27446 12.7026ZM4.75334 6.40556C4.58657 6.41283 4.45828 6.4474 4.37214 6.5038C4.32266 6.53655 4.28601 6.5784 4.26218 6.62935C4.23653 6.68575 4.2237 6.75307 4.22553 6.8313C4.23286 7.06055 4.35198 7.35894 4.58657 7.70281L4.59023 7.70827L5.34713 8.90182C5.65135 9.38033 5.9684 9.86794 6.36426 10.2282C6.74362 10.5739 7.20546 10.8068 7.8139 10.8086C8.47367 10.8104 8.95749 10.5684 9.34968 10.2027C9.75654 9.82428 10.0791 9.30392 10.3961 8.7872L11.2483 7.39351C11.4078 7.03326 11.4646 6.7931 11.4279 6.65118C11.4059 6.56748 11.3125 6.52564 11.153 6.51836C11.12 6.51654 11.0852 6.51654 11.0486 6.51654C11.0101 6.51836 10.9716 6.52018 10.9294 6.52382C10.9075 6.52564 10.8855 6.52382 10.8635 6.52018C10.7883 6.52382 10.7095 6.51836 10.6289 6.50744L10.9203 5.22474C8.7559 5.56316 7.13581 3.96751 4.84681 4.90634L5.01175 6.41829C4.92194 6.42011 4.83398 6.41829 4.75334 6.40556ZM5.75764 11.7365C5.74298 11.7565 5.72466 11.7747 5.7045 11.7893C5.77597 12.3624 5.87677 13.0974 5.99589 13.858H1.49485C1.17229 13.858 0.910222 14.1582 0.959705 14.5239L1.58465 19.2271H1.01285C0.486875 19.1871 0.219305 18.9178 0.173488 18.4484C0.199145 16.347 -0.605399 13.8052 1.62496 12.5716C2.4405 12.1186 4.54625 11.9658 5.46442 11.369C5.5982 11.1179 5.74665 10.6794 5.84011 10.3956C5.83278 10.4156 5.85844 10.3392 5.85294 10.3574L5.86211 10.3301C5.52489 9.96983 5.24816 9.5459 4.98426 9.12743L4.22736 7.93388C3.95063 7.52451 3.80768 7.14971 3.79852 6.84222C3.79485 6.69848 3.81868 6.56567 3.87366 6.45104C3.93047 6.33096 4.0166 6.22907 4.1339 6.15083C4.18888 6.11445 4.24935 6.08352 4.31716 6.05804C4.26768 5.41032 4.24935 4.5934 4.28234 3.91111C4.29884 3.74918 4.32999 3.58725 4.37581 3.42532C4.65254 2.44282 5.5029 1.73506 6.47422 1.40211C6.94522 1.24018 6.76378 0.854456 7.24028 0.881748C8.3692 0.943608 10.1121 1.66592 10.781 2.43191C11.7193 3.50537 11.4774 4.8281 11.4463 6.1381C11.6552 6.20178 11.7908 6.33278 11.8458 6.54747C11.9063 6.784 11.8403 7.11877 11.6387 7.57363C11.635 7.58273 11.6314 7.59001 11.6259 7.59729L10.7645 9.00735C10.4328 9.55136 10.0956 10.0954 9.64474 10.5138L9.62275 10.5339C9.6649 10.5957 9.71255 10.663 9.76204 10.734C9.91232 10.9523 10.0828 11.1998 10.2404 11.3944C11.1769 11.973 13.2386 12.1277 14.0432 12.5753C14.2356 12.6826 14.4042 12.8027 14.5508 12.9355C14.6754 12.8263 14.7946 12.7208 14.8899 12.6335C14.8459 12.5844 14.8019 12.5334 14.7579 12.4843L14.3437 12.0058L14.0358 12.0131L13.4494 12.0276C12.9454 11.4527 12.9765 10.2155 13.026 9.50224C13.2606 8.06852 13.8196 7.03508 14.7286 6.4383C15.3444 6.03439 15.7127 6.01074 16.433 6.01074C17.0616 6.01074 17.4464 5.99618 17.9834 6.34733C19.7299 7.48994 20.2724 10.1845 19.4184 12.0003H18.8081L18.7696 12.0458L18.7146 12.1095L18.4489 12.4261C18.3426 12.5516 18.2363 12.679 18.1209 12.7972C18.2675 12.9392 18.4654 13.112 18.6468 13.2703C18.733 13.3449 18.8154 13.4158 18.8887 13.4813C21.6213 14.5621 22.2224 15.1916 22.5559 18.6904C22.6182 19.3363 22.6109 19.3072 21.9878 19.3199C19.6805 19.3654 16.739 19.3199 14.078 19.309L14.089 19.2271L14.7139 14.5239C14.7634 14.1582 14.5013 13.858 14.1788 13.858H13.9442H13.0205H9.77853C9.88666 13.0883 9.96546 12.3551 10.0039 11.8002C9.79869 11.5746 9.57877 11.2544 9.39184 10.9796C9.34968 10.9196 9.30937 10.8595 9.27088 10.805C8.87502 11.0688 8.40403 11.2307 7.8139 11.2307C7.15597 11.2289 6.64466 11.0051 6.21948 10.663C6.10035 11.0178 5.92625 11.5036 5.75764 11.7365ZM14.7322 13.1211C15.6577 14.1673 15.513 15.8175 15.4763 17.3094L16.4165 18.8596L18.7073 15.0861L19.7025 15.1097C19.4715 14.6476 19.1966 14.2346 18.8887 13.847C18.8063 13.7634 18.6432 13.6214 18.4672 13.4686C18.2785 13.3049 18.075 13.1266 17.9229 12.9792C17.8606 13.0319 17.7965 13.0829 17.7268 13.1284C17.4299 13.3303 17.0616 13.465 16.5613 13.4631C16.0921 13.4631 15.7402 13.3321 15.4507 13.1411C15.3077 13.0465 15.1813 12.9373 15.0658 12.8227C14.9668 12.9137 14.8514 13.0156 14.7322 13.1211ZM7.77175 16.3433C8.21709 16.3433 8.5763 16.7017 8.5763 17.142C8.5763 17.5842 8.21526 17.9408 7.77175 17.9408C7.32641 17.9408 6.96721 17.5824 6.96721 17.142C6.96721 16.7017 7.32641 16.3433 7.77175 16.3433ZM14.4537 11.7911C13.9662 10.1336 14.1953 8.61071 15.5093 7.308C15.742 8.05397 16.2625 8.66893 17.1477 9.12379C17.5711 9.43674 17.9797 9.81336 18.3774 10.2464C18.4471 9.95891 18.1795 9.60958 17.8551 9.24933C18.1557 9.39671 18.4324 9.60231 18.6285 10.0008C18.8558 10.4611 18.8521 10.8504 18.777 11.3508C18.7531 11.5054 18.7201 11.651 18.678 11.7911C18.6652 11.7984 18.6523 11.8075 18.6432 11.8184C18.6065 11.862 18.5717 11.9039 18.5387 11.9421C18.5259 11.9567 18.5149 11.9694 18.4837 12.0076L18.2162 12.3242C18.0127 12.5662 17.8075 12.81 17.5454 12.9865C17.2943 13.1575 16.9846 13.2703 16.5594 13.2703C16.1691 13.2703 15.8722 13.1593 15.6284 12.9992C15.3755 12.8318 15.1721 12.6026 14.9778 12.3788L14.494 11.8202C14.483 11.8093 14.4683 11.7984 14.4537 11.7911Z" fill="#828282"></path>
  </g>
  <defs>
    <clipPath id="clip0_257_5622">
      <rect width="22.5199" height="18.46" fill="white" transform="translate(0.0546875 0.879883)"></rect>
    </clipPath>
  </defs>
</svg>
