<?xml version="1.0" encoding="UTF-8"?>
<svg xmlns="http://www.w3.org/2000/svg" width="49" height="42" viewBox="0 0 49 42" fill="none">
  <mask id="mask0_957_12090" style="mask-type:luminance" maskUnits="userSpaceOnUse" x="0" y="0" width="48" height="42">
    <path d="M47.88 0H0V42H47.88V0Z" fill="white"></path>
  </mask>
  <g mask="url(#mask0_957_12090)">
    <path d="M6.26234 23.9782C6.5678 24.2073 6.72053 24.5891 6.64416 24.9709C5.80416 30.8509 6.03325 34.7454 9.62235 39.8618C10.0042 40.3963 10.5387 40.9309 11.226 41.4654C11.5314 41.7709 11.9133 41.9236 12.2951 42C12.3714 42 12.4478 42 12.5242 42C13.2878 42 14.3569 41.6182 14.586 40.7018C14.6623 40.3963 14.6623 40.0909 14.6623 39.7854C14.6623 39.6327 14.6623 39.5563 14.6623 39.4036C14.6623 39.2509 14.586 39.0982 14.586 38.9454C14.586 38.8691 14.586 38.7927 14.586 38.7927C14.586 38.7927 14.586 38.7927 14.586 38.7163C14.5096 38.4873 14.5096 38.2582 14.4333 38.0291C14.0514 36.3491 13.8223 35.28 14.0514 33.4473C14.3569 31.3854 15.9605 30.3163 17.1823 30.0873C18.4805 29.8582 20.2369 30.1636 21.2296 31.92C22.4514 33.9818 21.8405 36.7309 21.306 39.1745V39.4036C21.306 39.5563 21.306 39.6327 21.306 39.7854C21.306 40.0909 21.306 40.3963 21.3823 40.7018C21.6114 41.6182 22.6805 42 23.4442 42C23.5205 42 23.5969 42 23.6733 42C24.0551 41.9236 24.3605 41.7709 24.666 41.5418C25.3533 41.0073 25.8878 40.4727 26.346 39.8618C29.0187 36.0436 29.9351 32.8363 29.706 28.3309C31.2333 27.9491 32.6842 27.2618 33.906 26.1927L36.3496 28.6363C35.8151 29.7818 36.0442 31.08 36.9605 31.9963L42.7642 37.8C43.2987 38.3345 44.0624 38.7163 44.9024 38.7163C45.7424 38.7163 46.506 38.4109 47.0405 37.8C48.186 36.6545 48.186 34.6691 47.0405 33.5236L41.2369 27.72C40.7024 27.1854 39.9387 26.8036 39.0987 26.8036C38.6405 26.8036 38.2587 26.88 37.8769 27.1091L35.4333 24.6654C38.3351 21.0763 38.5642 15.96 36.0442 12.1418C36.1969 9.23998 35.3569 6.56725 33.6005 4.50543C30.9278 1.2218 26.0405 -0.458202 21.5351 0.229071C20.3133 0.381798 19.1678 0.763617 18.0223 1.29816C16.8769 0.763617 15.7314 0.458162 14.5096 0.229071C10.0042 -0.534565 5.11689 1.14543 2.44416 4.42907C-2.36675 10.2327 0.535071 19.2436 6.26234 23.9782ZM38.4878 29.1709C38.6405 29.0182 38.8696 28.9418 39.0987 28.9418C39.3278 28.9418 39.5569 29.0182 39.7096 29.1709L45.5133 34.9745C45.8951 35.3563 45.8951 35.8909 45.5133 36.2727C45.2078 36.5782 44.5969 36.5782 44.2151 36.2727L38.4114 30.4691C38.106 30.0873 38.106 29.5527 38.4878 29.1709ZM33.1424 23.9782C31.5387 25.5818 29.4005 26.4982 27.1096 26.4982C24.8187 26.4982 22.6805 25.5818 21.0769 23.9782C17.7933 20.6182 17.7933 15.2727 21.0769 11.9127C22.6805 10.3091 24.8187 9.39271 27.1096 9.39271C29.4005 9.39271 31.5387 10.3091 33.1424 11.9127C36.426 15.2727 36.426 20.6182 33.1424 23.9782ZM4.0478 5.80362C6.26234 3.13089 10.4623 1.67998 14.2042 2.29089C15.3496 2.44362 16.4951 2.82543 17.5642 3.35998H17.6405C17.7169 3.35998 17.7169 3.43634 17.7933 3.43634C19.1678 4.19998 20.466 5.19271 21.3823 6.41453C21.6114 6.64362 21.9169 6.79634 22.2223 6.79634C22.4514 6.79634 22.6805 6.71998 22.9096 6.56725C23.3678 6.18544 23.4442 5.49816 23.0623 5.03998C22.2987 4.12362 21.3823 3.28362 20.3896 2.59634C20.8478 2.44362 21.306 2.29089 21.8405 2.29089C25.5823 1.67998 29.7823 3.13089 31.9205 5.80362C32.8369 6.94907 33.4478 8.24725 33.6769 9.6218C31.7678 8.09453 29.4769 7.33089 27.0333 7.33089C24.2078 7.33089 21.5351 8.47634 19.4733 10.4618C15.3496 14.5854 15.3496 21.3818 19.4733 25.5054C21.4587 27.4909 24.1314 28.6363 27.0333 28.6363C27.186 28.6363 27.3387 28.6363 27.5678 28.6363C27.7969 32.6073 26.9569 35.3563 24.5896 38.64C24.2842 39.0218 23.9023 39.4036 23.3678 39.8618C23.3678 39.7854 23.3678 39.6327 23.4442 39.48V39.3273C23.9787 36.7309 24.5896 33.5236 22.986 30.9273C21.6878 28.7127 19.1678 27.5673 16.6478 28.1018C14.0514 28.6363 12.1423 30.6218 11.7605 33.2945C11.4551 35.5091 11.7605 36.8836 12.2187 38.64C12.2951 38.9454 12.3714 39.2509 12.4478 39.5563V39.6327C12.4478 39.7854 12.5242 39.9382 12.5242 40.0145C11.9896 39.5563 11.6078 39.1745 11.3023 38.7927C8.09507 34.2109 7.86598 31.0036 8.62962 25.4291C8.78235 24.2836 8.32416 23.2145 7.48416 22.4509C3.28416 18.7854 -0.304929 11.0727 4.0478 5.80362Z" fill="#1B4E9B"></path>
    <path d="M26.804 14.3563C27.3386 13.2872 27.3386 12.2182 27.2622 11.6836C27.1858 11.0727 26.6513 10.6909 26.0404 10.7673C25.4295 10.8436 25.0476 11.3782 25.124 11.9891C25.2004 12.2945 25.2004 12.7527 24.8949 13.2872C24.4367 14.2036 23.3676 14.3563 23.2913 14.4327C22.6804 14.5091 22.2986 15.0436 22.3749 15.6545C22.4513 16.1891 22.9095 16.5709 23.444 16.5709C23.5204 16.5709 23.5204 16.5709 23.5967 16.5709C24.0549 16.4945 25.8876 16.1127 26.804 14.3563Z" fill="#1B4E9B"></path>
    <path d="M27.1855 18.9382C27.1855 19.32 27.4146 21.2291 29.0946 22.2982C29.8583 22.7564 30.7746 22.9855 31.691 22.9091C32.3019 22.8327 32.6837 22.3745 32.6837 21.7636C32.6837 21.6109 32.6074 21.5345 32.6074 21.3818C32.4546 21 31.9965 20.6945 31.5383 20.7709C31.2328 20.7709 30.7746 20.7709 30.2401 20.4655C29.4001 19.9309 29.2474 18.8618 29.2474 18.7855C29.171 18.1745 28.7128 17.7927 28.1019 17.7927C27.6437 17.8691 27.1855 18.4036 27.1855 18.9382Z" fill="#1B4E9B"></path>
    <path d="M31.6923 16.6472C32.3032 16.6472 32.8378 16.1127 32.8378 15.5018C32.8378 14.8909 32.3032 14.3563 31.6923 14.3563C31.0814 14.3563 30.5469 14.8909 30.5469 15.5018C30.5469 16.1127 31.0814 16.6472 31.6923 16.6472Z" fill="#1B4E9B"></path>
    <path d="M21.8408 23.2909C22.4517 23.2909 22.9862 22.7564 22.9862 22.1455C22.9862 21.5345 22.4517 21 21.8408 21C21.2299 21 20.6953 21.5345 20.6953 22.1455C20.6953 22.7564 21.2299 23.2909 21.8408 23.2909Z" fill="#1B4E9B"></path>
    <path d="M25.5819 19.549C25.9637 19.549 26.2691 19.2436 26.2691 18.8618C26.2691 18.48 25.9637 18.1745 25.5819 18.1745C25.2001 18.1745 24.8946 18.48 24.8946 18.8618C24.8182 19.2436 25.2001 19.549 25.5819 19.549Z" fill="#1B4E9B"></path>
    <path d="M30.0118 12.9055C30.47 12.9055 30.8518 12.5236 30.8518 12.0655C30.8518 11.6073 30.47 11.2255 30.0118 11.2255C29.5537 11.2255 29.1718 11.6073 29.1718 12.0655C29.0955 12.5236 29.4773 12.9055 30.0118 12.9055Z" fill="#1B4E9B"></path>
    <path d="M28.0252 25.429C28.407 25.429 28.7124 25.1236 28.7124 24.7418C28.7124 24.36 28.407 24.0545 28.0252 24.0545C27.6433 24.0545 27.3379 24.36 27.3379 24.7418C27.3379 25.1236 27.6433 25.429 28.0252 25.429Z" fill="#1B4E9B"></path>
    <path d="M21.1541 15.12C21.5359 15.12 21.8413 14.8145 21.8413 14.4327C21.8413 14.0509 21.5359 13.7454 21.1541 13.7454C20.7723 13.7454 20.4668 14.0509 20.4668 14.4327C20.4668 14.8145 20.7723 15.12 21.1541 15.12Z" fill="#1B4E9B"></path>
  </g>
</svg>
