<svg width="329" height="369" viewBox="0 0 329 369" fill="none" xmlns="http://www.w3.org/2000/svg">
<g clip-path="url(#clip0_1280_7692)">
<path fill-rule="evenodd" clip-rule="evenodd" d="M180.563 301.86C196.503 260.28 285.208 271.368 267.883 312.948C321.55 288 317.275 339.974 276.199 348.983C224.916 360.071 66.2153 359.379 44.7316 348.983C22.5552 330.966 52.3546 297.01 111.262 314.335C95.3211 233.254 162.545 261.666 180.563 301.86Z" fill="#E8F2FF"/>
<path fill-rule="evenodd" clip-rule="evenodd" d="M76.4356 95.0313H131.551C131.953 70.8942 142.413 59.2276 162.126 59.2276C179.827 59.2276 190.287 66.8717 190.287 83.7674C190.287 122.387 140.804 126.007 140.804 187.959H194.309C194.309 140.891 256.263 132.846 256.263 72.1008C256.263 27.0455 222.873 1.70093 168.965 1.70093C111.436 1.70182 76.8384 35.8961 76.4356 95.0313ZM166.55 218.532C146.435 218.532 132.356 232.612 132.356 253.129C132.356 273.645 146.436 288.128 166.55 288.128C186.666 288.128 201.149 273.645 201.149 253.129C201.149 232.612 186.666 218.532 166.55 218.532Z" fill="#C5DCFA"/>
<path fill-rule="evenodd" clip-rule="evenodd" d="M253.517 336.039C256.766 327.949 253.574 300.987 245.473 302.134C234.604 303.674 241.467 331.591 253.517 336.039Z" fill="#C9DAF0"/>
<path fill-rule="evenodd" clip-rule="evenodd" d="M255.343 336.586C259.858 329.128 283.351 326.016 287.301 333.181C292.601 342.794 266.139 343.543 255.343 336.586Z" fill="#C9DAF0"/>
<path fill-rule="evenodd" clip-rule="evenodd" d="M268.194 311.757C274.244 308.333 281.169 288.971 274.964 286.96C267.545 284.556 262.9 302.991 268.194 311.757Z" fill="#C9DAF0"/>
<path fill-rule="evenodd" clip-rule="evenodd" d="M269.319 312.779C273.901 307.55 295.082 305.301 294.946 311.823C294.815 318.159 274.946 317.938 269.319 312.779Z" fill="#C9DAF0"/>
<path fill-rule="evenodd" clip-rule="evenodd" d="M258.646 323.044C264.159 317.813 267.298 295.907 261.297 294.337C253.191 292.216 250.714 315.145 258.646 323.044Z" fill="#C9DAF0"/>
<path fill-rule="evenodd" clip-rule="evenodd" d="M260.178 323.69C266.003 317.291 289.512 314.68 289.219 320.688C288.763 330.009 267.411 328.55 260.178 323.69Z" fill="#C9DAF0"/>
<path fill-rule="evenodd" clip-rule="evenodd" d="M318.669 266.109C319.944 262.648 316.72 252.168 313.507 253.453C309.189 255.181 313.519 264.377 318.669 266.109Z" fill="#C9DAF0"/>
<path fill-rule="evenodd" clip-rule="evenodd" d="M319.472 266.184C319.751 262.507 325.415 255.774 327.894 258.223C331.197 261.486 324.877 266.746 319.472 266.184Z" fill="#C9DAF0"/>
<path fill-rule="evenodd" clip-rule="evenodd" d="M313.275 277.059C315.618 273.465 313.584 260.855 309.669 261.801C304.433 263.068 307.883 273.758 313.275 277.059Z" fill="#C9DAF0"/>
<path fill-rule="evenodd" clip-rule="evenodd" d="M314.166 277.353C315.435 273.253 325.461 265.626 327.639 269.499C330.286 274.209 320.15 279.392 314.166 277.353Z" fill="#C9DAF0"/>
<path fill-rule="evenodd" clip-rule="evenodd" d="M305.554 285.867C308.894 282.596 307.682 267.422 303.345 268.085C297.615 268.962 300.597 281.084 305.554 285.867Z" fill="#C9DAF0"/>
<path fill-rule="evenodd" clip-rule="evenodd" d="M306.432 286.388C308.749 282.327 320.256 277.13 321.951 281.356C324.143 286.818 312.316 289.967 306.432 286.388Z" fill="#C9DAF0"/>
<path fill-rule="evenodd" clip-rule="evenodd" d="M293.97 294.363C298.696 291.295 302.248 275.298 297.152 273.887C290.712 272.102 289.253 287.532 293.97 294.363Z" fill="#C9DAF0"/>
<path fill-rule="evenodd" clip-rule="evenodd" d="M294.884 295.189C298.588 290.944 312.883 286.428 314.18 291.248C316.024 298.098 300.982 300.82 294.884 295.189Z" fill="#C9DAF0"/>
<path fill-rule="evenodd" clip-rule="evenodd" d="M281.095 301.989C286.654 298.966 292.3 283.29 287.266 280.142C280.895 276.157 276.412 293.929 281.095 301.989Z" fill="#C9DAF0"/>
<path fill-rule="evenodd" clip-rule="evenodd" d="M282.047 302.994C286.566 298.564 304.888 297.97 303.904 303.094C302.741 309.149 288.383 309.832 282.047 302.994Z" fill="#C9DAF0"/>
<path fill-rule="evenodd" clip-rule="evenodd" d="M252.645 353.534C252.683 357.207 257.751 356.758 256.937 352.921C250.261 294.128 315.276 310.948 321.769 255.789C322.038 253.546 320.039 253.355 319.77 255.599C313.526 308.644 245.645 291.874 252.645 353.534Z" fill="#C9DAF0"/>
<path fill-rule="evenodd" clip-rule="evenodd" d="M320.491 258.213C326.323 254.613 325.956 245.369 322.541 244.804C318.437 244.127 316.822 254.446 320.491 258.213Z" fill="#C9DAF0"/>
<path fill-rule="evenodd" clip-rule="evenodd" d="M226.042 342.706C225.979 343.554 227.089 343.363 228.521 342.281C229.951 341.198 231.162 339.633 231.225 338.786C231.875 330.09 241.707 303.179 257.647 274.794C268.446 255.562 281.985 235.775 297.197 220.885C298.549 219.562 299.257 218.181 298.777 217.8C298.298 217.419 296.813 218.183 295.462 219.506C278.899 235.718 264.466 256.713 253.117 276.924C236.794 305.989 226.716 333.688 226.042 342.706Z" fill="#B8CCE6"/>
<path fill-rule="evenodd" clip-rule="evenodd" d="M249.351 295.474C256.453 297.178 282.071 293.803 282.774 284.712C283.639 273.508 253.32 290.392 249.345 292.241C244.789 294.361 245.366 294.518 249.351 295.474Z" fill="#B8CCE6"/>
<path fill-rule="evenodd" clip-rule="evenodd" d="M257.547 278.234C263.524 279.667 285.083 276.828 285.674 269.177C286.403 259.748 260.887 273.957 257.542 275.513C253.708 277.298 254.193 277.43 257.547 278.234Z" fill="#B8CCE6"/>
<path fill-rule="evenodd" clip-rule="evenodd" d="M266.036 263.322C271.31 264.587 290.337 262.082 290.858 255.329C291.501 247.009 268.983 259.548 266.031 260.921C262.648 262.496 263.076 262.613 266.036 263.322Z" fill="#B8CCE6"/>
<path fill-rule="evenodd" clip-rule="evenodd" d="M275.505 250.725C279.61 251.71 294.414 249.76 294.82 244.506C295.32 238.032 277.8 247.788 275.503 248.856C272.87 250.082 273.203 250.173 275.505 250.725Z" fill="#B8CCE6"/>
<path fill-rule="evenodd" clip-rule="evenodd" d="M284.673 238.683C288.075 239.499 300.346 237.882 300.683 233.527C301.097 228.161 286.574 236.248 284.67 237.134C282.487 238.15 282.764 238.226 284.673 238.683Z" fill="#B8CCE6"/>
<path fill-rule="evenodd" clip-rule="evenodd" d="M292.163 228.007C294.628 228.598 303.522 227.427 303.766 224.27C304.066 220.381 293.541 226.242 292.161 226.884C290.579 227.621 290.779 227.675 292.163 228.007Z" fill="#B8CCE6"/>
<path fill-rule="evenodd" clip-rule="evenodd" d="M297.084 220.019C299.9 218.871 308.183 211.918 306.638 209.068C304.734 205.557 297.469 217.595 296.446 219.065C295.272 220.751 295.504 220.663 297.084 220.019Z" fill="#B8CCE6"/>
<path fill-rule="evenodd" clip-rule="evenodd" d="M242.736 291.469C238.014 285.801 229.297 261.022 236.92 256.244C246.314 250.358 245.369 285.554 245.563 290.002C245.786 295.101 245.386 294.649 242.736 291.469Z" fill="#B8CCE6"/>
<path fill-rule="evenodd" clip-rule="evenodd" d="M251.947 274.718C248.126 269.799 241.417 248.627 247.919 244.809C255.932 240.104 254.296 269.798 254.352 273.56C254.415 277.872 254.09 277.479 251.947 274.718Z" fill="#B8CCE6"/>
<path fill-rule="evenodd" clip-rule="evenodd" d="M261.326 259.089C258.337 254.408 253.943 235.051 259.86 232.182C267.153 228.646 263.704 254.904 263.496 258.252C263.258 262.09 263.003 261.714 261.326 259.089Z" fill="#B8CCE6"/>
<path fill-rule="evenodd" clip-rule="evenodd" d="M270.708 247.35C268.452 243.653 265.3 228.489 269.932 226.346C275.64 223.704 272.61 244.125 272.404 246.733C272.167 249.721 271.974 249.424 270.708 247.35Z" fill="#B8CCE6"/>
<path fill-rule="evenodd" clip-rule="evenodd" d="M280.606 235.218C278.675 232.202 275.829 219.721 279.646 217.868C284.348 215.582 282.138 232.518 282.005 234.677C281.853 237.152 281.689 236.911 280.606 235.218Z" fill="#B8CCE6"/>
<path fill-rule="evenodd" clip-rule="evenodd" d="M289.172 224.819C287.871 222.556 286.188 213.371 288.99 212.153C292.443 210.652 290.354 222.906 290.196 224.474C290.014 226.271 289.903 226.089 289.172 224.819Z" fill="#B8CCE6"/>
<path fill-rule="evenodd" clip-rule="evenodd" d="M241.215 316.292C248.686 317.532 275.067 312.286 275.255 302.95C275.486 291.446 245.03 310.822 241.017 312.989C236.415 315.476 237.023 315.596 241.215 316.292Z" fill="#B8CCE6"/>
<path fill-rule="evenodd" clip-rule="evenodd" d="M232.955 312.557C228.171 307.573 218.563 285.016 225.528 280.07C234.111 273.976 235.128 306.87 235.554 311.008C236.042 315.75 235.639 315.354 232.955 312.557Z" fill="#B8CCE6"/>
<path fill-rule="evenodd" clip-rule="evenodd" d="M233.523 332.652C240.141 334.8 264.587 333.386 265.803 324.682C267.3 313.958 237.588 328.043 233.714 329.539C229.274 331.254 229.811 331.447 233.523 332.652Z" fill="#B8CCE6"/>
<path fill-rule="evenodd" clip-rule="evenodd" d="M227.843 330.429C221.855 326.305 207.652 305.176 214.256 298.686C222.394 290.69 229.186 324.162 230.36 328.311C231.704 333.067 231.202 332.744 227.843 330.429Z" fill="#B8CCE6"/>
<path fill-rule="evenodd" clip-rule="evenodd" d="M108.23 317.494C104.859 309.453 107.642 282.446 115.759 283.471C126.651 284.845 120.211 312.863 108.23 317.494Z" fill="#B8CCE6"/>
<path fill-rule="evenodd" clip-rule="evenodd" d="M106.413 318.067C101.785 310.678 78.2487 307.924 74.4074 315.147C69.2527 324.839 95.7239 325.189 106.413 318.067Z" fill="#B8CCE6"/>
<path fill-rule="evenodd" clip-rule="evenodd" d="M93.187 293.437C87.0854 290.105 79.8679 270.85 86.0424 268.746C93.4245 266.229 98.3479 284.591 93.187 293.437Z" fill="#B8CCE6"/>
<path fill-rule="evenodd" clip-rule="evenodd" d="M92.0774 294.475C87.4162 289.317 66.2055 287.389 66.4394 293.908C66.667 300.242 86.5306 299.72 92.0774 294.475Z" fill="#B8CCE6"/>
<path fill-rule="evenodd" clip-rule="evenodd" d="M102.905 304.578C97.3138 299.431 93.8433 277.576 99.8195 275.914C107.892 273.671 110.717 296.559 102.905 304.578Z" fill="#B8CCE6"/>
<path fill-rule="evenodd" clip-rule="evenodd" d="M101.384 305.248C95.4625 298.937 71.9168 296.682 72.3009 302.685C72.8976 311.998 94.2248 310.215 101.384 305.248Z" fill="#B8CCE6"/>
<path fill-rule="evenodd" clip-rule="evenodd" d="M42.0267 248.559C40.7 245.117 43.7641 234.59 46.9972 235.827C51.34 237.487 47.1493 246.749 42.0267 248.559Z" fill="#B8CCE6"/>
<path fill-rule="evenodd" clip-rule="evenodd" d="M41.2246 248.646C40.8912 244.973 35.1257 238.327 32.6831 240.813C29.4295 244.126 35.829 249.29 41.2246 248.646Z" fill="#B8CCE6"/>
<path fill-rule="evenodd" clip-rule="evenodd" d="M47.5868 259.427C45.1886 255.867 47.0319 243.228 50.9604 244.115C56.2146 245.302 52.9273 256.043 47.5868 259.427Z" fill="#B8CCE6"/>
<path fill-rule="evenodd" clip-rule="evenodd" d="M46.6994 259.732C45.3683 255.652 35.2279 248.178 33.109 252.084C30.5339 256.834 40.7471 261.862 46.6994 259.732Z" fill="#B8CCE6"/>
<path fill-rule="evenodd" clip-rule="evenodd" d="M55.44 268.115C52.0513 264.895 53.0339 249.705 57.3794 250.302C63.1209 251.092 60.3226 263.258 55.44 268.115Z" fill="#B8CCE6"/>
<path fill-rule="evenodd" clip-rule="evenodd" d="M54.5687 268.65C52.191 264.625 40.6066 259.603 38.9749 263.854C36.8667 269.348 48.7409 272.318 54.5687 268.65Z" fill="#B8CCE6"/>
<path fill-rule="evenodd" clip-rule="evenodd" d="M67.1516 276.435C62.3802 273.438 58.5851 257.498 63.6597 256.009C70.0708 254.127 71.7629 269.534 67.1516 276.435Z" fill="#B8CCE6"/>
<path fill-rule="evenodd" clip-rule="evenodd" d="M66.2499 277.275C62.4815 273.086 48.1194 268.787 46.8958 273.626C45.1566 280.504 60.2372 282.998 66.2499 277.275Z" fill="#B8CCE6"/>
<path fill-rule="evenodd" clip-rule="evenodd" d="M80.1391 283.865C74.5345 280.926 68.6525 265.339 73.6382 262.114C79.9488 258.033 84.6997 275.735 80.1391 283.865Z" fill="#B8CCE6"/>
<path fill-rule="evenodd" clip-rule="evenodd" d="M79.2036 284.884C74.6181 280.523 56.2901 280.207 57.3509 285.316C58.6038 291.353 72.9722 291.818 79.2036 284.884Z" fill="#B8CCE6"/>
<path fill-rule="evenodd" clip-rule="evenodd" d="M109.368 334.973C109.385 338.646 104.311 338.273 105.068 334.424C110.851 275.537 46.0983 293.341 38.7705 238.287C38.4681 236.048 40.4635 235.827 40.7658 238.066C47.8135 291.011 115.433 273.214 109.368 334.973Z" fill="#B8CCE6"/>
<path fill-rule="evenodd" clip-rule="evenodd" d="M40.0847 240.691C34.1991 237.18 34.4259 227.932 37.8324 227.316C41.9253 226.576 43.6966 236.87 40.0847 240.691Z" fill="#B8CCE6"/>
<path fill-rule="evenodd" clip-rule="evenodd" d="M109.59 348.573C110.367 348.801 110.412 347.729 109.69 346.178C108.968 344.627 107.752 343.186 106.975 342.958C99.0014 340.611 75.8914 326.062 52.6311 305.526C36.872 291.612 21.1431 275.035 10.3128 257.879C9.3507 256.355 8.20543 255.418 7.75461 255.789C7.30379 256.16 7.71815 257.695 8.68114 259.22C20.4727 277.9 37.1485 295.551 53.7097 310.173C77.5266 331.203 101.321 346.14 109.59 348.573Z" fill="#C9DAF0"/>
<path fill-rule="evenodd" clip-rule="evenodd" d="M70.2415 317.397C73.2505 311.12 75.2361 286.573 66.9044 284.098C56.6378 281.049 66.3006 312.681 67.228 316.755C68.2906 321.425 68.5529 320.918 70.2415 317.397Z" fill="#C9DAF0"/>
<path fill-rule="evenodd" clip-rule="evenodd" d="M55.8171 306.308C58.3495 301.026 60.0203 280.368 53.0082 278.286C44.3679 275.72 52.4995 302.34 53.2802 305.769C54.1757 309.699 54.3962 309.272 55.8171 306.308Z" fill="#C9DAF0"/>
<path fill-rule="evenodd" clip-rule="evenodd" d="M43.6209 295.412C45.8555 290.751 47.3297 272.519 41.1419 270.681C33.5171 268.417 40.6928 291.909 41.382 294.935C42.1716 298.404 42.3663 298.028 43.6209 295.412Z" fill="#C9DAF0"/>
<path fill-rule="evenodd" clip-rule="evenodd" d="M33.7776 284.066C35.5169 280.438 36.6639 266.253 31.849 264.823C25.9163 263.061 31.4995 281.34 32.0357 283.694C32.6501 286.394 32.8013 286.101 33.7776 284.066Z" fill="#C9DAF0"/>
<path fill-rule="evenodd" clip-rule="evenodd" d="M24.3905 273.112C25.8319 270.106 26.7824 258.348 22.7917 257.163C17.8736 255.702 22.5019 270.854 22.9465 272.806C23.4568 275.042 23.5822 274.8 24.3905 273.112Z" fill="#C9DAF0"/>
<path fill-rule="evenodd" clip-rule="evenodd" d="M15.9414 263.996C16.9862 261.817 17.6753 253.295 14.7828 252.436C11.2189 251.378 14.5729 262.359 14.8948 263.773C15.2638 265.395 15.3554 265.219 15.9414 263.996Z" fill="#C9DAF0"/>
<path fill-rule="evenodd" clip-rule="evenodd" d="M9.48321 257.811C8.97726 254.958 4.15607 245.847 1.19152 246.716C-2.46216 247.787 7.30114 256.966 8.46687 258.215C9.80243 259.646 9.76686 259.412 9.48321 257.811Z" fill="#C9DAF0"/>
<path fill-rule="evenodd" clip-rule="evenodd" d="M65.1847 322.759C58.9568 326.024 34.1199 329.185 31.1954 321.125C27.5906 311.193 60.199 319.12 64.3835 319.83C69.1807 320.644 68.6792 320.927 65.1847 322.759Z" fill="#C9DAF0"/>
<path fill-rule="evenodd" clip-rule="evenodd" d="M51.4192 310.822C46.0689 313.397 24.996 315.411 22.7401 308.588C19.9605 300.18 47.304 307.649 50.8207 308.351C54.8523 309.154 54.4211 309.378 51.4192 310.822Z" fill="#C9DAF0"/>
<path fill-rule="evenodd" clip-rule="evenodd" d="M38.7322 298.954C33.7723 300.803 14.8539 301.021 13.3645 294.932C11.5301 287.429 35.3088 295.9 38.3872 296.764C41.9155 297.754 41.5145 297.917 38.7322 298.954Z" fill="#C9DAF0"/>
<path fill-rule="evenodd" clip-rule="evenodd" d="M29.6714 287.861C25.774 289.224 11.0126 289.124 9.94203 284.379C8.62336 278.532 27.0474 285.443 29.4357 286.157C32.1735 286.975 31.8579 287.096 29.6714 287.861Z" fill="#C9DAF0"/>
<path fill-rule="evenodd" clip-rule="evenodd" d="M20.3473 276.209C17.1498 277.404 4.9501 277.557 3.98622 273.631C2.79826 268.792 18.1377 274.242 20.1232 274.797C22.3995 275.433 22.1417 275.539 20.3473 276.209Z" fill="#C9DAF0"/>
<path fill-rule="evenodd" clip-rule="evenodd" d="M12.3722 266.144C10.0025 266.903 1.10615 266.633 0.532622 263.778C-0.174283 260.261 10.8268 264.659 12.2557 265.122C13.8936 265.65 13.7015 265.718 12.3722 266.144Z" fill="#C9DAF0"/>
<path fill-rule="evenodd" clip-rule="evenodd" d="M88.0128 329.146C90.6644 322.433 91.0574 296.8 82.3958 294.756C71.722 292.238 83.6798 324.495 84.8971 328.671C86.2914 333.456 86.5243 332.913 88.0128 329.146Z" fill="#C9DAF0"/>
<path fill-rule="evenodd" clip-rule="evenodd" d="M82.8787 336.095C77.2759 339.555 54.3313 343.992 51.1168 336.511C47.1564 327.293 78.0139 332.93 81.9548 333.362C86.4728 333.857 86.0229 334.154 82.8787 336.095Z" fill="#C9DAF0"/>
<path fill-rule="evenodd" clip-rule="evenodd" d="M101.719 339.589C105.046 333.853 108.622 310.79 100.754 307.915C91.0601 304.373 98.2367 334.88 98.8556 338.788C99.5652 343.269 99.8524 342.806 101.719 339.589Z" fill="#C9DAF0"/>
<path fill-rule="evenodd" clip-rule="evenodd" d="M98.5106 344.437C93.468 349.191 70.9342 358.196 66.2091 350.742C60.3867 341.558 92.9381 341.931 97.0399 341.668C101.74 341.367 101.339 341.77 98.5106 344.437Z" fill="#C9DAF0"/>
<path d="M166.35 368.332C239.26 368.332 298.365 360.752 298.365 351.4C298.365 342.049 239.26 334.468 166.35 334.468C93.4395 334.468 34.3343 342.049 34.3343 351.4C34.3343 360.752 93.4395 368.332 166.35 368.332Z" fill="#C9DAF0"/>
<path fill-rule="evenodd" clip-rule="evenodd" d="M212.116 93.8968C211.528 97.3689 207.243 102.209 206.946 105.35C205.972 115.662 214.456 125.254 228.328 124.197C247.917 122.703 255.768 122.82 257.95 110.985C259.714 101.415 254.894 99.2744 254.653 92.8138C254.514 89.0847 255.208 86.4154 252.955 81.5259C246.459 67.4292 226.119 67.1465 220.845 73.5787C219.459 75.2698 215.472 75.1756 212.985 80.3727C210.87 84.7891 213.018 88.5761 212.116 93.8968Z" fill="#002E6C"/>
<path fill-rule="evenodd" clip-rule="evenodd" d="M230.817 189.02C225.684 194.16 214.255 195.596 208.389 194.524C209.745 179.033 211.663 172.557 230.817 189.02Z" fill="white"/>
<path fill-rule="evenodd" clip-rule="evenodd" d="M226.891 348.113C221.156 351.834 206.36 353.747 199.209 352.361C195.205 351.585 194.937 345.806 200.191 343.584C209.257 339.748 217.716 337.07 227.352 334.976C228.194 339.619 229.435 346.462 226.891 348.113Z" fill="#184F96"/>
<path fill-rule="evenodd" clip-rule="evenodd" d="M217.482 337.383C202.652 341.475 226.995 346.634 227.674 337.773C226.785 294.325 229.898 296.288 228.167 264.352C227.43 250.758 209.292 251.615 209.802 266.354C210.812 295.531 220.213 321.725 217.482 337.383Z" fill="#BA8B80"/>
<path fill-rule="evenodd" clip-rule="evenodd" d="M254.33 354.225C250.445 357.766 234.18 360.673 226.973 359.617C222.937 359.025 222.707 353.365 227.854 350.903C236.735 346.656 244.759 343.492 254.289 340.959C255.343 345.557 256.573 352.182 254.33 354.225Z" fill="#184F96"/>
<path fill-rule="evenodd" clip-rule="evenodd" d="M254.702 342.635C253.082 312.076 255.364 294.19 253.904 270.426C253.069 256.807 233.781 257.395 234.972 272.106C237.037 297.64 244.553 327.834 244.79 343.721C230.791 348.56 252.496 352.076 254.702 342.635Z" fill="#BA8B80"/>
<path fill-rule="evenodd" clip-rule="evenodd" d="M262.438 275.337C259.998 245.949 265.342 207.7 250.443 184.882C236.495 178.922 218.99 180.78 211.07 180.685C200.866 209.326 205.517 250.146 203.547 276.589C211.632 278.127 252.799 285.165 262.438 275.337Z" fill="#F08156"/>
<mask id="mask0_1280_7692" style="mask-type:luminance" maskUnits="userSpaceOnUse" x="203" y="180" width="60" height="101">
<path d="M262.438 275.337C259.998 245.949 265.342 207.7 250.443 184.882C236.495 178.922 218.99 180.78 211.07 180.685C200.866 209.326 205.517 250.146 203.547 276.589C211.632 278.127 252.799 285.165 262.438 275.337Z" fill="white"/>
</mask>
<g mask="url(#mask0_1280_7692)">
<g opacity="0.5">
<path opacity="0.4" fill-rule="evenodd" clip-rule="evenodd" d="M211.059 276.626C212.091 276.626 212.927 277.462 212.927 278.494C212.927 279.526 212.09 280.363 211.059 280.363C210.027 280.363 209.19 279.526 209.19 278.494C209.191 277.463 210.027 276.626 211.059 276.626Z" fill="white"/>
<path opacity="0.4" fill-rule="evenodd" clip-rule="evenodd" d="M222.025 276.626C223.058 276.626 223.894 277.462 223.894 278.494C223.894 279.526 223.058 280.363 222.025 280.363C220.994 280.363 220.156 279.526 220.156 278.494C220.157 277.463 220.994 276.626 222.025 276.626Z" fill="white"/>
<path opacity="0.4" fill-rule="evenodd" clip-rule="evenodd" d="M232.992 276.626C234.024 276.626 234.861 277.462 234.861 278.494C234.861 279.526 234.024 280.363 232.992 280.363C231.96 280.363 231.122 279.526 231.122 278.494C231.123 277.463 231.96 276.626 232.992 276.626Z" fill="white"/>
<path opacity="0.4" fill-rule="evenodd" clip-rule="evenodd" d="M243.958 276.626C244.99 276.626 245.827 277.462 245.827 278.494C245.827 279.526 244.99 280.363 243.958 280.363C242.926 280.363 242.09 279.526 242.09 278.494C242.09 277.463 242.926 276.626 243.958 276.626Z" fill="white"/>
<path opacity="0.4" fill-rule="evenodd" clip-rule="evenodd" d="M254.925 276.626C255.957 276.626 256.793 277.462 256.793 278.494C256.793 279.526 255.957 280.363 254.925 280.363C253.893 280.363 253.056 279.526 253.056 278.494C253.056 277.462 253.893 276.626 254.925 276.626Z" fill="white"/>
<path opacity="0.4" fill-rule="evenodd" clip-rule="evenodd" d="M205.576 268.653C206.608 268.653 207.444 269.49 207.444 270.522C207.444 271.555 206.608 272.391 205.576 272.391C204.544 272.391 203.707 271.554 203.707 270.522C203.707 269.491 204.544 268.653 205.576 268.653Z" fill="white"/>
<path opacity="0.4" fill-rule="evenodd" clip-rule="evenodd" d="M216.542 268.653C217.574 268.653 218.411 269.49 218.411 270.522C218.411 271.555 217.575 272.391 216.542 272.391C215.51 272.391 214.673 271.554 214.673 270.522C214.673 269.491 215.51 268.653 216.542 268.653Z" fill="white"/>
<path opacity="0.4" fill-rule="evenodd" clip-rule="evenodd" d="M227.509 268.653C228.54 268.653 229.378 269.49 229.378 270.522C229.378 271.555 228.541 272.391 227.509 272.391C226.476 272.391 225.64 271.554 225.64 270.522C225.64 269.491 226.476 268.653 227.509 268.653Z" fill="white"/>
<path opacity="0.4" fill-rule="evenodd" clip-rule="evenodd" d="M238.475 268.653C239.508 268.653 240.344 269.49 240.344 270.522C240.344 271.555 239.508 272.391 238.475 272.391C237.444 272.391 236.606 271.554 236.606 270.522C236.606 269.491 237.443 268.653 238.475 268.653Z" fill="white"/>
<path opacity="0.4" fill-rule="evenodd" clip-rule="evenodd" d="M249.442 268.653C250.474 268.653 251.311 269.49 251.311 270.522C251.311 271.555 250.474 272.391 249.442 272.391C248.41 272.391 247.573 271.554 247.573 270.522C247.573 269.491 248.409 268.653 249.442 268.653Z" fill="white"/>
<path opacity="0.4" fill-rule="evenodd" clip-rule="evenodd" d="M260.408 268.653C261.439 268.653 262.276 269.49 262.276 270.522C262.276 271.555 261.439 272.391 260.408 272.391C259.376 272.391 258.539 271.554 258.539 270.522C258.539 269.491 259.376 268.653 260.408 268.653Z" fill="white"/>
<path opacity="0.4" fill-rule="evenodd" clip-rule="evenodd" d="M211.059 260.429C212.091 260.429 212.927 261.265 212.927 262.297C212.927 263.328 212.09 264.166 211.059 264.166C210.027 264.166 209.19 263.329 209.19 262.297C209.191 261.265 210.027 260.429 211.059 260.429Z" fill="white"/>
<path opacity="0.4" fill-rule="evenodd" clip-rule="evenodd" d="M222.025 260.429C223.058 260.429 223.894 261.265 223.894 262.297C223.894 263.328 223.058 264.166 222.025 264.166C220.994 264.166 220.156 263.329 220.156 262.297C220.157 261.265 220.994 260.429 222.025 260.429Z" fill="white"/>
<path opacity="0.4" fill-rule="evenodd" clip-rule="evenodd" d="M232.992 260.429C234.024 260.429 234.861 261.265 234.861 262.297C234.861 263.328 234.024 264.166 232.992 264.166C231.96 264.166 231.122 263.329 231.122 262.297C231.123 261.265 231.96 260.429 232.992 260.429Z" fill="white"/>
<path opacity="0.4" fill-rule="evenodd" clip-rule="evenodd" d="M243.958 260.429C244.99 260.429 245.827 261.265 245.827 262.297C245.827 263.328 244.99 264.166 243.958 264.166C242.926 264.166 242.09 263.329 242.09 262.297C242.09 261.265 242.926 260.429 243.958 260.429Z" fill="white"/>
<path opacity="0.4" fill-rule="evenodd" clip-rule="evenodd" d="M254.925 260.429C255.957 260.429 256.793 261.265 256.793 262.297C256.793 263.329 255.957 264.166 254.925 264.166C253.893 264.166 253.056 263.329 253.056 262.297C253.056 261.265 253.893 260.429 254.925 260.429Z" fill="white"/>
<path opacity="0.4" fill-rule="evenodd" clip-rule="evenodd" d="M205.576 252.457C206.608 252.457 207.445 253.294 207.445 254.326C207.445 255.357 206.608 256.194 205.576 256.194C204.544 256.194 203.708 255.357 203.708 254.326C203.708 253.294 204.544 252.457 205.576 252.457Z" fill="white"/>
<path opacity="0.4" fill-rule="evenodd" clip-rule="evenodd" d="M216.542 252.457C217.574 252.457 218.411 253.294 218.411 254.326C218.411 255.357 217.575 256.194 216.542 256.194C215.51 256.194 214.673 255.357 214.673 254.326C214.673 253.294 215.51 252.457 216.542 252.457Z" fill="white"/>
<path opacity="0.4" fill-rule="evenodd" clip-rule="evenodd" d="M227.509 252.457C228.54 252.457 229.378 253.293 229.378 254.326C229.378 255.358 228.541 256.194 227.509 256.194C226.476 256.194 225.64 255.357 225.64 254.326C225.64 253.294 226.476 252.457 227.509 252.457Z" fill="white"/>
<path opacity="0.4" fill-rule="evenodd" clip-rule="evenodd" d="M238.475 252.457C239.508 252.457 240.344 253.293 240.344 254.326C240.344 255.358 239.508 256.194 238.475 256.194C237.444 256.194 236.606 255.357 236.606 254.326C236.606 253.294 237.443 252.457 238.475 252.457Z" fill="white"/>
<path opacity="0.4" fill-rule="evenodd" clip-rule="evenodd" d="M249.442 252.457C250.474 252.457 251.311 253.293 251.311 254.326C251.311 255.358 250.474 256.194 249.442 256.194C248.41 256.194 247.573 255.357 247.573 254.326C247.573 253.294 248.409 252.457 249.442 252.457Z" fill="white"/>
<path opacity="0.4" fill-rule="evenodd" clip-rule="evenodd" d="M260.408 252.457C261.439 252.457 262.276 253.293 262.276 254.326C262.276 255.358 261.439 256.194 260.408 256.194C259.376 256.194 258.539 255.357 258.539 254.326C258.539 253.294 259.376 252.457 260.408 252.457Z" fill="white"/>
<path opacity="0.4" fill-rule="evenodd" clip-rule="evenodd" d="M211.059 244.232C212.091 244.232 212.927 245.069 212.927 246.1C212.927 247.132 212.09 247.969 211.059 247.969C210.027 247.969 209.19 247.132 209.19 246.1C209.191 245.069 210.027 244.232 211.059 244.232Z" fill="white"/>
<path opacity="0.4" fill-rule="evenodd" clip-rule="evenodd" d="M222.025 244.232C223.058 244.232 223.894 245.069 223.894 246.1C223.894 247.132 223.058 247.969 222.025 247.969C220.994 247.969 220.156 247.132 220.156 246.1C220.157 245.069 220.994 244.232 222.025 244.232Z" fill="white"/>
<path opacity="0.4" fill-rule="evenodd" clip-rule="evenodd" d="M232.992 244.232C234.024 244.232 234.861 245.068 234.861 246.1C234.861 247.132 234.024 247.969 232.992 247.969C231.96 247.969 231.122 247.132 231.122 246.1C231.123 245.069 231.96 244.232 232.992 244.232Z" fill="white"/>
<path opacity="0.4" fill-rule="evenodd" clip-rule="evenodd" d="M243.958 244.232C244.99 244.232 245.827 245.068 245.827 246.1C245.827 247.132 244.99 247.969 243.958 247.969C242.926 247.969 242.09 247.132 242.09 246.1C242.09 245.068 242.926 244.232 243.958 244.232Z" fill="white"/>
<path opacity="0.4" fill-rule="evenodd" clip-rule="evenodd" d="M254.925 244.232C255.957 244.232 256.793 245.068 256.793 246.1C256.793 247.132 255.957 247.969 254.925 247.969C253.893 247.969 253.056 247.132 253.056 246.1C253.056 245.068 253.893 244.232 254.925 244.232Z" fill="white"/>
<path opacity="0.4" fill-rule="evenodd" clip-rule="evenodd" d="M205.576 236.261C206.608 236.261 207.445 237.097 207.445 238.129C207.445 239.16 206.608 239.998 205.576 239.998C204.544 239.998 203.708 239.161 203.708 238.129C203.708 237.096 204.544 236.261 205.576 236.261Z" fill="white"/>
<path opacity="0.4" fill-rule="evenodd" clip-rule="evenodd" d="M216.542 236.261C217.574 236.261 218.411 237.097 218.411 238.129C218.411 239.16 217.575 239.998 216.542 239.998C215.51 239.998 214.673 239.161 214.673 238.129C214.673 237.096 215.51 236.261 216.542 236.261Z" fill="white"/>
<path opacity="0.4" fill-rule="evenodd" clip-rule="evenodd" d="M227.509 236.261C228.54 236.261 229.378 237.097 229.378 238.129C229.378 239.16 228.541 239.998 227.509 239.998C226.476 239.998 225.64 239.161 225.64 238.129C225.64 237.096 226.476 236.261 227.509 236.261Z" fill="white"/>
<path opacity="0.4" fill-rule="evenodd" clip-rule="evenodd" d="M238.475 236.261C239.508 236.261 240.344 237.097 240.344 238.129C240.344 239.16 239.508 239.997 238.475 239.997C237.444 239.997 236.606 239.16 236.606 238.129C236.606 237.097 237.443 236.261 238.475 236.261Z" fill="white"/>
<path opacity="0.4" fill-rule="evenodd" clip-rule="evenodd" d="M249.442 236.261C250.473 236.261 251.311 237.096 251.311 238.129C251.311 239.16 250.474 239.997 249.442 239.997C248.409 239.997 247.573 239.16 247.573 238.129C247.573 237.097 248.409 236.261 249.442 236.261Z" fill="white"/>
<path opacity="0.4" fill-rule="evenodd" clip-rule="evenodd" d="M260.408 236.261C261.44 236.261 262.277 237.096 262.277 238.129C262.277 239.16 261.44 239.997 260.409 239.997C259.377 239.997 258.54 239.16 258.54 238.129C258.54 237.096 259.376 236.261 260.408 236.261Z" fill="white"/>
<path opacity="0.4" fill-rule="evenodd" clip-rule="evenodd" d="M211.059 228.035C212.091 228.035 212.927 228.872 212.927 229.904C212.927 230.935 212.09 231.772 211.059 231.772C210.026 231.772 209.19 230.935 209.19 229.904C209.191 228.872 210.027 228.035 211.059 228.035Z" fill="white"/>
<path opacity="0.4" fill-rule="evenodd" clip-rule="evenodd" d="M222.025 228.035C223.058 228.035 223.894 228.872 223.894 229.904C223.894 230.935 223.058 231.772 222.025 231.772C220.994 231.772 220.156 230.935 220.156 229.904C220.157 228.872 220.994 228.035 222.025 228.035Z" fill="white"/>
<path opacity="0.4" fill-rule="evenodd" clip-rule="evenodd" d="M232.992 228.035C234.024 228.035 234.861 228.872 234.861 229.904C234.861 230.935 234.024 231.772 232.992 231.772C231.96 231.772 231.122 230.935 231.122 229.904C231.123 228.872 231.96 228.035 232.992 228.035Z" fill="white"/>
<path opacity="0.4" fill-rule="evenodd" clip-rule="evenodd" d="M243.958 228.035C244.99 228.035 245.827 228.872 245.827 229.904C245.827 230.936 244.99 231.772 243.958 231.772C242.926 231.772 242.089 230.935 242.089 229.904C242.09 228.872 242.926 228.035 243.958 228.035Z" fill="white"/>
<path opacity="0.4" fill-rule="evenodd" clip-rule="evenodd" d="M254.924 228.035C255.957 228.035 256.793 228.872 256.793 229.904C256.793 230.936 255.957 231.772 254.924 231.772C253.893 231.772 253.056 230.935 253.056 229.904C253.056 228.872 253.893 228.035 254.924 228.035Z" fill="white"/>
<path opacity="0.4" fill-rule="evenodd" clip-rule="evenodd" d="M205.576 220.064C206.608 220.064 207.445 220.9 207.445 221.932C207.445 222.964 206.608 223.8 205.576 223.8C204.544 223.8 203.708 222.963 203.708 221.932C203.707 220.9 204.544 220.064 205.576 220.064Z" fill="white"/>
<path opacity="0.4" fill-rule="evenodd" clip-rule="evenodd" d="M216.542 220.064C217.574 220.064 218.411 220.9 218.411 221.932C218.411 222.964 217.575 223.8 216.542 223.8C215.51 223.8 214.673 222.963 214.673 221.932C214.673 220.9 215.51 220.064 216.542 220.064Z" fill="white"/>
<path opacity="0.4" fill-rule="evenodd" clip-rule="evenodd" d="M227.509 220.064C228.541 220.064 229.378 220.9 229.378 221.932C229.378 222.964 228.541 223.8 227.509 223.8C226.476 223.8 225.64 222.963 225.64 221.932C225.64 220.9 226.476 220.064 227.509 220.064Z" fill="white"/>
<path opacity="0.4" fill-rule="evenodd" clip-rule="evenodd" d="M238.475 220.064C239.508 220.064 240.343 220.9 240.343 221.932C240.343 222.964 239.507 223.8 238.475 223.8C237.444 223.8 236.606 222.963 236.606 221.932C236.606 220.9 237.443 220.064 238.475 220.064Z" fill="white"/>
<path opacity="0.4" d="M249.442 223.8C250.473 223.8 251.31 222.964 251.31 221.932C251.31 220.9 250.473 220.064 249.442 220.064C248.41 220.064 247.573 220.9 247.573 221.932C247.573 222.964 248.41 223.8 249.442 223.8Z" fill="white"/>
<path opacity="0.4" fill-rule="evenodd" clip-rule="evenodd" d="M260.408 220.064C261.44 220.064 262.277 220.9 262.277 221.932C262.277 222.964 261.44 223.801 260.408 223.801C259.377 223.801 258.54 222.964 258.54 221.932C258.54 220.9 259.376 220.064 260.408 220.064Z" fill="white"/>
<path opacity="0.4" fill-rule="evenodd" clip-rule="evenodd" d="M211.059 211.838C212.091 211.838 212.927 212.675 212.927 213.707C212.927 214.739 212.09 215.575 211.059 215.575C210.026 215.575 209.19 214.739 209.19 213.707C209.191 212.676 210.027 211.838 211.059 211.838Z" fill="white"/>
<path opacity="0.4" fill-rule="evenodd" clip-rule="evenodd" d="M222.025 211.838C223.058 211.838 223.894 212.675 223.894 213.707C223.894 214.739 223.058 215.575 222.025 215.575C220.994 215.575 220.156 214.739 220.156 213.707C220.157 212.675 220.994 211.838 222.025 211.838Z" fill="white"/>
<path opacity="0.4" fill-rule="evenodd" clip-rule="evenodd" d="M232.992 211.838C234.024 211.838 234.861 212.675 234.861 213.707C234.861 214.739 234.024 215.575 232.992 215.575C231.959 215.575 231.122 214.739 231.122 213.707C231.123 212.675 231.96 211.838 232.992 211.838Z" fill="white"/>
<path opacity="0.4" fill-rule="evenodd" clip-rule="evenodd" d="M243.958 211.838C244.99 211.838 245.827 212.675 245.827 213.707C245.827 214.739 244.99 215.575 243.958 215.575C242.926 215.575 242.089 214.739 242.089 213.707C242.09 212.675 242.926 211.838 243.958 211.838Z" fill="white"/>
<path opacity="0.4" fill-rule="evenodd" clip-rule="evenodd" d="M254.924 211.838C255.957 211.838 256.793 212.675 256.793 213.707C256.793 214.739 255.957 215.575 254.924 215.575C253.893 215.575 253.056 214.739 253.056 213.707C253.056 212.675 253.893 211.838 254.924 211.838Z" fill="white"/>
<path opacity="0.4" fill-rule="evenodd" clip-rule="evenodd" d="M205.576 203.867C206.608 203.867 207.444 204.704 207.444 205.735C207.444 206.767 206.608 207.604 205.576 207.604C204.544 207.604 203.708 206.767 203.708 205.735C203.707 204.703 204.544 203.867 205.576 203.867Z" fill="white"/>
<path opacity="0.4" fill-rule="evenodd" clip-rule="evenodd" d="M216.542 203.867C217.574 203.867 218.411 204.704 218.411 205.735C218.411 206.767 217.575 207.603 216.542 207.603C215.51 207.603 214.673 206.766 214.673 205.735C214.673 204.703 215.51 203.867 216.542 203.867Z" fill="white"/>
<path opacity="0.4" fill-rule="evenodd" clip-rule="evenodd" d="M227.509 203.867C228.541 203.867 229.378 204.704 229.378 205.735C229.378 206.767 228.541 207.603 227.509 207.603C226.477 207.603 225.641 206.766 225.641 205.735C225.64 204.703 226.477 203.867 227.509 203.867Z" fill="white"/>
<path opacity="0.4" fill-rule="evenodd" clip-rule="evenodd" d="M238.475 203.867C239.508 203.867 240.343 204.703 240.343 205.735C240.343 206.767 239.507 207.603 238.475 207.603C237.443 207.603 236.606 206.766 236.606 205.735C236.606 204.704 237.443 203.867 238.475 203.867Z" fill="white"/>
<path opacity="0.4" d="M249.442 207.603C250.473 207.603 251.31 206.767 251.31 205.735C251.31 204.703 250.473 203.867 249.442 203.867C248.41 203.867 247.573 204.703 247.573 205.735C247.573 206.767 248.41 207.603 249.442 207.603Z" fill="white"/>
<path opacity="0.4" fill-rule="evenodd" clip-rule="evenodd" d="M260.408 203.867C261.44 203.867 262.277 204.703 262.277 205.735C262.277 206.767 261.44 207.603 260.408 207.603C259.377 207.603 258.54 206.766 258.54 205.735C258.54 204.703 259.376 203.867 260.408 203.867Z" fill="white"/>
<path opacity="0.4" fill-rule="evenodd" clip-rule="evenodd" d="M211.059 195.641C212.091 195.641 212.927 196.478 212.927 197.51C212.927 198.542 212.09 199.378 211.059 199.378C210.026 199.378 209.19 198.542 209.19 197.51C209.191 196.478 210.027 195.641 211.059 195.641Z" fill="white"/>
<path opacity="0.4" fill-rule="evenodd" clip-rule="evenodd" d="M222.025 195.641C223.058 195.641 223.894 196.478 223.894 197.51C223.894 198.542 223.058 199.378 222.025 199.378C220.994 199.378 220.156 198.542 220.156 197.51C220.157 196.478 220.994 195.641 222.025 195.641Z" fill="white"/>
<path opacity="0.4" fill-rule="evenodd" clip-rule="evenodd" d="M232.992 195.641C234.024 195.641 234.861 196.478 234.861 197.51C234.861 198.542 234.024 199.378 232.992 199.378C231.959 199.378 231.122 198.542 231.122 197.51C231.123 196.478 231.96 195.641 232.992 195.641Z" fill="white"/>
<path opacity="0.4" fill-rule="evenodd" clip-rule="evenodd" d="M243.958 195.641C244.99 195.641 245.827 196.478 245.827 197.51C245.827 198.542 244.99 199.378 243.958 199.378C242.926 199.378 242.089 198.542 242.089 197.51C242.09 196.478 242.926 195.641 243.958 195.641Z" fill="white"/>
<path opacity="0.4" fill-rule="evenodd" clip-rule="evenodd" d="M254.924 195.641C255.957 195.641 256.793 196.478 256.793 197.51C256.793 198.542 255.957 199.378 254.924 199.378C253.893 199.378 253.056 198.542 253.056 197.51C253.056 196.478 253.893 195.641 254.924 195.641Z" fill="white"/>
</g>
</g>
<path fill-rule="evenodd" clip-rule="evenodd" d="M132.105 116.537C137.454 129.657 139.452 139.217 141.137 151.234C142.366 160.001 133.963 161.495 129.398 155.223C121.808 144.791 117.93 134.794 114.171 123.312C109.699 109.647 126.977 103.957 132.105 116.537Z" fill="#F08156"/>
<path fill-rule="evenodd" clip-rule="evenodd" d="M126.7 124.921C130.355 132.476 130.477 139.421 130.233 145.512C129.99 151.604 119.145 147.95 119.145 147.95C119.145 147.95 119.999 131.136 126.7 124.921Z" fill="#F08156"/>
<path fill-rule="evenodd" clip-rule="evenodd" d="M209.778 123.071C202.22 129.685 189.209 141.596 182.933 149.443C177.91 155.724 185.585 161.163 192.289 156.714C203.711 149.132 213.934 143.916 224.012 132.466C232.64 122.662 218.956 115.037 209.778 123.071Z" fill="#184F96"/>
<path fill-rule="evenodd" clip-rule="evenodd" d="M204.846 148.625C210.16 144.833 214.271 141.9 218.784 137.755C217.564 132.96 216.165 129.813 213.721 126.146C208.33 135.72 206.098 140.191 204.846 148.625Z" fill="#002E6C"/>
<path fill-rule="evenodd" clip-rule="evenodd" d="M206.103 196.264C199.554 194.305 213.964 169.433 212.025 163.219C210.893 159.589 205.958 153.166 206.623 147.198C207.099 142.915 209.289 134.446 214.133 120.422C225.265 117.659 236.562 116.159 254.42 122.641C258.232 143.221 250.427 154.337 250.84 170.543C251.016 177.424 260.525 189.851 256.021 193.613C245.486 202.41 219.665 200.324 206.103 196.264Z" fill="#184F96"/>
<path fill-rule="evenodd" clip-rule="evenodd" d="M222.732 118.675C226.948 117.691 230.701 117.176 237.751 118.307C235.982 123.135 228.822 130.012 224.488 132.436C223.374 128.916 222.528 122.858 222.732 118.675Z" fill="#BA8B80"/>
<path fill-rule="evenodd" clip-rule="evenodd" d="M224.133 105.049L236.119 105.093L236.065 119.476C236.043 125.454 224.059 125.053 224.08 119.432L224.133 105.049Z" fill="#BA8B80"/>
<path fill-rule="evenodd" clip-rule="evenodd" d="M253.313 148.37C255.428 155.98 260.593 162.083 265.025 167.706C270.002 174.021 276.982 174.319 275.291 166.454C272.286 152.465 264.368 129.795 256.242 123.641C249.418 118.475 249.869 135.977 253.313 148.37Z" fill="#184F96"/>
<path fill-rule="evenodd" clip-rule="evenodd" d="M224.109 111.397L236.095 111.442L236.068 118.748C233.009 120.658 226.524 120.164 224.098 114.668L224.109 111.397Z" fill="#947169"/>
<path fill-rule="evenodd" clip-rule="evenodd" d="M233.042 75.0226C210.061 71.6909 209.879 113.697 226.935 114.996C245.172 116.385 258.02 78.6441 233.042 75.0226Z" fill="#BA8B80"/>
<path fill-rule="evenodd" clip-rule="evenodd" d="M220.349 92.1575C221.004 92.2242 221.477 92.8253 221.408 93.5002C221.339 94.1742 220.753 94.6668 220.098 94.6001C219.444 94.5325 218.97 93.9323 219.038 93.2574C219.109 92.5826 219.696 92.0909 220.349 92.1575Z" fill="#00204A"/>
<path fill-rule="evenodd" clip-rule="evenodd" d="M231.856 93.4432C232.511 93.5099 232.985 94.111 232.915 94.7858C232.846 95.4598 232.26 95.9524 231.605 95.8857C230.951 95.819 230.477 95.218 230.545 94.5431C230.616 93.8682 231.202 93.3756 231.856 93.4432Z" fill="#00204A"/>
<path fill-rule="evenodd" clip-rule="evenodd" d="M225.466 101.626C222.773 100.573 223.707 98.8218 224.807 96.5038C222.714 98.1798 221.369 100.98 225.466 101.626Z" fill="#947169"/>
<path fill-rule="evenodd" clip-rule="evenodd" d="M220.628 103.46C222.982 103.541 226.57 103.861 231.317 104.353C228.893 110.423 221.884 109.132 220.628 103.46Z" fill="#947169"/>
<path fill-rule="evenodd" clip-rule="evenodd" d="M242.081 89.2278C241.907 94.7717 244.333 98.756 246.065 99.1028C247.798 99.4486 249.704 89.7471 242.081 89.2278Z" fill="#002E6C"/>
<path fill-rule="evenodd" clip-rule="evenodd" d="M248.054 95.4411C247.075 95.0802 245.652 96.4904 244.877 98.5914C244.103 100.693 244.27 102.689 245.251 103.05C246.232 103.411 247.654 102 248.428 99.9003C249.202 97.7983 249.035 95.8021 248.054 95.4411Z" fill="#BA8B80"/>
<path fill-rule="evenodd" clip-rule="evenodd" d="M230.918 90.5206C230.07 90.5509 229.66 89.4723 230.726 89.2598C232.264 88.9539 235.236 89.7738 236.08 90.7154C236.615 91.3129 236.211 91.8437 235.481 91.5076C234.234 90.9323 231.505 90.5002 230.918 90.5206Z" fill="#002E6C"/>
<path fill-rule="evenodd" clip-rule="evenodd" d="M223.052 89.707C223.798 89.9569 224.435 89.0108 223.538 88.5369C222.244 87.854 219.745 87.8602 218.407 88.6205C217.745 88.9966 218.015 89.6955 218.741 89.5123C219.762 89.2544 222.324 89.4634 223.052 89.707Z" fill="#002E6C"/>
<path fill-rule="evenodd" clip-rule="evenodd" d="M105.024 347.766C111.128 351.727 126.879 353.763 134.492 352.289C138.754 351.463 139.039 345.312 133.446 342.945C123.795 338.862 114.79 336.011 104.532 333.782C103.637 338.723 102.315 346.008 105.024 347.766Z" fill="#002E6C"/>
<path fill-rule="evenodd" clip-rule="evenodd" d="M123.762 339.401C119.996 341.241 107.995 341.83 103.017 338.26C100.964 296.211 102.884 283.912 104.145 261.418C104.913 247.712 124.661 249.552 124.117 264.272C123.031 293.642 124.816 328.743 123.762 339.401Z" fill="#4F91E8"/>
<path fill-rule="evenodd" clip-rule="evenodd" d="M102.257 178.2C103.883 188.608 104.534 200.257 102.322 211.412C100.788 229.961 96.0564 251.561 94.5243 270.11C93.7605 279.355 73.8889 279.513 73.88 268.253C73.8543 238.887 69.0864 210.084 74.8786 177.011C82.8938 177.01 94.2407 178.2 102.257 178.2Z" fill="#4F91E8"/>
<path d="M94.375 189.197C92.2382 192.464 85.5764 197.994 82.9373 199.754" stroke="#66A1ED" stroke-width="1.9199" stroke-miterlimit="22.9256" stroke-linecap="round" stroke-linejoin="round"/>
<path fill-rule="evenodd" clip-rule="evenodd" d="M99.3589 178.2C97.7326 188.608 97.4596 203.662 99.6728 214.818C100.899 233.465 103.261 247.949 104.487 266.597C105.096 275.852 123.885 276.899 123.925 265.638C124.028 236.267 126.55 211.046 124.463 177.92C116.095 178.014 107.727 178.107 99.3589 178.2Z" fill="#4F91E8"/>
<mask id="mask1_1280_7692" style="mask-type:luminance" maskUnits="userSpaceOnUse" x="98" y="177" width="28" height="97">
<path d="M99.3589 178.2C97.7326 188.608 97.4596 203.662 99.6728 214.818C100.899 233.465 103.261 247.949 104.487 266.597C105.096 275.852 123.885 276.899 123.925 265.638C124.028 236.267 126.55 211.046 124.463 177.92C116.095 178.014 107.727 178.107 99.3589 178.2Z" fill="white"/>
</mask>
<g mask="url(#mask1_1280_7692)">
<path d="M117.125 186.557C119.262 189.825 125.923 195.355 128.563 197.115" stroke="#66A1ED" stroke-width="1.9199" stroke-miterlimit="22.9256" stroke-linecap="round" stroke-linejoin="round"/>
</g>
<path d="M107.996 188.55C107.812 192.593 108.364 201.691 106.526 201.967C104.688 202.242 102.483 202.334 102.483 202.334" stroke="#66A1ED" stroke-width="1.9199" stroke-miterlimit="22.9256" stroke-linecap="round" stroke-linejoin="round"/>
<path d="M101.088 225.716C103.625 240.937 106.444 256.158 107.009 263.206C107.572 270.252 103.626 310.278 105.599 333.956" stroke="#66A1ED" stroke-width="1.9199" stroke-miterlimit="22.9256" stroke-linecap="round" stroke-linejoin="round"/>
<path opacity="0.5" fill-rule="evenodd" clip-rule="evenodd" d="M101.804 238.15C103.447 228.427 104.692 219.263 103.841 202.582C102.845 212.481 101.411 221.83 100.385 227.838C100.836 230.595 101.348 233.918 101.804 238.15Z" fill="#1F4C87"/>
<path fill-rule="evenodd" clip-rule="evenodd" d="M72.1381 352.729C77.9686 357.084 93.5507 360.153 101.244 359.183C105.551 358.64 106.241 352.52 100.815 349.791C91.454 345.081 82.6572 341.642 72.5685 338.743C71.3494 343.615 69.5515 350.797 72.1381 352.729Z" fill="#002E6C"/>
<path fill-rule="evenodd" clip-rule="evenodd" d="M90.4884 344.659C86.3109 347.489 77.8779 347.787 69.9232 344.214C68.6125 310.74 72.7055 284.469 74.8751 261.975C76.1973 248.268 96.4539 248.25 95.3291 263.093C93.0857 292.697 91.9724 334.001 90.4884 344.659Z" fill="#4F91E8"/>
<path d="M81.6382 185.126C77.9739 206.266 77.4102 262.359 76.2827 271.379C75.1552 280.398 72.9002 331.417 73.1821 339.591" stroke="#66A1ED" stroke-width="1.9199" stroke-miterlimit="22.9256" stroke-linecap="round" stroke-linejoin="round"/>
<path fill-rule="evenodd" clip-rule="evenodd" d="M127.235 146.27C130.159 146.392 134.482 146.114 135.945 147.454C137.406 148.794 133.726 142.556 127.242 143.152C125.902 143.884 125.651 145.295 127.235 146.27Z" fill="#E07348"/>
<path fill-rule="evenodd" clip-rule="evenodd" d="M129.062 111.577C130.222 129.402 128.08 143.516 126.394 155.805C125.031 165.749 129.63 173.643 126.976 187.981C109.231 194.852 89.6516 195.249 72.2609 186.696C69.1211 182.137 77.3781 170.598 77.2119 159.642C77.0082 146.293 67.5499 130.451 68.817 112.462C87.3886 100.578 122.004 104.819 129.062 111.577Z" fill="#FFA37F"/>
<path fill-rule="evenodd" clip-rule="evenodd" d="M85.0091 151.36C80.2333 149.673 76.1955 147.692 76.9095 146.662C78.0059 145.077 84.9531 149.036 88.6761 149.039C87.4313 148.37 85.3764 147.128 85.708 146.306C86.8533 143.473 100.169 153.188 98.7204 157.045C96.3018 163.483 75.3436 157.362 76.1395 154.734C76.4213 153.804 78.2904 155.391 82.7755 155.834C78.4113 154.722 73.5662 153.257 74.2651 151.494C74.6527 150.516 80.5152 153.224 84.0399 153.73C80.3071 152.289 73.5493 149.948 74.2615 148.813C75.1872 147.334 81.0229 150.756 85.0091 151.36Z" fill="#FBC9BE"/>
<path fill-rule="evenodd" clip-rule="evenodd" d="M100.108 76.6907C104.602 76.544 108.397 80.0313 108.542 84.4406L109.286 107.193C109.408 110.946 111.042 117.79 105.514 118.343C97.3529 119.16 93.0883 112.137 92.9443 107.728L92.2 84.975C92.0551 80.5657 95.6145 76.8383 100.108 76.6907Z" fill="#FBC9BE"/>
<path fill-rule="evenodd" clip-rule="evenodd" d="M109.152 103.122L92.5477 95.6138L92.9434 107.727C97.6561 110.121 105.927 108.843 109.152 103.122Z" fill="#D9ABA1"/>
<path fill-rule="evenodd" clip-rule="evenodd" d="M93.9651 57.821C108.67 53.7007 115.218 66.9563 116.865 80.4697C118.188 91.3218 117.759 101.405 110.662 104.276C101.976 107.791 88.7704 102.061 85.54 94.2925C79.939 80.8262 78.0859 62.2704 93.9651 57.821Z" fill="#FBC9BE"/>
<path fill-rule="evenodd" clip-rule="evenodd" d="M106.594 75.428C105.419 75.7535 104.73 74.2241 105.846 73.7297C107.953 72.7961 110.785 72.5285 112.751 73.9316C113.742 74.6385 113.165 75.7126 112.018 75.3071C110.578 74.8003 108.052 75.0243 106.594 75.428Z" fill="#233147"/>
<path fill-rule="evenodd" clip-rule="evenodd" d="M103.934 91.3903C107.478 90.4424 106.548 88.1031 105.49 85.0275C107.89 87.4362 109.191 91.1555 103.934 91.3903Z" fill="#D9ABA1"/>
<path fill-rule="evenodd" clip-rule="evenodd" d="M112.424 90.8807C109.81 92.5586 104.292 94.3155 98.8121 94.1599C102.118 96.3055 111.181 94.0933 112.424 90.8807Z" fill="#D9ABA1"/>
<path fill-rule="evenodd" clip-rule="evenodd" d="M98.5595 75.5562C99.7795 75.5766 99.7421 77.2598 98.531 77.4118C97.4969 77.5407 95.1912 78.2521 93.3515 79.4649C92.3369 80.1344 91.6407 79.4684 92.2774 78.4317C93.5427 76.3733 96.2556 75.5179 98.5595 75.5562Z" fill="#233147"/>
<path fill-rule="evenodd" clip-rule="evenodd" d="M110.139 94.8953C108.262 95.5755 105.528 96.4291 103.426 96.7758C104.728 97.9717 109.683 96.7794 110.139 94.8953Z" fill="#D9ABA1"/>
<path fill-rule="evenodd" clip-rule="evenodd" d="M97.8748 82.6605C98.5613 82.4685 99.2788 82.8855 99.4771 83.5933C99.6754 84.301 99.2797 85.031 98.5933 85.2231C97.9068 85.4151 97.1893 84.9981 96.991 84.2904C96.7927 83.5826 97.1884 82.8526 97.8748 82.6605Z" fill="#00204A"/>
<path fill-rule="evenodd" clip-rule="evenodd" d="M109.73 79.6462C110.416 79.4542 111.134 79.8712 111.332 80.579C111.53 81.2867 111.134 82.0158 110.448 82.2088C109.762 82.4017 109.044 81.9838 108.846 81.2761C108.647 80.5674 109.043 79.8383 109.73 79.6462Z" fill="#00204A"/>
<path fill-rule="evenodd" clip-rule="evenodd" d="M101.423 153.44C104.467 161.747 96.2716 165.845 90.3007 160.897C79.0951 151.612 72.4396 142.158 66.859 131.192C57.1339 112.082 74.8893 101.004 87.9888 126.124C93.7027 137.081 95.9906 138.62 101.423 153.44Z" fill="#F08156"/>
<path fill-rule="evenodd" clip-rule="evenodd" d="M93.9793 136.613C91.6639 138.928 88.8069 146 89.1724 152.701C93.4369 149.411 96.4966 140.983 96.4966 140.983L93.9793 136.613Z" fill="#E07348"/>
<path opacity="0.08" fill-rule="evenodd" clip-rule="evenodd" d="M232.917 97.4997C234.983 97.9531 236.471 99.2949 236.24 100.495C236.008 101.696 234.144 102.301 232.077 101.847C230.011 101.393 228.522 100.052 228.755 98.8512C228.987 97.6508 230.85 97.0453 232.917 97.4997Z" fill="#FF5765"/>
<path opacity="0.08" fill-rule="evenodd" clip-rule="evenodd" d="M218.864 96.341C216.919 96.4326 215.347 97.4969 215.349 98.7186C215.352 99.9394 216.931 100.856 218.875 100.765C220.819 100.673 222.392 99.6087 222.389 98.387C222.387 97.1662 220.808 96.2503 218.864 96.341Z" fill="#FF5765"/>
<path opacity="0.08" fill-rule="evenodd" clip-rule="evenodd" d="M111.856 83.1264C113.927 82.8641 115.753 83.6181 115.934 84.8096C116.116 86.0011 114.584 87.1801 112.514 87.4424C110.444 87.7047 108.618 86.9507 108.437 85.7583C108.255 84.5669 109.787 83.3887 111.856 83.1264Z" fill="#FF5765"/>
<path opacity="0.08" fill-rule="evenodd" clip-rule="evenodd" d="M96.5668 87.5304C94.5946 88.2115 93.291 89.6955 93.6556 90.8443C94.0202 91.9931 95.915 92.3727 97.8873 91.6916C99.8595 91.0105 101.164 89.5265 100.798 88.3769C100.435 87.229 98.539 86.8493 96.5668 87.5304Z" fill="#FF5765"/>
<path fill-rule="evenodd" clip-rule="evenodd" d="M167.638 125.286C167.384 127.014 169.56 128.765 170.287 130.608C174.406 141.046 177.421 147.983 181.778 155.503C185.734 162.33 194.837 156.146 192.261 148.679C189.081 139.462 183.716 132.969 179.358 124.753C178.576 123.279 178.749 120.501 177.266 119.998C173.935 118.868 168.07 122.357 167.638 125.286Z" fill="#184F96"/>
<path fill-rule="evenodd" clip-rule="evenodd" d="M285.215 136.051C287.392 138.731 284.213 144.719 283.46 148.619C282.077 155.786 280.971 162.212 277.531 169.027C273.894 176.231 264.196 171.676 266.205 163.887C267.944 157.142 270.109 151.471 272.183 145.575C273.534 141.735 272.696 134.418 277.301 133.148C279.839 132.447 283.014 133.342 285.215 136.051Z" fill="#184F96"/>
<path fill-rule="evenodd" clip-rule="evenodd" d="M222.12 103.697C224.018 103.812 226.466 104.029 229.441 104.327C229.22 105.554 221.865 104.734 222.12 103.697Z" fill="white"/>
<path fill-rule="evenodd" clip-rule="evenodd" d="M93.0341 147.588C102.195 147.323 129.618 145.124 135.39 146.979C143.817 149.687 142.275 160.033 133.493 161.153C128.424 161.799 102.322 161.75 92.0089 160.095C91.2148 155.682 91.6621 151.028 93.0341 147.588Z" fill="#F08156"/>
<path fill-rule="evenodd" clip-rule="evenodd" d="M110.172 146.642C108.86 151.455 105.306 157.72 101.04 160.891C98.7098 149.996 99.7092 146.484 110.172 146.642Z" fill="#E07348"/>
<path fill-rule="evenodd" clip-rule="evenodd" d="M124.418 339.269C120.653 341.11 107.631 342.118 102.653 338.548C102.503 335.479 102.376 332.572 102.266 329.803C107.78 332.559 120.379 331.727 124.755 330.188C124.726 334.03 124.628 337.139 124.418 339.269Z" fill="#66A1ED"/>
<path fill-rule="evenodd" clip-rule="evenodd" d="M91.1552 345.284C87.3904 347.125 74.3682 348.133 69.3906 344.563C69.2403 341.494 69.3248 338.658 69.2154 335.89C74.7301 338.645 87.1165 337.744 91.4922 336.204C91.4629 340.045 91.366 343.154 91.1552 345.284Z" fill="#66A1ED"/>
<path fill-rule="evenodd" clip-rule="evenodd" d="M189.508 142.116C192.452 145.614 193.889 149.51 194.748 152.705C195.543 148.029 193.568 144.194 189.508 142.116Z" fill="#002E6C"/>
<path fill-rule="evenodd" clip-rule="evenodd" d="M270.421 150.532C267.639 154.159 266.917 160.656 266.205 163.887C264.421 159.252 266.46 152.792 270.421 150.532Z" fill="#002E6C"/>
<path fill-rule="evenodd" clip-rule="evenodd" d="M251.392 140.719C251.606 142.487 252.573 146.393 253.654 149.505C253.446 150.551 253.339 151.061 253.125 152.093C251.193 149.129 250.79 144.466 251.392 140.719Z" fill="#002E6C"/>
<path fill-rule="evenodd" clip-rule="evenodd" d="M220.945 74.8484C218.866 83.3371 239.136 96.3313 250.224 95.291C261.311 94.2515 246.065 67.7458 220.945 74.8484Z" fill="#002E6C"/>
<path fill-rule="evenodd" clip-rule="evenodd" d="M215.254 90.8665C217.233 84.0876 221.08 80.2909 226.424 78.5312C226.088 76.472 224.345 74.0757 224.345 74.0757C224.345 74.0757 215.152 78.2796 215.254 90.8665Z" fill="#002E6C"/>
<path fill-rule="evenodd" clip-rule="evenodd" d="M83.4122 64.5297C96.5962 76.6151 104.533 65.7185 111.594 68.3317C115.948 69.9429 116.039 76.7432 116.936 80.7559C117.902 78.7198 119.571 69.998 117.069 67.4684C114.324 64.6933 119.554 55.3074 107.667 56.5211C102.781 57.019 88.6299 48.2332 83.4122 64.5297Z" fill="#184F96"/>
<path fill-rule="evenodd" clip-rule="evenodd" d="M88.9945 60.8975C93.0136 68.3637 89.8792 71.8625 86.4319 74.827C83.0858 77.7043 90.0953 88.1092 83.4726 89.2322C80.9607 85.5529 73.8 72.244 78.6986 69.5098C81.2559 68.0836 77.676 59.2463 88.9945 60.8975Z" fill="#184F96"/>
<path fill-rule="evenodd" clip-rule="evenodd" d="M113.377 67.4861C107.356 59.9878 93.3755 72.982 86.7128 61.9875C94.4221 49.6069 107.041 62.024 110.615 58.5287C107.38 63.2164 93.5356 57.1363 89.0114 61.7581C92.0524 65.6749 111.106 57.6413 113.377 67.4861Z" fill="#2F69B5"/>
<path fill-rule="evenodd" clip-rule="evenodd" d="M86.9565 61.7448C80.0359 62.3494 83.3001 67.6879 80.6104 69.6921C83.2886 69.2013 85.3426 62.2294 88.5472 63.1159C88.67 62.5024 88.6006 61.599 86.9565 61.7448Z" fill="#2F69B5"/>
<path fill-rule="evenodd" clip-rule="evenodd" d="M81.231 84.613C82.2865 84.0787 84.0702 85.48 85.2155 87.7429C86.3599 90.0049 86.4319 92.2722 85.3764 92.8057C84.321 93.3401 82.5373 91.9388 81.392 89.6768C80.2467 87.4139 80.1747 85.1474 81.231 84.613Z" fill="#FBC9BE"/>
<path fill-rule="evenodd" clip-rule="evenodd" d="M251.188 92.0002C239.763 94.7423 223.884 80.5763 222.512 75.6637C223.354 76.648 238.757 87.293 251.188 92.0002Z" fill="#043A80"/>
<path fill-rule="evenodd" clip-rule="evenodd" d="M213.03 87.0876C212.011 81.7153 215.762 76.9236 219.199 76.1207C217.033 77.9115 213.597 83.1637 213.03 87.0876Z" fill="#043A80"/>
<path fill-rule="evenodd" clip-rule="evenodd" d="M116.575 93.4032C116.931 91.1376 116.888 90.1738 115.695 90.2645C113.645 90.2512 111.996 98.5372 109.722 101.781C106.085 101.56 104.464 98.2651 103.589 98.6146C100.79 99.6993 107.038 114.027 109.85 116.004C116.028 120.346 124.96 96.4584 122.319 96.566C121.656 96.5926 121.487 98.7746 119.609 102.254C118.731 101.453 117.944 102.027 116.785 101.551C117.813 97.4195 119.745 91.0389 118.321 90.9651C117.481 90.9483 116.975 91.6125 116.575 93.4032Z" fill="#D9ABA1"/>
<path fill-rule="evenodd" clip-rule="evenodd" d="M114.474 100.701C115.924 95.5106 117.255 90.7838 115.923 90.7758C113.873 90.7625 112.337 100.412 110.064 103.655C106.426 103.435 104.748 98.9472 103.873 99.2966C101.301 100.324 108.23 114.141 111.043 116.118C117.222 120.461 125.122 96.7376 122.348 95.8236C121.366 95.4999 122.095 97.3156 119.738 101.492C121.439 97.0124 122.538 91.6036 120.576 91.1342C119.487 90.8745 118.847 97.9282 117.133 101.306C118.161 97.1751 120.254 89.8582 118.829 89.7844C116.974 89.6875 116.385 96.8612 114.474 100.701Z" fill="#FBC9BE"/>
<path fill-rule="evenodd" clip-rule="evenodd" d="M106.45 113.374C102.876 121.812 89.5049 148.166 89.1359 154.216C88.597 163.051 99.4149 165.539 103.648 157.765C106.092 153.277 116.269 127.173 118.476 116.963C114.653 114.621 110.154 113.345 106.45 113.374Z" fill="#F08156"/>
<path fill-rule="evenodd" clip-rule="evenodd" d="M224.098 114.669C222.961 116.6 222.15 117.362 221.012 119.292C220.909 126.221 222.728 129.945 224.489 132.435C224.057 128.738 224.229 121.089 224.098 114.669Z" fill="#FFAF8F"/>
<path fill-rule="evenodd" clip-rule="evenodd" d="M236.195 113.665C236.924 115.527 237.809 117.421 238.156 118.988C235.887 124.506 230.713 130.916 224.488 132.435C229.634 128.842 234.301 121.01 236.195 113.665Z" fill="#FFAF8F"/>
<path fill-rule="evenodd" clip-rule="evenodd" d="M224.098 114.669C221.574 117.074 220.009 119.093 217.975 122.545C220.079 121.778 222.477 120.538 224.159 120.766C224.293 118.521 223.895 117.738 224.098 114.669Z" fill="#FFAF8F"/>
<path fill-rule="evenodd" clip-rule="evenodd" d="M236.195 113.665C238.675 117.563 240.752 120.788 241.444 125.039C238.03 122.833 236.07 122.183 233.383 121.03C234.558 118.68 235.436 116.41 236.195 113.665Z" fill="#FFAF8F"/>
<path fill-rule="evenodd" clip-rule="evenodd" d="M72.1381 352.729C77.9686 357.084 93.5507 360.153 101.244 359.183C103.151 358.943 104.348 357.608 104.62 355.96C104.02 356.501 103.233 356.875 102.282 356.994C93.9971 358.038 77.2163 354.733 70.9377 350.044C70.9191 350.03 70.9013 350.015 70.8835 350C71.0258 351.217 71.4072 352.183 72.1381 352.729Z" fill="#001E45"/>
<path fill-rule="evenodd" clip-rule="evenodd" d="M105.024 347.766C111.128 351.727 126.879 353.763 134.492 352.288C136.379 351.923 137.486 350.513 137.648 348.85C137.085 349.43 136.324 349.854 135.383 350.036C127.185 351.623 110.223 349.431 103.649 345.165C103.63 345.153 103.611 345.139 103.592 345.125C103.815 346.329 104.258 347.269 105.024 347.766Z" fill="#001E45"/>
<path fill-rule="evenodd" clip-rule="evenodd" d="M254.331 354.224C250.445 357.765 234.18 360.672 226.973 359.617C225.212 359.359 224.176 358.135 223.995 356.635C224.506 357.089 225.177 357.407 225.997 357.528C233.629 358.647 250.854 355.567 254.97 351.818C255.188 351.62 255.373 351.381 255.533 351.107C255.404 352.466 255.043 353.576 254.331 354.224Z" fill="#0C3D7D"/>
<path fill-rule="evenodd" clip-rule="evenodd" d="M226.891 348.113C222.845 351.469 206.462 353.618 199.312 352.229C197.565 351.889 196.587 350.619 196.475 349.111C196.965 349.589 197.62 349.938 198.434 350.097C206.006 351.568 223.356 349.292 227.64 345.738C227.867 345.55 228.065 345.32 228.235 345.053C228.044 346.406 227.632 347.498 226.891 348.113Z" fill="#0C3D7D"/>
<path fill-rule="evenodd" clip-rule="evenodd" d="M289.516 128.497C294.381 126.806 298.496 124.814 297.776 123.763C296.669 122.146 286.866 126.788 283.08 126.77C282.678 124.229 285.462 122.536 285.052 121.408C284.122 118.852 276.767 126.706 277.114 133.953C277.202 135.795 279.486 137.524 283.235 137.271C290.143 136.804 299.034 133.718 298.517 131.974C298.236 131.028 296.326 132.63 291.763 133.058C296.207 131.951 301.142 130.486 300.44 128.69C300.051 127.694 294.075 130.416 290.489 130.911C294.292 129.467 301.176 127.121 300.458 125.962C299.523 124.456 293.572 127.904 289.516 128.497Z" fill="#BA8B80"/>
<path fill-rule="evenodd" clip-rule="evenodd" d="M163.046 116.573C157.972 115.682 153.591 114.372 154.134 113.221C154.968 111.448 165.388 114.296 169.123 113.674C169.113 111.101 165.563 109.824 166.318 108.862C167.816 106.953 175.301 113.018 176.501 119.095C177.246 122.863 174.929 123.441 170.626 124.089C163.779 125.121 154.485 123.25 154.717 121.445C154.843 120.466 156.985 121.743 161.556 121.436C156.993 121.053 151.888 120.396 152.292 118.512C152.517 117.466 158.851 119.198 162.47 119.113C158.485 118.295 151.314 117.081 151.839 115.822C152.52 114.184 158.947 116.636 163.046 116.573Z" fill="#BA8B80"/>
<path fill-rule="evenodd" clip-rule="evenodd" d="M204.811 14.8596L215.62 17.4684C216.842 12.7541 219.446 10.9607 223.312 11.8943C226.783 12.7319 228.474 14.7262 227.673 18.0401C225.845 25.614 215.969 23.9824 213.036 36.1327L223.531 38.6659C225.759 29.4347 238.29 30.7897 241.166 18.8759C243.299 10.0395 237.95 3.4882 227.377 0.936318C216.093 -1.78806 207.689 3.28014 204.811 14.8596ZM216.638 43.3473C212.692 42.395 209.264 44.4899 208.293 48.5133C207.322 52.5376 209.398 56.0445 213.343 56.9967C217.288 57.949 220.814 55.7937 221.785 51.7703C222.756 47.746 220.583 44.2996 216.638 43.3473Z" fill="#9ABBE6"/>
<path fill-rule="evenodd" clip-rule="evenodd" d="M146.209 64.3537L154.041 65.2971C154.512 61.8738 156.198 60.3951 158.999 60.7321C161.514 61.0353 162.869 62.3006 162.58 64.7013C161.92 70.1892 154.826 69.8567 153.766 78.6602L161.369 79.576C162.175 72.8878 171.116 72.8042 172.156 64.1723C172.927 57.7695 168.616 53.5966 160.955 52.6746C152.78 51.6903 147.278 55.9574 146.209 64.3537ZM156.902 83.4456C154.043 83.1015 151.801 84.8612 151.45 87.7767C151.099 90.6923 152.852 92.9916 155.71 93.3348C158.569 93.6789 160.875 91.8686 161.226 88.954C161.577 86.0384 159.76 83.7897 156.902 83.4456Z" fill="#9ABBE6"/>
<path fill-rule="evenodd" clip-rule="evenodd" d="M70.4496 21.3531L78.1687 19.4574C77.3942 16.0635 78.4576 14.07 81.2186 13.3916C83.6976 12.7825 85.4253 13.4938 86.0069 15.8599C87.3353 21.2686 80.5303 23.4773 82.6617 32.1537L90.1549 30.3131C88.5357 23.7218 96.935 20.4639 94.8454 11.9565C93.2955 5.64612 87.747 3.24629 80.1978 5.10018C72.1399 7.07856 68.4712 13.0572 70.4496 21.3531ZM87.3184 35.5485C84.5015 36.2402 83.0138 38.697 83.7199 41.5698C84.4259 44.4436 86.896 45.9872 89.713 45.2954C92.53 44.6036 94.0602 42.0767 93.3542 39.2038C92.6482 36.33 90.1354 34.8567 87.3184 35.5485Z" fill="#9ABBE6"/>
</g>
<defs>
<clipPath id="clip0_1280_7692">
<rect width="329" height="369" fill="white"/>
</clipPath>
</defs>
</svg>
