<svg width="11" height="18" viewBox="0 0 11 18" fill="none" xmlns="http://www.w3.org/2000/svg">
<path d="M7.422 4.05166H9.91009C10.13 4.05166 10.341 3.96153 10.4965 3.8011C10.6521 3.64068 10.7394 3.42309 10.7394 3.19621V1.48533C10.7394 1.25845 10.6521 1.04086 10.4965 0.880436C10.341 0.72001 10.13 0.629883 9.91009 0.629883H7.422C6.3222 0.629883 5.26744 1.08052 4.48977 1.88265C3.71209 2.68478 3.27519 3.77271 3.27519 4.9071V7.47343H1.61647C1.39651 7.47343 1.18556 7.56356 1.03002 7.72398C0.874488 7.88441 0.787109 8.102 0.787109 8.32887V10.0398C0.787109 10.2666 0.874488 10.4842 1.03002 10.6447C1.18556 10.8051 1.39651 10.8952 1.61647 10.8952H3.27519V16.8833C3.27519 17.1102 3.36257 17.3278 3.51811 17.4882C3.67364 17.6486 3.88459 17.7388 4.10456 17.7388H5.76328C5.98324 17.7388 6.19419 17.6486 6.34972 17.4882C6.50526 17.3278 6.59264 17.1102 6.59264 16.8833V10.8952H8.43382C8.62328 10.9009 8.80891 10.8395 8.95981 10.7212C9.11071 10.6029 9.21777 10.4349 9.26318 10.2451L9.67786 8.53418C9.70862 8.40609 9.71024 8.2724 9.68258 8.14355C9.65491 8.01471 9.59873 7.89422 9.51842 7.7915C9.4381 7.68878 9.33584 7.60662 9.21962 7.55144C9.1034 7.49626 8.97639 7.46956 8.8485 7.47343H6.59264V4.9071C6.59264 4.68022 6.68002 4.46264 6.83555 4.30221C6.99109 4.14178 7.20204 4.05166 7.422 4.05166Z" fill="white"/>
</svg>
