<svg width="29" height="29" viewBox="0 0 29 29" fill="none" xmlns="http://www.w3.org/2000/svg">
<path d="M19.9519 24.4072C20.1428 24.4067 20.3296 24.4629 20.4885 24.5686C20.6475 24.6743 20.7715 24.8248 20.8449 25.0011C20.9183 25.1774 20.9378 25.3714 20.9008 25.5587C20.8638 25.746 20.7721 25.9182 20.6373 26.0533C20.5025 26.1885 20.3306 26.2806 20.1433 26.318C19.9561 26.3555 19.762 26.3365 19.5856 26.2635C19.4091 26.1906 19.2583 26.0669 19.1522 25.9082C19.0461 25.7495 18.9894 25.5629 18.9894 25.372C18.9891 25.2454 19.0138 25.12 19.062 25.0029C19.1103 24.8859 19.1811 24.7795 19.2705 24.6899C19.3599 24.6003 19.4661 24.5292 19.583 24.4806C19.7 24.4321 19.8253 24.4071 19.9519 24.4072ZM20.8035 10.1073C21.012 10.1593 21.1957 10.2828 21.3224 10.4564C21.5772 10.7843 21.648 11.3151 21.5772 11.8718C21.5126 12.3916 21.3347 12.8909 21.0559 13.3343C20.7469 13.8061 20.3482 14.1104 19.8764 14.0797C19.8434 15.6154 19.0909 16.3207 18.1096 17.2431L17.7345 17.5993L17.6071 17.7196L17.6378 17.7408C17.5193 17.8354 17.3948 17.922 17.2651 18.0003C16.9334 18.2472 16.5669 18.4436 16.1776 18.5829C15.6587 18.762 15.113 18.8514 14.5641 18.8471C13.9944 18.8559 13.4273 18.7682 12.8869 18.5877L12.651 18.5027C12.3415 18.4101 12.0451 18.2785 11.7687 18.1111L11.6508 18.038C11.5198 18.4335 11.3407 18.8114 11.1177 19.1632L14.7787 21.7132L18.2181 18.8471C18.0041 18.5121 17.8277 18.1546 17.692 17.7809C19.2088 18.8589 19.5367 21.1094 19.4872 22.9257C19.4872 23.1616 19.473 23.223 19.4683 23.3008C19.1007 23.3827 18.7618 23.5619 18.4872 23.8196C18.2125 24.0773 18.0122 24.404 17.9071 24.7657C17.8019 25.1273 17.7959 25.5106 17.8896 25.8754C17.9834 26.2401 18.1734 26.573 18.4398 26.8392C18.7911 27.221 19.2768 27.4516 19.7947 27.4824C20.3126 27.5132 20.8222 27.3418 21.2163 27.0043C21.4672 26.8083 21.6702 26.5578 21.8099 26.2717C21.9497 25.9856 22.0226 25.6715 22.023 25.3531C22.0231 25.0216 21.9352 24.6959 21.7683 24.4095C21.4144 23.7962 21.0299 23.6169 20.4425 23.3244C20.4024 23.3032 20.4425 23.2135 20.4425 22.9635C20.4945 21.8454 20.3784 20.7258 20.0981 19.6421C20.3552 19.7762 20.6236 19.8875 20.9002 19.9747C22.9996 20.4701 25.5803 20.6824 26.505 21.2014C26.9634 21.4511 27.3651 21.7933 27.6845 22.2063C28.503 23.2867 28.5714 26.3957 28.864 27.7167C28.7908 28.4905 28.3544 28.9339 27.4911 29H1.3729C0.511889 28.9198 0.073127 28.474 0 27.7026C0.297226 26.3816 0.367994 23.2701 1.17947 22.1921C1.50015 21.7758 1.90637 21.4332 2.37073 21.1872C3.68466 20.4559 6.90461 20.2578 9.04652 19.6633C8.84488 20.2746 8.7197 20.9085 8.67381 21.5505C8.43792 21.7321 7.81516 21.9444 7.61937 22.178C7.27832 22.5854 6.97364 23.0219 6.70882 23.4824C6.66724 23.5541 6.64527 23.6355 6.64513 23.7183C6.64513 23.7844 6.71353 23.8528 6.68523 23.9094L6.64041 23.9967C6.02708 25.1762 5.62842 26.4995 5.81714 27.0633C5.86794 27.1975 5.95155 27.3168 6.06034 27.4103C6.16913 27.5039 6.29962 27.5687 6.4399 27.5988C6.68243 27.6627 6.93216 27.6952 7.18296 27.6955C7.25609 27.6955 7.33158 27.6955 7.4047 27.6955C7.44222 27.7304 7.48334 27.7613 7.52737 27.7875C7.57767 27.8174 7.63057 27.8426 7.68542 27.863C7.75397 27.8892 7.82669 27.9028 7.90008 27.9031C7.97843 27.9031 8.05601 27.8876 8.12831 27.8574C8.20061 27.8272 8.2662 27.7829 8.32127 27.7272C8.37635 27.6714 8.41981 27.6053 8.44915 27.5327C8.47849 27.46 8.49311 27.3823 8.49217 27.3039C8.49032 27.2224 8.47186 27.1422 8.43792 27.068C8.39254 26.9562 8.31494 26.8604 8.21497 26.7927C8.115 26.7251 7.99718 26.6887 7.87649 26.6882C7.65947 26.6882 7.35045 26.7968 7.35045 27.0138V27.0279H7.19948C7.01419 27.0295 6.82947 27.0073 6.64984 26.9619C6.54369 26.9336 6.48236 26.8935 6.46821 26.8486C6.33139 26.4523 6.7041 25.3554 7.2443 24.2939L7.3127 24.1642C7.41275 24.124 7.496 24.0507 7.5486 23.9566C7.78209 23.5468 8.05126 23.1585 8.353 22.796C8.577 22.5909 8.85263 22.4506 9.15032 22.3903H9.19985C9.34813 22.4969 9.4842 22.6195 9.60559 22.7559C9.92757 23.1195 10.2121 23.5147 10.4548 23.9354C10.5091 24.0321 10.6412 24.0533 10.6907 24.1453C11.3158 25.1549 11.6673 26.3132 11.5824 26.7543C11.5635 26.8581 11.4786 26.9194 11.3465 26.9619C11.145 27.0169 10.9373 27.0463 10.7284 27.0492C10.7215 27.0337 10.7136 27.0188 10.7049 27.0043C10.7049 26.7873 10.3935 26.6859 10.1765 26.6788C10.0558 26.6793 9.93794 26.7157 9.83798 26.7833C9.73801 26.8509 9.6604 26.9468 9.61503 27.0586C9.58208 27.1331 9.56367 27.2131 9.56077 27.2945C9.56077 27.4515 9.62315 27.6021 9.73419 27.7132C9.84523 27.8242 9.99583 27.8866 10.1529 27.8866C10.227 27.8863 10.3005 27.8727 10.3699 27.8465C10.424 27.8261 10.4761 27.8009 10.5256 27.771C10.5552 27.7533 10.5835 27.7336 10.6105 27.712H10.6954C10.9873 27.7182 11.2784 27.68 11.5588 27.5988C11.7299 27.5574 11.8855 27.4675 12.0069 27.3399C12.1282 27.2122 12.2102 27.0523 12.2429 26.8793C12.3467 26.3037 11.9291 25.0346 11.3135 23.8835C11.3392 23.8231 11.3521 23.758 11.3512 23.6924C11.349 23.6095 11.3263 23.5285 11.2852 23.4565C11.0073 22.9779 10.6834 22.5275 10.318 22.1119C10.1222 21.8925 9.69051 21.8288 9.64569 21.5363C9.52775 20.7744 9.858 19.8308 10.3534 19.0099C10.4829 18.848 10.5982 18.6752 10.6978 18.4933L10.7733 18.3895C10.9976 18.1631 11.2737 17.9947 11.5777 17.8988C11.4629 17.8123 11.3473 17.718 11.2309 17.6158L10.8676 17.2902L10.844 17.269C9.90046 16.4481 9.09606 15.7522 8.95688 14.0703C8.3011 14.0137 7.83639 13.3909 7.60757 12.6549C7.48745 12.2625 7.43559 11.8524 7.45424 11.4424C7.45718 11.0554 7.5818 10.6791 7.81044 10.3668C7.85446 10.3106 7.90427 10.2592 7.95905 10.2134L7.92603 10.1922C7.77506 8.30505 8.21618 5.045 6.17334 4.42696C10.0278 -0.366398 14.2739 -1.24392 17.8336 1.68116C21.5324 1.88639 23.3181 7.22702 20.8035 10.1073ZM9.95235 8.92781C9.77156 9.50962 9.75523 10.1301 9.90518 10.7206C9.93017 10.8019 9.92821 10.889 9.89958 10.9691C9.87094 11.0492 9.81718 11.1178 9.74631 11.1648C9.67545 11.2118 9.59129 11.2345 9.5064 11.2297C9.42151 11.2249 9.34046 11.1928 9.27534 11.1381C8.80355 10.7371 8.51812 10.6994 8.39546 10.8456C8.27763 11.0283 8.21611 11.2416 8.21854 11.459C8.20406 11.7781 8.24476 12.0973 8.33884 12.4025C8.49925 12.9286 8.81063 13.3603 9.18334 13.2517C9.21982 13.2394 9.25806 13.233 9.29657 13.2329C9.34831 13.2316 9.39978 13.2406 9.44806 13.2592C9.49634 13.2779 9.54047 13.3058 9.57793 13.3415C9.61539 13.3773 9.64544 13.42 9.66638 13.4673C9.68732 13.5146 9.69872 13.5656 9.69995 13.6174C9.74005 15.2686 10.4642 15.8985 11.3512 16.6604L11.3748 16.6793L11.7522 17.0095C12.15 17.3716 12.617 17.6492 13.1251 17.8257C13.4638 17.9397 13.8159 18.0087 14.1725 18.0309C14.4365 18.0361 14.7005 18.0235 14.9627 17.9932C15.3187 17.9554 15.6702 17.8836 16.0125 17.7785C16.445 17.6034 16.8386 17.3445 17.1707 17.0166L17.5529 16.6533C18.4964 15.7711 19.1852 15.12 19.0531 13.5372C19.0469 13.4633 19.0616 13.3892 19.0956 13.3234C19.1296 13.2575 19.1815 13.2026 19.2453 13.1649C19.3091 13.1272 19.3823 13.1083 19.4563 13.1103C19.5304 13.1123 19.6024 13.1352 19.6641 13.1763C19.9307 13.3532 20.1949 13.1763 20.3907 12.8837C20.6048 12.5418 20.741 12.1568 20.7893 11.7562C20.8539 11.4765 20.8197 11.1831 20.6926 10.9258C20.5982 10.8032 20.3458 10.8527 19.8599 11.2231C19.7983 11.2755 19.7221 11.3078 19.6416 11.3155C19.5611 11.3231 19.4801 11.3058 19.4098 11.2659C19.3395 11.2259 19.2831 11.1653 19.2484 11.0922C19.2137 11.0192 19.2024 10.9372 19.2159 10.8574C19.5603 8.84289 19.3881 7.59737 18.947 6.76703C18.5625 6.05934 17.9492 5.62294 17.2957 5.27618C15.845 6.38488 14.8212 6.5099 13.8021 6.63728C12.96 6.74108 12.1226 6.84487 11.0115 7.61153C10.5276 7.92549 10.1579 8.38708 9.95707 8.92781H9.95235Z" fill="#1B4E9B"/>
</svg>
