<?xml version="1.0" encoding="UTF-8"?>
<svg xmlns="http://www.w3.org/2000/svg" width="43" height="42" viewBox="0 0 43 42" fill="none">
  <g clip-path="url(#clip0_957_14761)">
    <path d="M1.87455 25.4291C1.87455 24.9709 2.02727 24.5891 2.33273 24.2836C2.94364 23.7491 3.78364 23.6727 4.47091 24.1309L5.08182 24.5891C5.61636 24.9709 6.22727 25.2 6.83818 25.2H12.3364C20.8127 25.2 27.7618 18.3273 27.7618 9.77455V0H26.3873V9.77455C26.3873 17.4873 20.1255 23.7491 12.4127 23.7491H6.83818C6.45636 23.7491 6.15091 23.6727 5.84545 23.4436L5.31091 22.9855C4.08909 22.0691 2.40909 22.2218 1.34 23.2909C0.805455 23.9018 0.5 24.6655 0.5 25.4291V42H1.87455V25.4291Z" fill="#1B4E9B"></path>
    <path d="M36.4666 7.02545C35.3975 6.94909 34.3284 7.17818 33.412 7.71273V0H32.0375V8.93455C32.0375 9.31636 32.3429 9.62182 32.7247 9.62182C32.8775 9.62182 33.0302 9.54545 33.1829 9.46909C34.0993 8.70545 35.2447 8.32364 36.4666 8.4C39.292 8.47636 41.2011 11.9127 41.2011 16.8V19.1673C41.2011 29.8582 32.572 38.4873 21.8811 38.4873C17.1466 38.4873 12.6411 36.12 10.0447 32.1491C9.43383 31.1564 8.13565 30.9273 7.14293 31.5382C6.53202 31.92 6.22656 32.6073 6.22656 33.2945V42H7.60111V33.2945C7.60111 32.9127 7.90656 32.6073 8.28838 32.6073C8.51747 32.6073 8.74656 32.76 8.89929 32.9127C11.8011 37.2655 16.6884 39.8618 21.8811 39.8618C33.3357 39.8618 42.5756 30.6218 42.5756 19.1673V16.8C42.4993 11.0727 40.0556 7.17818 36.4666 7.02545Z" fill="#1B4E9B"></path>
    <path d="M29.2129 30.0873C29.2129 31.2327 30.1293 32.2255 31.3511 32.2255C32.4965 32.2255 33.4893 31.3091 33.4893 30.0873C33.4893 28.9418 32.5729 27.9491 31.3511 27.9491C30.1293 28.0255 29.2129 28.9418 29.2129 30.0873ZM32.0383 30.0873C32.0383 30.4691 31.7329 30.7746 31.3511 30.7746C30.9693 30.7746 30.6638 30.4691 30.6638 30.0873C30.6638 29.7055 30.9693 29.4 31.3511 29.4C31.6565 29.4 32.0383 29.7055 32.0383 30.0873Z" fill="#1B4E9B"></path>
    <path d="M16.6133 34.2873C16.6133 35.4327 17.5296 36.4255 18.7515 36.4255C19.8969 36.4255 20.8896 35.5091 20.8896 34.2873C20.8896 33.1418 19.9733 32.1491 18.7515 32.1491C17.5296 32.2255 16.6133 33.1418 16.6133 34.2873ZM18.6751 33.6C19.0569 33.6 19.3624 33.9055 19.3624 34.2873C19.3624 34.6691 19.0569 34.9746 18.6751 34.9746C18.2933 34.9746 17.9878 34.6691 17.9878 34.2873C17.9878 33.9055 18.2933 33.6 18.6751 33.6Z" fill="#1B4E9B"></path>
    <path d="M21.5 24.5127H28.6018C28.9836 25.5818 30.2055 26.1927 31.2745 25.8109C31.8855 25.5818 32.3436 25.1236 32.5727 24.5127H39.6745V23.1382H32.0382C31.6564 23.1382 31.3509 23.4436 31.3509 23.8255C31.3509 24.2073 31.0455 24.5127 30.6636 24.5127C30.2818 24.5127 29.9764 24.2073 29.9764 23.8255C29.9764 23.4436 29.6709 23.1382 29.2891 23.1382H21.5V24.5127Z" fill="#1B4E9B"></path>
    <path d="M25.0132 33.6H23.6387V34.9745H25.0132V33.6Z" fill="#1B4E9B"></path>
    <path d="M13.7867 29.4H12.4121V30.7746H13.7867V29.4Z" fill="#1B4E9B"></path>
    <path d="M19.439 25.2H18.0645V26.5746H19.439V25.2Z" fill="#1B4E9B"></path>
    <path d="M26.3877 28.0254C26.3877 26.88 25.4713 25.8873 24.2495 25.8873C23.1041 25.8873 22.1113 26.8036 22.1113 28.0254C22.1113 29.1709 23.0277 30.1636 24.2495 30.1636C25.4713 30.0873 26.3877 29.1709 26.3877 28.0254ZM24.3259 28.7127C23.9441 28.7127 23.6386 28.4073 23.6386 28.0254C23.6386 27.6436 23.9441 27.3382 24.3259 27.3382C24.7077 27.3382 25.0131 27.6436 25.0131 28.0254C25.0131 28.4073 24.7077 28.7127 24.3259 28.7127Z" fill="#1B4E9B"></path>
    <path d="M37.6128 25.8873H36.2383V27.2618H37.6128V25.8873Z" fill="#1B4E9B"></path>
  </g>
  <defs>
    <clipPath id="clip0_957_14761">
      <rect width="42" height="42" fill="white" transform="translate(0.5)"></rect>
    </clipPath>
  </defs>
</svg>
