<?xml version="1.0" encoding="UTF-8"?>
<svg xmlns="http://www.w3.org/2000/svg" width="22" height="22" viewBox="0 0 22 22" fill="none">
  <path fill-rule="evenodd" clip-rule="evenodd" d="M7.23125 10.2936V7.54701C6.93123 7.6623 6.65072 7.66491 6.41759 7.58527C6.23559 7.52386 6.08192 7.41376 5.96911 7.27143C5.8564 7.12931 5.78468 6.9563 5.76277 6.76536C5.72952 6.46944 5.81788 6.13489 6.07036 5.82104C6.08316 5.80564 6.09732 5.79027 6.11393 5.77748L13.4248 0.0708138C13.5195 -0.0163128 13.6657 -0.0254278 13.7706 0.0567777L21.0982 5.75326C21.1098 5.76207 21.1201 5.77119 21.1302 5.78278C21.4698 6.14781 21.5545 6.55276 21.4724 6.89493C21.4324 7.06039 21.3524 7.21347 21.2393 7.34067C21.1266 7.46753 20.9839 7.56405 20.8242 7.62134C20.5678 7.71348 20.2629 7.71104 19.9541 7.56486V11.6273C19.7374 11.6479 19.5147 11.6903 19.2875 11.7572C19.2706 11.7618 19.2534 11.767 19.2365 11.7724V7.24977C19.2365 7.12032 14.2103 3.14716 13.6553 2.71542C13.0674 3.16252 7.94868 7.10372 7.94868 7.27018V10.3689C7.88243 10.3533 7.81595 10.3388 7.74926 10.3253C7.67468 10.3102 7.59888 10.3018 7.5228 10.3004L7.23125 10.2936ZM0 10.7313H3.42396L3.2292 19.152H0V10.7313ZM4.19162 18.472L4.3544 11.4825L7.49815 11.5559C8.82538 11.8259 10.1413 12.5794 11.4546 13.4497L13.8964 13.5066C15.0001 13.5988 15.5529 14.7325 14.4621 15.4436C13.5908 16.0514 12.4622 15.9896 11.3069 15.8588C10.5095 15.8008 10.4494 16.8734 11.2827 16.8965C11.5711 16.9255 11.8876 16.8652 12.1622 16.8714C13.6075 16.9036 14.8044 16.6551 15.5594 15.5304L15.9455 14.6842L19.6197 12.968C21.4513 12.4119 22.6986 14.3434 21.3288 15.6341C18.6536 17.487 15.9185 18.9993 13.1295 20.2071C11.0969 21.3796 9.0936 21.2915 7.11678 20.0671L4.19162 18.472ZM13.8719 6.80986V9.11461H15.9399V9.10819C15.9399 8.47258 15.6798 7.89492 15.2609 7.4761C14.8956 7.11065 14.41 6.86609 13.8719 6.80986ZM13.8719 9.60159V11.6028H15.9399V9.60159H13.8719ZM13.385 11.6019V9.60159H11.3173V11.6028L13.385 11.6019ZM13.385 9.11461V6.80986C12.8458 6.86742 12.3613 7.11065 11.9962 7.4761C11.5772 7.89492 11.317 8.47258 11.317 9.10819V9.11461H13.385ZM13.6285 6.30991C14.3987 6.30991 15.0981 6.62517 15.6042 7.13119C16.1116 7.63863 16.4255 8.33834 16.4255 9.10686V12.0871H11.0781C11.0299 12.0748 10.9837 12.0559 10.9408 12.0307C10.9033 12.0087 10.8665 11.9815 10.8302 11.9507V9.10686C10.8302 8.33689 11.1455 7.63726 11.6516 7.13119C12.1588 6.62517 12.8586 6.30991 13.6285 6.30991Z" fill="#828282"></path>
</svg>
