<svg width="23" height="22" viewBox="0 0 23 22" fill="none" xmlns="http://www.w3.org/2000/svg">
<path fill-rule="evenodd" clip-rule="evenodd" d="M7.56193 10.7643V7.89213C7.24819 8.01269 6.95485 8.01542 6.71106 7.93214C6.52074 7.86792 6.36004 7.75278 6.24208 7.60394C6.12421 7.45533 6.04921 7.2744 6.02629 7.07473C5.99152 6.76528 6.08393 6.41543 6.34796 6.08723C6.36134 6.07112 6.37615 6.05506 6.39351 6.04168L14.0387 0.074052C14.1378 -0.0170588 14.2906 -0.0265905 14.4003 0.0593741L22.063 6.01635C22.0751 6.02557 22.0859 6.0351 22.0965 6.04723C22.4516 6.42894 22.5401 6.85241 22.4543 7.21023C22.4125 7.38326 22.3288 7.54334 22.2105 7.67635C22.0927 7.80901 21.9435 7.90994 21.7765 7.96986C21.5083 8.06621 21.1895 8.06366 20.8666 7.91079V12.159C20.64 12.1805 20.4071 12.2249 20.1696 12.2948C20.1518 12.2996 20.1338 12.3051 20.1162 12.3107V7.5813C20.1162 7.44593 14.8601 3.29108 14.2798 2.8396C13.6649 3.30714 8.31216 7.42857 8.31216 7.60264V10.843C8.24289 10.8268 8.17337 10.8116 8.10363 10.7975C8.02564 10.7817 7.94638 10.7729 7.86681 10.7714L7.56193 10.7643ZM0 11.2221H3.58053L3.37687 20.0278H0V11.2221ZM4.3833 19.3167L4.55353 12.0076L7.84104 12.0843C9.22896 12.3667 10.605 13.1546 11.9784 14.0647L14.5319 14.1242C15.6861 14.2207 16.2641 15.4062 15.1234 16.1498C14.2123 16.7854 13.0321 16.7208 11.824 16.584C10.99 16.5234 10.9273 17.645 11.7986 17.6692C12.1002 17.6995 12.4312 17.6365 12.7184 17.6429C14.2297 17.6766 15.4814 17.4167 16.2709 16.2406L16.6747 15.3557L20.5169 13.561C22.4322 12.9794 23.7366 14.9993 22.3041 16.349C19.5066 18.2866 16.6464 19.8681 13.7299 21.1312C11.6043 22.3572 9.50945 22.2651 7.44223 20.9847L4.3833 19.3167ZM14.5063 7.12127V9.53141H16.6689V9.5247C16.6689 8.86003 16.3969 8.25595 15.9588 7.81798C15.5767 7.43582 15.0689 7.18007 14.5063 7.12127ZM14.5063 10.0407V12.1334H16.6689V10.0407H14.5063ZM13.9971 12.1324V10.0407H11.8348V12.1334L13.9971 12.1324ZM13.9971 9.53141V7.12127C13.4332 7.18146 12.9266 7.43582 12.5447 7.81798C12.1066 8.25595 11.8345 8.86003 11.8345 9.5247V9.53141H13.9971ZM14.2517 6.59846C15.0571 6.59846 15.7885 6.92813 16.3177 7.4573C16.8483 7.98794 17.1766 8.71965 17.1766 9.52331V12.6398H11.5847C11.5343 12.627 11.486 12.6072 11.4411 12.5809C11.4019 12.5578 11.3634 12.5294 11.3255 12.4972V9.52331C11.3255 8.71813 11.6552 7.98651 12.1844 7.4573C12.7148 6.92813 13.4466 6.59846 14.2517 6.59846Z" fill="#1B4E9B"/>
</svg>
