<svg width="14" height="15" viewBox="0 0 14 15" fill="none" xmlns="http://www.w3.org/2000/svg">
<path d="M11.7268 3.74921C11.7268 4.3388 11.2825 4.81679 10.7345 4.81679C10.1865 4.81679 9.74219 4.3388 9.74219 3.74921C9.74219 3.15961 10.1865 2.68164 10.7345 2.68164C11.2825 2.68164 11.7268 3.15961 11.7268 3.74921Z" fill="white"/>
<path fill-rule="evenodd" clip-rule="evenodd" d="M7.09683 11.2226C8.92365 11.2226 10.4046 9.62938 10.4046 7.66405C10.4046 5.69871 8.92365 4.10547 7.09683 4.10547C5.27002 4.10547 3.78906 5.69871 3.78906 7.66405C3.78906 9.62938 5.27002 11.2226 7.09683 11.2226ZM7.09683 9.79919C8.19296 9.79919 9.0815 8.84329 9.0815 7.66405C9.0815 6.4848 8.19296 5.5289 7.09683 5.5289C6.0007 5.5289 5.11217 6.4848 5.11217 7.66405C5.11217 8.84329 6.0007 9.79919 7.09683 9.79919Z" fill="white"/>
<path fill-rule="evenodd" clip-rule="evenodd" d="M0.478516 7.37886C0.478516 4.98728 0.478516 3.79145 0.911146 2.87801C1.2917 2.0745 1.89893 1.42123 2.64581 1.01182C3.49487 0.546387 4.60642 0.546387 6.82944 0.546387H7.35868C9.5817 0.546387 10.6932 0.546387 11.5423 1.01182C12.2892 1.42123 12.8964 2.0745 13.2769 2.87801C13.7096 3.79145 13.7096 4.98728 13.7096 7.37886V7.94823C13.7096 10.3398 13.7096 11.5356 13.2769 12.449C12.8964 13.2526 12.2892 13.9059 11.5423 14.3152C10.6932 14.7807 9.5817 14.7807 7.35868 14.7807H6.82944C4.60642 14.7807 3.49487 14.7807 2.64581 14.3152C1.89893 13.9059 1.2917 13.2526 0.911146 12.449C0.478516 11.5356 0.478516 10.3398 0.478516 7.94823V7.37886ZM6.82944 1.96982H7.35868C8.49205 1.96982 9.26243 1.97093 9.85796 2.02327C10.4381 2.07425 10.7347 2.16667 10.9417 2.2801C11.4395 2.55305 11.8443 2.98856 12.0981 3.5242C12.2035 3.74683 12.2894 4.06596 12.3368 4.69006C12.3854 5.33075 12.3865 6.15954 12.3865 7.37886V7.94823C12.3865 9.16754 12.3854 9.99633 12.3368 10.637C12.2894 11.2611 12.2035 11.5803 12.0981 11.8029C11.8443 12.3385 11.4395 12.774 10.9417 13.047C10.7347 13.1604 10.4381 13.2529 9.85796 13.3038C9.26243 13.3561 8.49205 13.3573 7.35868 13.3573H6.82944C5.69606 13.3573 4.92568 13.3561 4.33015 13.3038C3.75003 13.2529 3.45339 13.1604 3.24646 13.047C2.74857 12.774 2.34375 12.3385 2.09004 11.8029C1.9846 11.5803 1.8987 11.2611 1.85131 10.637C1.80266 9.99633 1.80162 9.16754 1.80162 7.94823V7.37886C1.80162 6.15954 1.80266 5.33075 1.85131 4.69006C1.8987 4.06596 1.9846 3.74683 2.09004 3.5242C2.34375 2.98856 2.74857 2.55305 3.24646 2.2801C3.45339 2.16667 3.75003 2.07425 4.33015 2.02327C4.92568 1.97093 5.69606 1.96982 6.82944 1.96982Z" fill="white"/>
</svg>
