<svg width="41" height="51" viewBox="0 0 41 51" fill="none" xmlns="http://www.w3.org/2000/svg">
<path d="M23.6413 22.8528L22.5633 16.7899C22.5672 16.7891 22.571 16.7882 22.5749 16.7873C23.1193 16.663 23.9006 16.5272 24.8313 16.4863C26.6951 16.4043 29.1187 16.7032 31.458 18.1942C36.0247 21.1049 40.7544 28.9132 39.6249 49.1201H34.2592C34.2623 49.0848 34.2655 49.0488 34.2687 49.012C34.3361 48.2399 34.4166 47.1413 34.4696 45.8293C34.5754 43.2108 34.5728 39.7165 34.1298 36.2598C33.6899 32.8272 32.8018 29.3122 31.056 26.7401C30.1742 25.4409 29.0566 24.3573 27.6467 23.664C26.473 23.0869 25.1391 22.8014 23.6413 22.8528Z" stroke="#1B4E9B" stroke-width="2"/>
<path d="M25.4077 21.569L24.661 22.7902L26.0744 23.065C27.6285 23.3672 28.8704 24.5141 29.6274 26.2004C30.3855 27.8892 30.6064 30.0306 30.145 32.0771C29.6862 34.1125 28.5649 36.006 26.6891 37.2714C24.818 38.5337 22.0936 39.2395 18.3021 38.7095C10.706 37.6475 6.64173 34.0366 4.43348 30.2196C2.19836 26.3561 1.8151 22.1891 1.79302 20.0036C1.8151 17.8175 2.19836 13.6504 4.43349 9.78717C6.64173 5.97036 10.706 2.35977 18.3022 1.29781C22.0937 0.767804 24.8181 1.47362 26.6892 2.73586C28.5649 4.00123 29.6862 5.8947 30.1451 7.93005C30.6064 9.97642 30.3855 12.1176 29.6274 13.8062C28.8705 15.4923 27.6287 16.6388 26.0746 16.9407L24.6622 17.215L25.4073 18.4361L25.4114 18.4434C25.4179 18.4552 25.4302 18.4783 25.4464 18.5117C25.479 18.5789 25.5262 18.6856 25.5733 18.8248C25.6683 19.1053 25.7574 19.5008 25.738 19.9616L25.7362 20.0036L25.738 20.0457C25.7574 20.5065 25.6683 20.9015 25.5734 21.1814C25.5263 21.3203 25.4792 21.4268 25.4467 21.4937C25.4305 21.527 25.4182 21.55 25.4117 21.5617L25.4077 21.569Z" stroke="#1B4E9B" stroke-width="2"/>
<g opacity="0.2">
<path d="M20.8715 39.6998C5.06681 37.4903 3.54235 24.5294 3.49871 20.0036C3.54235 15.4763 5.06681 2.51696 20.8715 0.307519C21.2779 0.251072 21.6744 0.208297 22.0589 0.177827C20.8854 0.0741134 19.589 0.107708 18.1638 0.307519C2.35892 2.51696 0.836612 15.4763 0.792969 20.0036C0.836612 24.5294 2.35892 37.4903 18.1636 39.6998C19.5889 39.8997 20.8854 39.9333 22.0588 39.8295C21.6742 39.799 21.2778 39.7562 20.8715 39.6998Z" fill="white"/>
</g>
</svg>
