<svg width="18" height="17" viewBox="0 0 18 17" fill="none" xmlns="http://www.w3.org/2000/svg">
<path fill-rule="evenodd" clip-rule="evenodd" d="M17.1426 16.2232H13.541V10.7521C13.541 9.32003 12.9776 8.3424 11.7387 8.3424C10.7911 8.3424 10.2641 9.00213 10.0189 9.63794C9.92688 9.86615 9.94126 10.184 9.94126 10.5019V16.2232H6.37319C6.37319 16.2232 6.41918 6.53166 6.37319 5.6507H9.94126V7.30997C10.152 6.58448 11.2922 5.54904 13.1117 5.54904C15.3691 5.54904 17.1426 7.0698 17.1426 10.3445V16.2232ZM2.76485 4.32826H2.74186C1.59211 4.32826 0.84668 3.52004 0.84668 2.49557C0.84668 1.45118 1.61414 0.659912 2.78689 0.659912C3.95869 0.659912 4.6792 1.44919 4.7022 2.49259C4.7022 3.51706 3.95868 4.32826 2.76485 4.32826ZM1.25771 5.6507H4.43392V16.2232H1.25771V5.6507Z" fill="white"/>
</svg>
