<?xml version="1.0" encoding="UTF-8"?>
<!DOCTYPE svg PUBLIC "-//W3C//DTD SVG 1.1//EN" "http://www.w3.org/Graphics/SVG/1.1/DTD/svg11.dtd">
<!-- Creator: CorelDRAW 2020 (64-Bit) -->
<svg xmlns="http://www.w3.org/2000/svg" xml:space="preserve" width="76.2mm" height="38.1mm" version="1.1" style="shape-rendering:geometricPrecision; text-rendering:geometricPrecision; image-rendering:optimizeQuality; fill-rule:evenodd; clip-rule:evenodd"
viewBox="0 0 7620 3810"
 xmlns:xlink="http://www.w3.org/1999/xlink"
 xmlns:xodm="http://www.corel.com/coreldraw/odm/2003">
 <defs>
  <style type="text/css">
   <![CDATA[
    .fil0 {fill:none}
    .fil2 {fill:#2B2A29}
    .fil4 {fill:#2B2A29;fill-rule:nonzero}
    .fil5 {fill:#2B2A29;fill-rule:nonzero}
    .fil3 {fill:#1B4E9B;fill-rule:nonzero}
    .fil1 {fill:#EF7F1A;fill-rule:nonzero}
   ]]>
  </style>
 </defs>
 <g id="Layer_x0020_1">
  <metadata id="CorelCorpID_0Corel-Layer"/>
  <g id="_1927244086224">
   <rect class="fil0" width="7620" height="3810"/>
   <g>
    <path class="fil1" d="M578.59 2144.54l-191.59 0 0 475.29 145.16 0 0 -186.43 -10.31 -107.59 82.53 294.02 114.22 0 82.53 -288.86 -10.32 102.43 0 186.43 145.17 0 0 -475.29 -191.59 0 -83.27 288.86 -82.53 -288.86zm436.97 0l0 288.86c0,134.85 81.8,201.91 226.97,201.91 145.9,0 234.33,-67.06 234.33,-191.59l0 -299.18 -160.64 0 0 299.18c0,47.89 -37.58,73.68 -72.22,73.68 -36.1,0 -72.95,-27.26 -72.95,-73.68l0 -299.18 -155.49 0zm550.46 0l0 475.29 372.87 0 0 -112.74 -217.38 0 0 -362.55 -155.49 0zm415.61 0l0 128.22 138.53 0 0 347.07 161.38 0 0 -347.07 140.01 0 0 -128.22 -439.92 0zm500.35 0l0 475.29 161.38 0 0 -475.29 -161.38 0zm228.43 242.44l0 125.27 182.01 0 0 -125.27 -182.01 0zm500.34 -103.9l150.33 0c-15.48,-123.79 -114.22,-154 -207.06,-154l-18.42 0c-112.75,0 -174.64,60.42 -183.49,128.21 -1.47,8.84 -2.94,20.63 -2.94,28.74 0,119.37 130.42,140.01 240.95,168.01 20.63,6.63 29.48,20.63 29.48,32.42 0,17.68 -20.64,36.11 -50.11,36.11 -30.95,0 -67.05,-10.32 -77.37,-51.59l-150.32 0c0,117.91 108.32,164.33 222.53,164.33 106.85,0 212.22,-58.95 212.22,-162.12l0 -7.36c-5.16,-89.16 -72.22,-129.69 -181.27,-150.33 -46.42,-9.57 -95.05,-23.57 -95.05,-49.37 0,-0.73 2.21,-5.89 2.21,-8.84 3.68,-11.79 20.63,-16.94 38.31,-16.94 30.22,0 67.06,14.73 70,42.73zm218.85 -138.53l0 475.28 160.64 0 0 -143.69 87.69 0c129.69,0 193.8,-81.05 193.8,-162.11 0,-84 -67.79,-169.48 -198.96,-169.48l-243.17 0zm160.64 112.74l72.22 0c34.63,0 51.58,27.27 51.58,51.59 0,22.84 -15.48,47.15 -46.43,47.15l-77.37 0 0 -98.74zm332.33 -107.58l0 470.12 398.65 0 0 -112.74 -238.01 0 0 -68.53 191.58 0 0 -112.74 -191.58 0 0 -63.37 227.69 0 0 -112.74 -388.33 0zm774.45 176.11l148.85 0c-5.16,-63.37 -40.53,-196.74 -242.43,-196.74 -130.43,0 -238.01,76.63 -238.01,257.9 0,151.06 86.95,238.01 243.17,243.17l10.31 0c128.22,0 228.43,-91.37 233.59,-196.74l-155.48 0c-10.31,63.37 -53.05,78.84 -83.26,78.84 -60.43,0 -91.38,-65.58 -91.38,-130.43 0,-66.32 31.69,-134.85 86.22,-134.85l5.16 0c17.68,0 60.42,5.17 83.26,78.85zm216.64 -181.27l0 475.28 161.38 0 0 -475.28 -161.38 0zm388.34 0l-170.96 475.28 159.17 0 16.94 -61.89 155.48 0 15.48 61.89 160.64 0 -170.96 -475.28 -165.79 0zm36.1 316.12l46.42 -155.48 45.69 155.48 -92.11 0zm359.6 -316.12l0 475.28 372.85 0 0 -112.74 -217.37 0 0 -362.54 -155.48 0zm415.59 0l0 128.22 138.53 0 0 347.06 161.38 0 0 -347.06 140 0 0 -128.22 -439.91 0zm468.65 0l176.11 304.33 0 170.95 155.48 0 0 -170.95 181.27 -304.33 -181.27 0 -78.11 155.48 -77.37 -155.48 -176.11 0z"/>
    <polygon class="fil2" points="387,3007.1 1549.29,3007.1 1549.29,3029.42 387,3029.42 "/>
    <path class="fil3" d="M5644.48 2920.24l148.66 0c-15.3,-122.42 -112.95,-152.3 -204.76,-152.3l-18.22 0c-111.5,0 -172.71,59.75 -181.46,126.79 -1.45,8.75 -2.91,20.41 -2.91,28.43 0,118.05 128.98,138.45 238.29,166.14 20.4,6.56 29.15,20.41 29.15,32.07 0,17.49 -20.4,35.7 -49.55,35.7 -30.61,0 -66.32,-10.2 -76.52,-51.01l-148.66 0c0,116.6 107.13,162.51 220.08,162.51 105.66,0 209.87,-58.3 209.87,-160.32l0 -7.29c-5.1,-88.17 -71.41,-128.25 -179.26,-148.66 -45.91,-9.47 -94.01,-23.31 -94.01,-48.82 0,-0.73 2.18,-5.83 2.18,-8.75 3.65,-11.65 20.41,-16.76 37.9,-16.76 29.88,0 66.31,14.58 69.22,42.27z"/>
    <polygon class="fil2" points="5932.51,3007.1 7094.8,3007.1 7094.8,3029.42 5932.51,3029.42 "/>
    <g>
     <path class="fil4" d="M7454.59 631.41l-14.56 0 0 0 -0.11 -4.27 -0.31 -4.2 -0.53 -4.13 -0.73 -4.09 -0.92 -3.99 -1.11 -3.92 -1.3 -3.84 -1.48 -3.76 -1.65 -3.65 -1.83 -3.56 -2 -3.47 -2.15 -3.36 -2.3 -3.24 -2.46 -3.13 -2.6 -3 -2.73 -2.88 -2.88 -2.73 -3 -2.6 -3.13 -2.46 -3.24 -2.3 -3.36 -2.15 -3.47 -2 -3.56 -1.83 -3.65 -1.65 -3.76 -1.48 -3.84 -1.3 -3.92 -1.11 -3.99 -0.92 -4.09 -0.73 -4.13 -0.53 -4.2 -0.31 -4.27 -0.11 0 -14.56 4.99 0.13 4.94 0.37 4.87 0.63 4.79 0.85 4.71 1.08 4.62 1.31 4.52 1.54 4.42 1.74 4.31 1.95 4.2 2.15 4.07 2.34 3.94 2.53 3.82 2.7 3.67 2.9 3.52 3.04 3.38 3.23 3.23 3.38 3.04 3.52 2.9 3.67 2.7 3.82 2.53 3.94 2.34 4.07 2.15 4.2 1.95 4.31 1.74 4.42 1.54 4.52 1.31 4.62 1.08 4.71 0.85 4.79 0.63 4.87 0.37 4.94 0.13 4.99 0 0zm-97.26 97.26l0 -14.56 0 0 4.27 -0.11 4.2 -0.31 4.13 -0.53 4.09 -0.73 3.99 -0.92 3.92 -1.11 3.84 -1.3 3.76 -1.48 3.65 -1.65 3.56 -1.83 3.47 -2 3.36 -2.15 3.24 -2.3 3.13 -2.46 3 -2.6 2.88 -2.73 2.73 -2.88 2.6 -3 2.46 -3.13 2.3 -3.24 2.15 -3.36 2 -3.47 1.83 -3.56 1.65 -3.65 1.48 -3.76 1.3 -3.84 1.11 -3.92 0.92 -3.99 0.73 -4.09 0.53 -4.13 0.31 -4.2 0.11 -4.27 14.56 0 -0.13 4.99 -0.37 4.94 -0.63 4.87 -0.85 4.79 -1.08 4.71 -1.31 4.62 -1.54 4.52 -1.74 4.42 -1.95 4.31 -2.15 4.2 -2.34 4.07 -2.53 3.94 -2.7 3.82 -2.9 3.67 -3.04 3.52 -3.23 3.38 -3.38 3.23 -3.52 3.04 -3.67 2.9 -3.82 2.7 -3.94 2.53 -4.07 2.34 -4.2 2.15 -4.31 1.95 -4.42 1.74 -4.52 1.54 -4.62 1.31 -4.71 1.08 -4.79 0.85 -4.87 0.63 -4.94 0.37 -4.99 0.13 0 0zm-97.26 -97.26l14.56 0 0 0 0.11 4.27 0.31 4.2 0.53 4.13 0.73 4.09 0.92 3.99 1.12 3.92 1.29 3.84 1.48 3.76 1.65 3.65 1.83 3.56 2 3.47 2.15 3.36 2.31 3.24 2.45 3.13 2.6 3 2.75 2.88 2.86 2.73 3.01 2.6 3.13 2.47 3.23 2.29 3.36 2.15 3.47 2 3.56 1.82 3.66 1.66 3.76 1.48 3.83 1.3 3.91 1.11 4.01 0.92 4.08 0.73 4.13 0.53 4.2 0.31 4.27 0.11 0 14.56 -4.99 -0.13 -4.94 -0.37 -4.87 -0.63 -4.78 -0.85 -4.71 -1.08 -4.63 -1.31 -4.53 -1.54 -4.4 -1.74 -4.32 -1.94 -4.2 -2.16 -4.07 -2.34 -3.94 -2.53 -3.81 -2.71 -3.67 -2.89 -3.53 -3.04 -3.38 -3.23 -3.21 -3.38 -3.06 -3.52 -2.89 -3.67 -2.71 -3.82 -2.53 -3.94 -2.34 -4.07 -2.15 -4.2 -1.95 -4.31 -1.74 -4.42 -1.53 -4.52 -1.32 -4.62 -1.08 -4.71 -0.85 -4.79 -0.63 -4.87 -0.37 -4.94 -0.13 -4.99 0 0zm97.26 -97.26l0 14.56 0 0 -4.27 0.11 -4.2 0.31 -4.13 0.53 -4.08 0.73 -4.01 0.92 -3.91 1.11 -3.83 1.3 -3.76 1.48 -3.66 1.66 -3.56 1.82 -3.47 2 -3.36 2.15 -3.23 2.29 -3.13 2.47 -3.01 2.6 -2.86 2.73 -2.75 2.88 -2.6 3 -2.45 3.13 -2.31 3.24 -2.15 3.36 -2 3.47 -1.83 3.56 -1.65 3.65 -1.48 3.76 -1.29 3.84 -1.12 3.92 -0.92 3.99 -0.73 4.09 -0.53 4.13 -0.31 4.2 -0.11 4.27 -14.56 0 0.13 -4.99 0.37 -4.94 0.63 -4.87 0.85 -4.79 1.08 -4.71 1.32 -4.62 1.53 -4.52 1.74 -4.42 1.95 -4.31 2.15 -4.2 2.34 -4.07 2.53 -3.94 2.71 -3.82 2.89 -3.67 3.06 -3.52 3.21 -3.38 3.38 -3.23 3.53 -3.04 3.67 -2.89 3.81 -2.71 3.94 -2.53 4.07 -2.34 4.2 -2.16 4.32 -1.94 4.4 -1.74 4.53 -1.54 4.63 -1.31 4.71 -1.08 4.78 -0.85 4.87 -0.63 4.94 -0.37 4.99 -0.13 0 0z"/>
    </g>
    <path class="fil5" d="M7316.55 683.36l0 -103.9 46.05 0c9.27,0 16.31,0.94 21.12,2.8 4.81,1.87 8.66,5.15 11.54,9.87 2.88,4.72 4.3,9.94 4.3,15.65 0,7.38 -2.39,13.59 -7.15,18.65 -4.77,5.05 -12.12,8.25 -22.09,9.62 3.65,1.74 6.41,3.49 8.3,5.18 4.01,3.67 7.81,8.3 11.36,13.83l17.98 28.3 -17.18 0 -13.73 -21.62c-4,-6.27 -7.31,-11.03 -9.9,-14.34 -2.61,-3.31 -4.93,-5.62 -6.99,-6.94 -2.03,-1.31 -4.13,-2.23 -6.26,-2.76 -1.55,-0.32 -4.09,-0.49 -7.64,-0.49l-15.92 0 0 46.15 -13.79 0zm13.79 -58.04l29.51 0c6.29,0 11.17,-0.66 14.7,-1.96 3.54,-1.29 6.22,-3.37 8.03,-6.24 1.84,-2.86 2.76,-5.96 2.76,-9.31 0,-4.92 -1.76,-8.98 -5.32,-12.15 -3.55,-3.17 -9.17,-4.74 -16.84,-4.74l-32.84 0 0 34.4z"/>
    <path class="fil3" d="M1673.35 2783.24l0 470.02 158.86 0 0 -179.26 138.46 0 0 179.26 158.86 0 0 -470.02 -158.86 0 0 158.86 -138.46 0 0 -158.86 -158.86 0zm770.25 -15.3c-164.68,5.1 -249.94,130.44 -249.94,254.32 0,123.15 85.26,246.31 255.05,246.31 169.79,0 252.13,-121.7 252.13,-250.68 -5.1,-123.16 -92.54,-249.95 -257.24,-249.95zm5.11 121.69c40.81,0 88.17,35.71 88.17,123.16 0,88.17 -30.61,139.18 -88.17,139.18 -55.39,0 -91.09,-45.91 -91.09,-134.08 0,-85.99 40.8,-128.26 91.09,-128.26zm560.38 30.61l148.66 0c-15.3,-122.42 -112.95,-152.3 -204.77,-152.3l-18.22 0c-111.49,0 -172.71,59.75 -181.45,126.79 -1.46,8.75 -2.92,20.41 -2.92,28.43 0,118.05 128.99,138.45 238.29,166.14 20.41,6.56 29.16,20.41 29.16,32.07 0,17.49 -20.41,35.7 -49.56,35.7 -30.6,0 -66.31,-10.2 -76.51,-51.01l-148.66 0c0,116.6 107.12,162.51 220.07,162.51 105.66,0 209.87,-58.3 209.87,-160.32l0 -7.29c-5.1,-88.17 -71.41,-128.25 -179.26,-148.66 -45.91,-9.47 -94.01,-23.31 -94.01,-48.82 0,-0.73 2.19,-5.83 2.19,-8.75 3.64,-11.65 20.4,-16.76 37.89,-16.76 29.88,0 66.31,14.58 69.23,42.27zm216.43 -137l0 470.02 158.86 0 0 -142.1 86.72 0c128.25,0 191.65,-80.15 191.65,-160.31 0,-83.08 -67.04,-167.61 -196.75,-167.61l-240.48 0zm158.86 111.49l71.41 0c34.26,0 51.02,26.96 51.02,51.02 0,22.59 -15.31,46.63 -45.92,46.63l-76.51 0 0 -97.65zm320.64 -111.49l0 470.02 159.58 0 0 -470.02 -159.58 0zm228.82 0l0 126.8 136.99 0 0 343.22 159.6 0 0 -343.22 138.45 0 0 -126.8 -435.04 0zm627.42 0l-169.06 470.02 157.4 0 16.76 -61.21 153.76 0 15.31 61.21 158.85 0 -169.05 -470.02 -163.97 0zm35.71 312.62l45.91 -153.76 45.18 153.76 -91.09 0zm355.61 -312.62l0 470.02 368.73 0 0 -111.49 -214.97 0 0 -358.53 -153.76 0z"/>
    <path class="fil3" d="M825.54 1102.22l364.89 0c-37.56,-300.5 -277.24,-373.83 -502.61,-373.83l-44.72 0c-273.66,0 -423.91,146.67 -445.37,311.23 -3.57,21.46 -7.16,50.08 -7.16,69.75 0,289.76 316.6,339.84 584.89,407.81 50.08,16.1 71.55,50.08 71.55,78.7 0,42.93 -50.09,87.65 -121.63,87.65 -75.12,0 -162.77,-25.05 -187.8,-125.21l-364.89 0c0,286.19 262.94,398.87 540.17,398.87 259.36,0 515.13,-143.09 515.13,-393.5l0 -17.89c-12.53,-216.42 -175.28,-314.8 -440.01,-364.88 -112.69,-23.25 -230.73,-57.24 -230.73,-119.84 0,-1.79 5.36,-14.31 5.36,-21.46 8.95,-28.62 50.08,-41.14 93.01,-41.14 73.34,0 162.77,35.76 169.92,103.74zm559.85 -336.26l0 1153.66 389.92 0 0 -440 339.83 0 0 440 389.93 0 0 -1153.66 -389.93 0 0 389.91 -339.83 0 0 -389.91 -389.92 0zm1654.49 0l-414.97 1153.66 386.35 0 41.13 -150.24 377.42 0 37.55 150.24 389.93 0 -414.97 -1153.66 -402.44 0zm87.65 767.32l112.68 -377.41 110.89 377.41 -223.57 0zm872.85 -767.32l0 1153.66 905.04 0 0 -273.66 -527.64 0 0 -880 -377.4 0zm1012.37 0l0 1153.66 663.59 0c291.54,0 422.11,-164.55 422.11,-323.74 0,-119.84 -71.55,-237.89 -205.69,-279.03 89.43,-39.35 139.51,-130.57 139.51,-220 0,-157.4 -135.93,-330.89 -441.8,-330.89l-577.72 0zm389.92 286.17l162.77 0c76.9,0 118.04,46.51 118.04,87.65 0,42.93 -44.71,91.22 -130.56,91.22l-150.25 0 0 -178.87zm0 402.45l212.85 0c71.55,0 110.9,57.24 110.9,103.74 0,42.92 -33.99,87.64 -110.9,87.64l-212.85 0 0 -191.38zm774.88 -688.62l427.48 738.7 0 414.96 377.41 0 0 -414.96 440 -738.7 -440 0 -189.6 377.39 -187.81 -377.39 -427.48 0z"/>
   </g>
  </g>
 </g>
</svg>
