<svg width="40" height="40" viewBox="0 0 40 40" fill="none" xmlns="http://www.w3.org/2000/svg">
<path d="M20.0003 3.13333C20.0003 3.13333 23.9336 -0.466673 27.2003 3.26666C27.2003 3.26666 31.7336 3.86666 31.2669 8.39999C31.2669 8.39999 36.4003 10.1333 35.3336 15.2667C35.3336 15.2667 38.6003 19.3333 35.9336 22.1333C35.9336 22.1333 38.1336 27.4667 34.4003 29.6C34.4003 29.6 34.4003 34.6 30.5336 35.3333C30.5336 35.3333 24.6003 42.2 19.9336 35.8L20.0003 3.13333Z" stroke="#1B4E9B" stroke-width="2" stroke-miterlimit="10"/>
<path d="M29.6667 4.33332C29.6667 4.33332 26.2 2.73332 25 5.93332" stroke="#1B4E9B" stroke-width="2" stroke-miterlimit="10" stroke-linecap="round"/>
<path d="M32.9339 9.26666C32.9339 9.26666 26.6672 6.73333 25.8672 13.8667" stroke="#1B4E9B" stroke-width="2" stroke-miterlimit="10" stroke-linecap="round"/>
<path d="M23.2676 16.3333C23.2676 16.3333 30.1342 20.5333 31.5342 13.3333" stroke="#1B4E9B" stroke-width="2" stroke-miterlimit="10" stroke-linecap="round"/>
<path d="M30.2665 21.1333C30.2665 21.1333 27.1332 21.3333 26.5332 17.6667" stroke="#1B4E9B" stroke-width="2" stroke-miterlimit="10" stroke-linecap="round"/>
<path d="M36.8674 20.6C36.7341 20.6 36.8008 23.2667 31.8008 24.0667" stroke="#1B4E9B" stroke-width="2" stroke-miterlimit="10" stroke-linecap="round"/>
<path d="M22.0684 23C22.0684 23 26.8684 23 26.935 28.2667" stroke="#1B4E9B" stroke-width="2" stroke-miterlimit="10" stroke-linecap="round"/>
<path d="M23.4668 33.2C23.4668 33.2 23.4668 28.6667 28.2668 28.4" stroke="#1B4E9B" stroke-width="2" stroke-miterlimit="10" stroke-linecap="round"/>
<path d="M22.6667 9.13333C22.6667 9.13333 20.3333 9.46667 20 11.4667" stroke="#1B4E9B" stroke-width="2" stroke-miterlimit="10" stroke-linecap="round"/>
<path d="M19.8674 3.13333C19.8674 3.13333 15.9341 -0.466673 12.6675 3.26666C12.6675 3.26666 8.13412 3.86666 8.60078 8.39999C8.60078 8.39999 3.46745 10.1333 4.53412 15.2667C4.53412 15.2667 1.26745 19.3333 3.93412 22.1333C3.93412 22.1333 1.73412 27.4667 5.46745 29.6C5.46745 29.6 5.46745 34.6 9.33412 35.3333C9.33412 35.3333 15.2675 42.2 19.9341 35.8V3.13333H19.8674Z" stroke="#1B4E9B" stroke-width="2" stroke-miterlimit="10"/>
<path d="M10.334 4.33332C10.334 4.33332 13.8007 2.73332 15.0007 5.93332" stroke="#1B4E9B" stroke-width="2" stroke-miterlimit="10" stroke-linecap="round"/>
<path d="M6.80078 9.33332C6.80078 9.33332 13.3341 6.79999 14.1341 13.8667" stroke="#1B4E9B" stroke-width="2" stroke-miterlimit="10" stroke-linecap="round"/>
<path d="M16.4678 16.3333C16.4678 16.3333 9.60117 20.5333 8.20117 13.3333" stroke="#1B4E9B" stroke-width="2" stroke-miterlimit="10" stroke-linecap="round"/>
<path d="M9.5332 21.1333C9.5332 21.1333 12.6665 21.3333 13.2665 17.6667" stroke="#1B4E9B" stroke-width="2" stroke-miterlimit="10" stroke-linecap="round"/>
<path d="M2.93359 20.2667C3.00026 20.3333 3.06693 23.2 8.06693 24" stroke="#1B4E9B" stroke-width="2" stroke-miterlimit="10" stroke-linecap="round"/>
<path d="M17.8003 23C17.8003 23 13.0003 23 12.9336 28.2667" stroke="#1B4E9B" stroke-width="2" stroke-miterlimit="10" stroke-linecap="round"/>
<path d="M16.4016 33.2C16.4016 33.2 16.4016 28.6667 11.6016 28.4" stroke="#1B4E9B" stroke-width="2" stroke-miterlimit="10" stroke-linecap="round"/>
<path d="M17.334 12.4667C17.334 12.4667 19.6673 12.8 20.0007 14.8" stroke="#1B4E9B" stroke-width="2" stroke-miterlimit="10" stroke-linecap="round"/>
<path d="M16.2676 28.1333C16.2676 28.1333 19.2009 28.8 19.8676 31.1333" stroke="#1B4E9B" stroke-width="2" stroke-miterlimit="10" stroke-linecap="round"/>
</svg>
