<?xml version="1.0" encoding="UTF-8"?>
<svg xmlns="http://www.w3.org/2000/svg" width="48" height="43" viewBox="0 0 48 43" fill="none">
  <g clip-path="url(#clip0_957_12180)">
    <mask id="mask0_957_12180" style="mask-type:luminance" maskUnits="userSpaceOnUse" x="0" y="0" width="48" height="43">
      <path d="M47.6164 0.5H0.5V42.5H47.6164V0.5Z" fill="white"></path>
    </mask>
    <g mask="url(#mask0_957_12180)">
      <path d="M37.7655 0.5C34.94 0.5 32.1909 1.56909 30.2055 3.63091C26.1582 2.63818 21.8818 2.63818 17.7582 3.63091C15.8491 1.56909 13.1764 0.5 10.3509 0.5C4.92909 0.5 0.5 4.39455 0.5 9.12909C0.5 10.8091 1.03455 12.4891 2.10364 13.8636C2.33273 16.0782 4.54727 17.7582 7.22 17.7582C10.0455 17.7582 12.3364 15.8491 12.3364 13.4055C12.3364 11.0382 10.0455 9.05273 7.22 9.05273C6.53273 9.05273 5.92182 9.12909 5.23454 9.35818C5.23454 9.28182 5.23454 9.12909 5.23454 9.05273C5.23454 6.91455 7.52545 5.15818 10.3509 5.15818C11.8018 5.15818 13.2527 5.69273 14.3982 6.68546L15.4673 9.81636V9.89273L19.0564 20.2018C18.2927 21.1945 17.8345 22.4164 17.8345 23.6382C17.8345 24.1727 17.9109 24.7073 18.0636 25.2418C19.0564 28.22 19.6673 31.2745 19.8964 34.4055L19.9727 35.4745C20.1255 37.6127 19.6673 39.8273 18.6745 41.7364L20.0491 42.4236C20.5073 41.5073 20.8127 40.5909 21.1182 39.5982C23.1036 40.1327 25.0891 40.1327 27.0745 39.5982C27.3036 40.5909 27.6855 41.5073 28.1436 42.4236L29.5182 41.7364C28.5255 39.8273 28.0673 37.6127 28.22 35.4745L28.2964 34.0236C28.3727 31.1982 28.9836 28.3727 29.9764 25.7C30.74 23.8673 30.4345 21.7291 29.1364 20.1255L32.7255 9.89273V9.81636L33.7945 6.68546C34.8636 5.69273 36.3145 5.15818 37.8418 5.15818C40.6673 5.15818 42.9582 6.91455 42.9582 9.05273C42.9582 9.12909 42.9582 9.28182 42.9582 9.35818C42.3473 9.12909 41.66 9.05273 40.9727 9.05273C38.1473 9.05273 35.8564 10.9618 35.8564 13.4055C35.8564 15.7727 38.1473 17.7582 40.9727 17.7582C43.6455 17.7582 45.86 16.0018 46.0891 13.8636C47.0818 12.4891 47.6927 10.8855 47.6927 9.12909C47.6164 4.39455 43.1873 0.5 37.7655 0.5ZM10.7327 13.4818C10.7327 15.0091 9.12909 16.2309 7.22 16.2309C5.23455 16.2309 3.70727 15.0091 3.70727 13.4818C3.70727 11.9545 5.31091 10.7327 7.22 10.7327C9.12909 10.7327 10.7327 11.9545 10.7327 13.4818ZM26.6927 33.9473V34.1764C25.0127 34.6345 23.18 34.6345 21.4236 34.1764C21.3473 33.4127 21.2709 32.5727 21.1945 31.8091C23.0273 32.3436 25.0127 32.3436 26.8455 31.8091C26.7691 32.5727 26.6927 33.26 26.6927 33.9473ZM27.0745 30.1291C25.0891 30.8164 22.8745 30.8164 20.8891 30.0527C20.7364 29.2127 20.5073 28.3727 20.3545 27.6091C22.7218 28.4491 25.3182 28.4491 27.6855 27.6855C27.4564 28.5255 27.2273 29.2891 27.0745 30.1291ZM21.4236 38.1473C21.5 37.3836 21.5764 36.62 21.5764 35.8564C23.2564 36.2382 25.0127 36.2382 26.6927 35.8564C26.6927 36.62 26.6927 37.3836 26.8455 38.1473C25.0127 38.6055 23.1036 38.6055 21.4236 38.1473ZM28.7545 23.6382C28.7545 24.1727 28.6782 24.6309 28.4491 25.1655C28.3727 25.3945 28.2964 25.5473 28.22 25.7764C25.5473 27.0745 22.4164 27.0745 19.7436 25.7764C19.6673 25.4709 19.5909 25.1655 19.4382 24.86C19.2855 24.4782 19.2855 24.0964 19.2855 23.6382C19.2855 23.1036 19.4382 22.5691 19.5909 22.0345L19.8964 22.9509C20.1255 23.5618 20.7364 24.02 21.3473 24.02H21.8818C22.7218 24.02 23.4855 23.3327 23.4855 22.4164C23.4855 22.1873 23.4091 21.9582 23.3327 21.7291L22.9509 20.8891C22.7982 20.5836 22.8745 20.1255 23.18 19.8964C23.4855 19.6673 23.7909 19.3618 24.02 19.0564C24.2491 19.3618 24.5545 19.6673 24.86 19.9727C25.1655 20.2018 25.2418 20.5836 25.0891 20.8891L24.7073 21.7291C24.3255 22.4927 24.6309 23.4855 25.3945 23.8673C25.6236 24.02 25.8527 24.02 26.1582 24.02H26.6927C27.38 24.02 27.9145 23.5618 28.1436 22.9509L28.4491 22.0345C28.6782 22.5691 28.7545 23.1036 28.7545 23.6382ZM40.9727 16.2309C38.9873 16.2309 37.46 15.0091 37.46 13.4818C37.46 11.9545 39.0636 10.7327 40.9727 10.7327C42.8818 10.7327 44.4854 11.9545 44.4854 13.4818C44.4854 15.0091 42.8818 16.2309 40.9727 16.2309ZM45.5545 11.5727C45.2491 11.0382 44.8673 10.58 44.3327 10.1982C44.4091 9.81636 44.4854 9.43455 44.4854 9.12909C44.4854 6.07455 41.5073 3.63091 37.8418 3.63091C35.8564 3.55455 34.0236 4.31818 32.5727 5.69273C32.4964 5.76909 32.4964 5.84545 32.42 5.92182L32.3436 5.99818L31.1982 9.28182V9.35818L26.6164 22.4164H26.0818L26.4636 21.5764C26.9982 20.5836 26.6927 19.3618 25.7764 18.6745C24.9364 18.0636 24.6309 16.7655 25.1655 15.7727L26.3109 13.4055C27.2273 11.4964 28.7545 9.96909 30.6636 9.05273L29.9764 7.67818C27.7618 8.74727 26.0055 10.58 24.9364 12.7182L24.0964 14.4745L23.18 12.7182C22.1109 10.5036 20.2782 8.74727 18.14 7.67818L17.4527 9.05273C19.3618 9.96909 20.8891 11.4964 21.8055 13.4055L22.9509 15.7727C23.3327 16.5364 23.2564 17.4527 22.7218 18.2164C22.5691 18.4455 22.4164 18.5982 22.2636 18.7509C21.3473 19.4382 21.0418 20.66 21.5764 21.6527L21.9582 22.4927H21.4236L16.8418 9.43455V9.35818L15.7727 6.07455C15.7727 5.92182 15.6964 5.84545 15.62 5.76909C14.2455 4.39455 12.3364 3.63091 10.3509 3.63091C6.68545 3.63091 3.70727 6.07455 3.70727 9.12909C3.70727 9.51091 3.78364 9.89273 3.86 10.1982C3.40182 10.58 2.94364 11.0382 2.63818 11.5727C2.33273 10.8091 2.10364 9.96909 2.10364 9.12909C2.10364 5.23455 5.76909 2.02727 10.3509 2.02727C12.8709 1.95091 15.3145 3.02 16.9945 4.92909C17.2236 5.15818 17.5291 5.23455 17.7582 5.15818H18.0636C22.0345 4.16545 26.0818 4.16545 30.0527 5.15818L30.3582 5.23455C30.6636 5.31091 30.9691 5.23455 31.1218 5.00545C32.8018 3.09636 35.2455 2.10364 37.7655 2.10364C42.3473 2.10364 46.0127 5.23455 46.0127 9.20545C46.0127 9.96909 45.86 10.8091 45.5545 11.5727Z" fill="#1B4E9B"></path>
      <path d="M26.54 6.15092C24.9364 6.53274 23.2564 6.53274 21.5764 6.15092L17.9873 5.23456L17.6055 6.83819L21.1946 7.75456C23.1037 8.21274 25.0127 8.21274 26.9218 7.75456L30.5109 6.83819L30.1291 5.23456L26.54 6.15092Z" fill="#1B4E9B"></path>
    </g>
  </g>
  <defs>
    <clipPath id="clip0_957_12180">
      <rect width="47.3455" height="42" fill="white" transform="translate(0.5 0.5)"></rect>
    </clipPath>
  </defs>
</svg>
