<svg width="41" height="50" viewBox="0 0 41 50" fill="none" xmlns="http://www.w3.org/2000/svg">
<path d="M20.5676 1.01376C25.131 1.27903 29.099 5.35452 30.0818 11.0309H28.5567C27.5593 7.17257 24.454 4.19642 20.5904 3.96015L19.4165 2.47255L20.5676 1.01376Z" fill="#1B4E9B" stroke="#1B4E9B" stroke-width="2"/>
<path d="M10.1064 11.0309C11.0512 5.57383 14.755 1.59634 19.0945 1.06144V4.00683C15.4662 4.45891 12.5852 7.34161 11.6315 11.0309H10.1064Z" stroke="#1B4E9B" stroke-width="2"/>
<path d="M2.97515 45.4219L3.11997 45.0549L2.97514 44.6878L1.54748 41.0696C16.8777 40.2188 28.8988 25.9852 28.8988 8.79121C28.8988 7.4346 28.6469 6.13012 28.1885 4.9402C30.1001 7.20934 31.289 10.2914 31.2891 13.7362C31.2891 32.7575 18.0204 48.0854 1.57891 48.9605L2.97515 45.4219Z" stroke="#1B4E9B" stroke-width="2"/>
<path d="M38.6085 48.9605C22.1671 48.0854 8.89844 32.7575 8.89844 13.7362C8.89844 10.2914 10.0873 7.20936 11.9989 4.94023C11.5406 6.13014 11.2887 7.43461 11.2887 8.79121C11.2887 25.9852 23.3098 40.2188 38.64 41.0696L37.2123 44.688L37.0675 45.055L37.2123 45.422L38.6085 48.9605Z" stroke="#1B4E9B" stroke-width="2"/>
</svg>
