<?xml version="1.0" encoding="UTF-8"?>
<svg xmlns="http://www.w3.org/2000/svg" width="20" height="22" viewBox="0 0 20 22" fill="none">
  <path d="M19.9249 21.8209C19.9249 21.9186 19.8509 22 19.7621 22H1.16671C1.07791 22 1.00391 21.9186 1.00391 21.8209V21.1791C1.00391 21.0814 1.07791 21 1.16671 21H19.7621C19.8509 21 19.9249 21.0814 19.9249 21.1791V21.8209Z" fill="#828282"></path>
  <path d="M3.10645 2.5332H17.7007V20.8893H3.10645V2.5332Z" fill="#D1D3D3"></path>
  <path d="M2.83887 2.5332H17.429V5.07413H2.83887V2.5332Z" fill="#828282"></path>
  <path d="M7.31055 17.7168H11.5152V20.8917H7.31055V17.7168Z" fill="white"></path>
  <path d="M12.4907 20.8915H11.7332V18.0852H8.06797V20.8915H7.31055V17.7167C7.31055 17.5131 7.48004 17.3481 7.68926 17.3481H12.112C12.3212 17.3481 12.4907 17.5131 12.4907 17.7167V20.8915Z" fill="#828282"></path>
  <path d="M18.6438 1.62867H13.6517V0.492208C13.6517 0.221623 13.3329 0 12.9438 0H7.33271C6.94357 0 6.62484 0.221623 6.62484 0.492208V1.62867H1.63268C1.24353 1.62867 0.924805 1.85029 0.924805 2.12088V4.04075C0.924805 4.31133 1.24353 4.53296 1.63268 4.53296H18.6438C19.033 4.53296 19.3517 4.31133 19.3517 4.04075V2.12088C19.3517 1.85029 19.033 1.62867 18.6438 1.62867Z" fill="#828282"></path>
  <path d="M11.5589 9.47019V9.72019H11.8089H12.8926C12.9987 9.72019 13.0669 9.80104 13.0654 9.88093L13.0653 9.88093V9.88587V10.9841C13.0653 11.0689 12.9931 11.1498 12.8881 11.1498H11.8044H11.5544V11.3998V12.4543C11.5544 12.5391 11.4823 12.62 11.3773 12.62H10.2486C10.1446 12.62 10.0714 12.5401 10.0714 12.4543V11.3998V11.1498H9.82142H8.73773C8.63376 11.1498 8.56055 11.0699 8.56055 10.9841V9.88587C8.56055 9.80111 8.63273 9.72019 8.73773 9.72019H9.82142H10.0714V9.47019V8.41568C10.0714 8.33092 10.1436 8.25 10.2486 8.25H11.3818C11.4857 8.25 11.5589 8.32992 11.5589 8.41568V9.47019Z" fill="white" stroke="#828282" stroke-width="0.5"></path>
</svg>
