<svg width="22" height="23" viewBox="0 0 22 23" fill="none" xmlns="http://www.w3.org/2000/svg">
<g clip-path="url(#clip0_969_7)">
<path fill-rule="evenodd" clip-rule="evenodd" d="M0 20.2167H3.15576V0.0823568C3.15576 -0.102946 3.30737 0.0823568 3.49268 0.0823568H8.85148H12.5182H17.877C18.0623 0.0823568 18.2139 -0.102946 18.2139 0.0823568V20.2167H21.3697V23H12.5164H8.85148H0V20.2167ZM9.63574 10.9909H11.8145C11.88 10.9909 11.9342 11.0452 11.9342 11.1088V13.7592C11.9342 13.8247 11.88 13.879 11.8145 13.879H9.63574C9.57023 13.879 9.51595 13.8247 9.51595 13.7592V11.1088C9.51595 11.0433 9.56836 10.9909 9.63574 10.9909ZM9.40177 2.5175H11.9642V4.55021H13.9969V7.11263H11.9661V9.14535H9.40177V7.11263H7.36906V4.55021H9.40177V2.5175ZM12.5164 1.72762H8.85148H4.96761C4.83472 1.72762 4.72616 1.85864 4.72616 2.01587V19.0319C4.72616 19.1891 4.83659 19.3202 4.96761 19.3202H8.85148H12.5182H16.4021C16.535 19.3202 16.6436 19.191 16.6436 19.0319V2.01587C16.6436 1.85677 16.5331 1.72762 16.4021 1.72762H12.5164ZM11.8088 15.3914H11.7527H11.7471H9.62264H9.61703H9.56087C9.49349 15.3914 9.43921 15.4456 9.43921 15.513V18.1615C9.43921 18.2289 9.49349 18.2832 9.56087 18.2832H9.60954H9.62264H11.7452H11.7564H11.807C11.8743 18.2832 11.9286 18.2289 11.9286 18.1615V15.513C11.9305 15.4456 11.8743 15.3914 11.8088 15.3914ZM15.5112 15.3895H13.3268C13.2594 15.3895 13.2052 15.4438 13.2052 15.513V18.1615C13.2052 18.2289 13.2594 18.2832 13.3268 18.2832H15.513C15.5804 18.2832 15.6366 18.2289 15.6366 18.1615V15.513C15.6347 15.4456 15.5785 15.3895 15.5112 15.3895ZM15.5112 10.9984H13.3268C13.2594 10.9984 13.2052 11.0527 13.2052 11.12V13.7686C13.2052 13.8359 13.2594 13.8921 13.3268 13.8921H15.513C15.5804 13.8921 15.6366 13.8378 15.6366 13.7704V11.12C15.6347 11.0527 15.5785 10.9984 15.5112 10.9984ZM5.85669 15.3895H8.04289C8.11027 15.3895 8.16455 15.4438 8.16455 15.513V18.1615C8.16455 18.2289 8.1084 18.2832 8.04289 18.2832H5.85669C5.78931 18.2832 5.73315 18.2289 5.73315 18.1615V15.513C5.73315 15.4456 5.78931 15.3895 5.85669 15.3895ZM5.85669 10.9984H8.04289C8.11027 10.9984 8.16455 11.0527 8.16455 11.12V13.7686C8.16455 13.8359 8.1084 13.8921 8.04289 13.8921H5.85669C5.78931 13.8921 5.73315 13.8378 5.73315 13.7704V11.12C5.73315 11.0527 5.78931 10.9984 5.85669 10.9984Z" fill="#1B4E9B"/>
</g>
<defs>
<clipPath id="clip0_969_7">
<rect width="21.3678" height="23" fill="white"/>
</clipPath>
</defs>
</svg>
