<?xml version="1.0" encoding="UTF-8"?>
<svg xmlns="http://www.w3.org/2000/svg" width="24" height="22" viewBox="0 0 24 22" fill="none">
  <path d="M8.22841 21.8799C8.127 21.8799 8.02334 21.8642 7.92418 21.8307L2.03107 19.8775C0.8502 19.486 0.0546875 18.3897 0.0546875 17.1525V4.49828C0.0546875 3.56309 0.494135 2.71292 1.2581 2.16701C2.02206 1.62111 2.97307 1.47569 3.86549 1.77325L8.53265 3.32146C8.92477 3.45123 9.18844 3.81591 9.18844 4.22757V20.9268C9.18844 21.2333 9.0397 21.5219 8.78955 21.7009C8.62279 21.8195 8.42673 21.8799 8.22841 21.8799ZM2.94603 3.53401C2.74546 3.53401 2.5494 3.59665 2.38263 3.71746C2.12573 3.90092 1.97924 4.18506 1.97924 4.50052V17.1525C1.97924 17.5686 2.24516 17.9355 2.64179 18.0675L7.26614 19.6001V4.91442L3.25702 3.58546C3.15336 3.54967 3.04969 3.53401 2.94603 3.53401ZM20.2467 21.1393C19.938 21.1393 19.6248 21.0901 19.3205 20.9872L14.6534 19.439C14.2612 19.3092 13.9976 18.9445 13.9976 18.5329V1.83366C13.9976 1.52715 14.1463 1.23853 14.3965 1.05955C14.6466 0.880567 14.9689 0.831346 15.2641 0.929787L21.1549 2.88295C22.3381 3.27448 23.1313 4.37076 23.1313 5.60798V18.2622C23.1313 19.1974 22.6919 20.0475 21.9279 20.5934C21.4254 20.9536 20.8417 21.1393 20.2467 21.1393ZM15.9199 17.846L19.929 19.175C20.231 19.2757 20.5487 19.2264 20.8034 19.043C21.0603 18.8595 21.2068 18.5754 21.2068 18.2599V5.60798C21.2068 5.19185 20.9408 4.82493 20.5442 4.69293L15.9199 3.16038V17.846Z" fill="#828282"></path>
  <path d="M8.2279 21.8798C8.03184 21.8798 7.83803 21.8216 7.67352 21.7053C7.41661 21.5263 7.26562 21.2354 7.26562 20.9244V4.22522C7.26562 3.82251 7.52028 3.4623 7.90339 3.32583L14.6348 0.936389C14.93 0.831236 15.2568 0.875982 15.5115 1.05497C15.7684 1.23395 15.9194 1.5248 15.9194 1.83578V18.535C15.9194 18.9377 15.6647 19.2979 15.2816 19.4344L8.55016 21.8238C8.4465 21.8619 8.33607 21.8798 8.2279 21.8798ZM9.18793 4.89865V19.5709L13.9948 17.8616V3.18935L9.18793 4.89865Z" fill="#828282"></path>
</svg>
