<?xml version="1.0" encoding="UTF-8"?>
<svg xmlns="http://www.w3.org/2000/svg" width="17" height="21" viewBox="0 0 17 21" fill="none">
  <path d="M14.2982 20.8799H2.60042C1.19771 20.8799 0.0546875 19.7471 0.0546875 18.3525V3.40723C0.0546875 2.0127 1.19771 0.879883 2.60042 0.879883H14.2982C15.7009 0.879883 16.8439 2.0127 16.8439 3.40723V18.3545C16.8439 19.7471 15.7009 20.8799 14.2982 20.8799ZM2.60042 2.5459C2.12235 2.5459 1.73479 2.93262 1.73479 3.40527V18.3525C1.73479 18.8271 2.12432 19.2119 2.60042 19.2119H14.2982C14.7762 19.2119 15.1638 18.8252 15.1638 18.3525V3.40723C15.1638 2.93262 14.7743 2.54785 14.2982 2.54785H2.60042V2.5459Z" fill="#828282"></path>
  <path d="M6.77116 20.8799H2.57287C1.18394 20.8799 0.0546875 19.7588 0.0546875 18.3799V14.2139H4.25298C5.64191 14.2139 6.77116 15.335 6.77116 16.7139V20.8799ZM1.73479 15.8799V18.3799C1.73479 18.8389 2.11055 19.2119 2.57287 19.2119H5.09106V16.7119C5.09106 16.2529 4.7153 15.8799 4.25298 15.8799H1.73479ZM14.3257 20.8799H10.1274V16.7119C10.1274 15.333 11.2567 14.2119 12.6456 14.2119H16.8439V18.3799C16.8439 19.7588 15.7147 20.8799 14.3257 20.8799ZM11.8075 19.2139H14.3257C14.788 19.2139 15.1638 18.8408 15.1638 18.3818V15.8799H12.6456C12.1833 15.8799 11.8075 16.2529 11.8075 16.7119V19.2139ZM7.19021 7.8252H3.83197C3.36768 7.8252 2.99192 7.45215 2.99192 6.99121C2.99192 6.53027 3.36768 6.15723 3.83197 6.15723H7.19021C7.6545 6.15723 8.03026 6.53027 8.03026 6.99121C8.03026 7.45215 7.6545 7.8252 7.19021 7.8252ZM11.3865 11.2959H3.83197C3.36768 11.2959 2.99192 10.9229 2.99192 10.4619C2.99192 10.001 3.36768 9.62793 3.83197 9.62793H11.3865C11.8508 9.62793 12.2266 10.001 12.2266 10.4619C12.2266 10.9229 11.8508 11.2959 11.3865 11.2959Z" fill="#828282"></path>
</svg>
