<?xml version="1.0" encoding="UTF-8"?>
<svg xmlns="http://www.w3.org/2000/svg" width="29" height="35" viewBox="0 0 29 35" fill="none">
  <path d="M14.4135 34.79C29.8858 30.3654 28.8111 15.3118 28.8111 5.93908C26.0557 6.33241 23.2452 5.933 20.7085 4.78755C18.2382 3.75804 16.0749 2.10914 14.4275 0C12.7801 2.10914 10.6168 3.75804 8.14645 4.78755C5.6014 5.93831 2.7805 6.33784 0.0159913 5.93908C0.0159913 15.3118 -1.05876 30.3654 14.4135 34.79Z" fill="#EF7F1A"></path>
  <path opacity="0.4" d="M14.409 31.8731C3.94058 28.4743 2.79604 19.5064 2.78906 8.89839C5.00707 8.78656 7.18571 8.26851 9.21666 7.37C11.1042 6.56005 12.8537 5.46043 14.402 4.11084C15.9503 5.46043 17.6998 6.56005 19.5873 7.37C21.6205 8.26934 23.8016 8.78741 26.0219 8.89839C26.0219 19.5064 24.8634 28.4743 14.409 31.8731Z" fill="#EF7F1A"></path>
  <path d="M14.4142 32.2353L14.3095 32.2004C3.35955 28.6481 2.44531 19.1498 2.44531 8.89772V8.56273H2.78029C4.95842 8.44973 7.09818 7.94376 9.09624 7.06924C10.947 6.26092 12.6628 5.17352 14.1839 3.84497L14.4142 3.64258L14.6445 3.84497C16.1658 5.16763 17.8818 6.24807 19.7321 7.0483C21.7302 7.92282 23.8699 8.42879 26.0481 8.54179H26.3831V8.87678C26.3831 19.1288 25.4688 28.6272 14.5189 32.1795L14.4142 32.2353ZM3.14321 9.20479C3.14321 19.0311 4.12723 28.0828 14.4142 31.4816C24.7011 28.0828 25.6573 19.0311 25.6852 9.20479C23.5369 9.0571 21.4306 8.5376 19.46 7.66943C17.6353 6.8834 15.9354 5.83477 14.4142 4.55682C12.8919 5.83332 11.1922 6.88181 9.36841 7.66943C7.39913 8.5448 5.29275 9.0714 3.14321 9.22573V9.20479Z" fill="white"></path>
  <path d="M16.6775 13.2781C16.6775 14.4648 15.6924 15.4581 14.4383 15.4581C13.1843 15.4581 12.1992 14.4648 12.1992 13.2781C12.1992 12.0915 13.1843 11.0981 14.4383 11.0981C15.6924 11.0981 16.6775 12.0915 16.6775 13.2781Z" stroke="white" stroke-width="2"></path>
  <path d="M19.3619 20.0825L19.3729 20.0903V22.8783H9.49613V20.0903L9.50713 20.0825C10.9389 19.0655 12.6632 18.5166 14.4345 18.5166C16.2058 18.5166 17.9302 19.0655 19.3619 20.0825ZM19.5111 22.8783H19.5092C19.5098 22.8783 19.5105 22.8783 19.5111 22.8783Z" stroke="white" stroke-width="2"></path>
</svg>
