<svg width="19" height="14" viewBox="0 0 19 14" fill="none" xmlns="http://www.w3.org/2000/svg">
<path fill-rule="evenodd" clip-rule="evenodd" d="M17.46 1.13177C17.7376 1.41824 17.9377 1.77477 18.0403 2.16583C18.6308 4.61854 18.4943 8.49226 18.0517 11.0396C17.9492 11.4307 17.7491 11.7872 17.4715 12.0737C17.1938 12.3602 16.8483 12.5666 16.4693 12.6724C15.0817 13.0629 9.4972 13.0629 9.4972 13.0629C9.4972 13.0629 3.91266 13.0629 2.52513 12.6724C2.14613 12.5666 1.80058 12.3602 1.52294 12.0737C1.24529 11.7872 1.04522 11.4307 0.942674 11.0396C0.348635 8.59756 0.511493 4.72147 0.931195 2.17767C1.03374 1.78654 1.23381 1.43002 1.51146 1.14354C1.7891 0.857072 2.13465 0.650706 2.51365 0.544831C3.90118 0.154422 9.48572 0.142578 9.48572 0.142578C9.48572 0.142578 15.0703 0.142578 16.4578 0.533059C16.8368 0.638862 17.1823 0.8453 17.46 1.13177ZM12.3411 6.60274L7.70834 9.37135V3.83406L12.3411 6.60274Z" fill="white"/>
</svg>
